<svg xmlns="http://www.w3.org/2000/svg" xmlns:xlink="http://www.w3.org/1999/xlink" width="600" zoomAndPan="magnify" viewBox="0 0 450 149.999998" height="200" preserveAspectRatio="xMidYMid meet" version="1.0"><defs><g/><clipPath id="id1"><path d="M 403 21 L 445.671875 21 L 445.671875 114 L 403 114 Z M 403 21 " clip-rule="nonzero"/></clipPath><clipPath id="id2"><path d="M 328.242188 12 L 398 12 L 398 88 L 328.242188 88 Z M 328.242188 12 " clip-rule="nonzero"/></clipPath><clipPath id="id3"><path d="M 332 94 L 425 94 L 425 135.457031 L 332 135.457031 Z M 332 94 " clip-rule="nonzero"/></clipPath><clipPath id="id4"><path d="M 364 95 L 377 95 L 377 107.910156 L 364 107.910156 Z M 364 95 " clip-rule="nonzero"/></clipPath><clipPath id="id5"><path d="M 398 95 L 411 95 L 411 107.910156 L 398 107.910156 Z M 398 95 " clip-rule="nonzero"/></clipPath><clipPath id="id6"><path d="M 357.539062 59 L 412.617188 59 L 412.617188 96 L 357.539062 96 Z M 357.539062 59 " clip-rule="nonzero"/></clipPath><clipPath id="id7"><path d="M 395 47.636719 L 412.617188 47.636719 L 412.617188 65 L 395 65 Z M 395 47.636719 " clip-rule="nonzero"/></clipPath></defs><g fill="#6dcb83" fill-opacity="1"><g transform="translate(-0.700758, 123.930177)"><g><path d="M 71.945312 -97.210938 L 63.738281 -96.824219 C 62.453125 -96.824219 61.171875 -96.3125 60.402344 -95.285156 C 59.632812 -94.515625 59.121094 -93.363281 59.25 -92.335938 C 59.378906 -90.027344 61.042969 -88.105469 63.222656 -87.847656 C 62.582031 -66.429688 61.429688 -44.886719 59.632812 -23.726562 C 59.632812 -23.339844 59.632812 -22.828125 59.632812 -22.441406 C 56.300781 -30.007812 53.09375 -37.703125 50.015625 -45.269531 C 47.320312 -51.683594 44.628906 -58.351562 41.808594 -64.761719 C 41.039062 -66.558594 38.859375 -67.457031 37.191406 -67.199219 C 35.523438 -66.945312 34.371094 -65.917969 33.601562 -64.121094 C 28.855469 -52.707031 24.367188 -40.652344 19.878906 -27.1875 C 18.722656 -41.9375 17.824219 -56.8125 17.183594 -71.175781 C 16.929688 -76.5625 16.800781 -82.203125 16.542969 -87.847656 C 17.570312 -87.976562 18.46875 -88.488281 19.238281 -89.128906 C 20.132812 -90.027344 20.648438 -91.308594 20.519531 -92.464844 C 20.390625 -94.902344 18.59375 -96.824219 16.03125 -96.824219 L 7.824219 -97.210938 C 6.539062 -97.210938 5.386719 -96.695312 4.488281 -95.796875 C 3.589844 -94.902344 3.207031 -93.746094 3.207031 -92.59375 C 3.335938 -90.15625 5.128906 -88.230469 7.566406 -88.105469 C 8.207031 -66.558594 9.363281 -44.757812 11.027344 -23.46875 C 11.542969 -17.183594 12.183594 -10.773438 12.695312 -4.488281 C 12.953125 -1.921875 14.875 -0.128906 17.183594 -0.128906 C 19.238281 -0.128906 21.160156 -1.667969 21.671875 -3.589844 C 21.671875 -3.71875 21.800781 -3.847656 21.800781 -3.976562 C 27.1875 -21.546875 32.574219 -36.933594 37.960938 -50.914062 C 39.371094 -47.707031 40.652344 -44.371094 41.9375 -41.167969 C 47.066406 -28.855469 52.453125 -16.03125 58.09375 -3.589844 C 58.480469 -1.667969 60.402344 -0.128906 62.582031 -0.128906 C 64.890625 -0.128906 66.816406 -1.921875 67.070312 -4.488281 C 69.125 -26.546875 70.664062 -48.988281 71.558594 -71.046875 C 71.816406 -76.5625 72.074219 -82.332031 72.203125 -88.105469 C 73.484375 -88.230469 74.636719 -88.746094 75.40625 -89.644531 C 76.175781 -90.539062 76.5625 -91.566406 76.5625 -92.71875 C 76.433594 -95.285156 74.382812 -97.210938 71.945312 -97.210938 Z M 71.945312 -97.210938 "/></g></g></g><g fill="#6dcb83" fill-opacity="1"><g transform="translate(79.320341, 123.930177)"><g><path d="M 36.421875 -27.058594 C 36.164062 -28.46875 35.394531 -29.625 34.371094 -30.265625 C 32.316406 -31.417969 29.753906 -30.777344 28.214844 -28.726562 C 26.804688 -26.929688 24.367188 -25.90625 21.671875 -26.160156 C 18.980469 -26.417969 16.671875 -27.828125 15.644531 -29.882812 C 14.363281 -32.703125 13.980469 -36.421875 13.722656 -39.113281 L 28.726562 -39.628906 C 30.136719 -39.628906 31.675781 -39.628906 33.085938 -40.652344 C 34.625 -41.550781 35.652344 -43.347656 35.78125 -45.398438 C 35.78125 -47.320312 35.78125 -49.117188 35.652344 -51.042969 C 35.523438 -51.554688 35.523438 -52.195312 35.523438 -52.835938 C 35.394531 -57.070312 35.140625 -62.328125 31.675781 -66.175781 C 29.367188 -68.867188 25.519531 -70.277344 21.671875 -70.148438 C 17.824219 -70.019531 13.980469 -68.226562 11.414062 -65.53125 C 8.847656 -62.839844 6.925781 -58.863281 5.769531 -53.863281 C 4.746094 -49.628906 4.359375 -45.015625 4.617188 -40.140625 C 4.875 -35.910156 5.386719 -30.90625 7.308594 -26.675781 C 9.488281 -21.417969 14.621094 -17.824219 20.777344 -17.183594 C 21.417969 -17.183594 21.929688 -17.183594 22.441406 -17.183594 C 27.574219 -17.183594 32.703125 -19.621094 35.78125 -23.851562 C 36.550781 -24.75 36.679688 -25.90625 36.421875 -27.058594 Z M 13.980469 -48.859375 C 14.363281 -52.195312 15.261719 -55.144531 16.671875 -57.582031 C 17.699219 -59.378906 18.851562 -60.402344 20.390625 -60.917969 C 21.417969 -61.171875 21.546875 -61.171875 22.570312 -61.171875 C 23.210938 -61.171875 23.851562 -60.917969 24.367188 -60.660156 C 24.496094 -60.53125 24.621094 -60.402344 24.878906 -60.273438 L 25.007812 -60.148438 C 25.136719 -60.019531 25.136719 -60.019531 25.265625 -60.019531 C 25.265625 -59.890625 25.265625 -59.890625 25.390625 -59.761719 C 25.90625 -58.863281 26.160156 -57.582031 26.289062 -56.300781 C 26.546875 -54.246094 26.546875 -52.195312 26.546875 -50.144531 L 26.675781 -48.605469 L 13.851562 -48.089844 C 13.851562 -48.347656 13.851562 -48.605469 13.980469 -48.859375 Z M 13.980469 -48.859375 "/></g></g></g><g fill="#6dcb83" fill-opacity="1"><g transform="translate(120.356802, 123.930177)"><g><path d="M 36.421875 -27.058594 C 36.164062 -28.46875 35.394531 -29.625 34.371094 -30.265625 C 32.316406 -31.417969 29.753906 -30.777344 28.214844 -28.726562 C 26.804688 -26.929688 24.367188 -25.90625 21.671875 -26.160156 C 18.980469 -26.417969 16.671875 -27.828125 15.644531 -29.882812 C 14.363281 -32.703125 13.980469 -36.421875 13.722656 -39.113281 L 28.726562 -39.628906 C 30.136719 -39.628906 31.675781 -39.628906 33.085938 -40.652344 C 34.625 -41.550781 35.652344 -43.347656 35.78125 -45.398438 C 35.78125 -47.320312 35.78125 -49.117188 35.652344 -51.042969 C 35.523438 -51.554688 35.523438 -52.195312 35.523438 -52.835938 C 35.394531 -57.070312 35.140625 -62.328125 31.675781 -66.175781 C 29.367188 -68.867188 25.519531 -70.277344 21.671875 -70.148438 C 17.824219 -70.019531 13.980469 -68.226562 11.414062 -65.53125 C 8.847656 -62.839844 6.925781 -58.863281 5.769531 -53.863281 C 4.746094 -49.628906 4.359375 -45.015625 4.617188 -40.140625 C 4.875 -35.910156 5.386719 -30.90625 7.308594 -26.675781 C 9.488281 -21.417969 14.621094 -17.824219 20.777344 -17.183594 C 21.417969 -17.183594 21.929688 -17.183594 22.441406 -17.183594 C 27.574219 -17.183594 32.703125 -19.621094 35.78125 -23.851562 C 36.550781 -24.75 36.679688 -25.90625 36.421875 -27.058594 Z M 13.980469 -48.859375 C 14.363281 -52.195312 15.261719 -55.144531 16.671875 -57.582031 C 17.699219 -59.378906 18.851562 -60.402344 20.390625 -60.917969 C 21.417969 -61.171875 21.546875 -61.171875 22.570312 -61.171875 C 23.210938 -61.171875 23.851562 -60.917969 24.367188 -60.660156 C 24.496094 -60.53125 24.621094 -60.402344 24.878906 -60.273438 L 25.007812 -60.148438 C 25.136719 -60.019531 25.136719 -60.019531 25.265625 -60.019531 C 25.265625 -59.890625 25.265625 -59.890625 25.390625 -59.761719 C 25.90625 -58.863281 26.160156 -57.582031 26.289062 -56.300781 C 26.546875 -54.246094 26.546875 -52.195312 26.546875 -50.144531 L 26.675781 -48.605469 L 13.851562 -48.089844 C 13.851562 -48.347656 13.851562 -48.605469 13.980469 -48.859375 Z M 13.980469 -48.859375 "/></g></g></g><g fill="#6dcb83" fill-opacity="1"><g transform="translate(161.393263, 123.930177)"><g><path d="M 8.078125 -89.769531 C 7.695312 -76.816406 7.308594 -62.328125 7.695312 -48.21875 C 7.824219 -41.679688 8.078125 -33.984375 8.847656 -26.289062 C 9.488281 -20.007812 10.773438 -12.824219 15.515625 -7.054688 C 18.851562 -2.949219 23.726562 -0.640625 28.597656 -0.640625 C 29.882812 -0.640625 31.164062 -0.769531 32.316406 -1.027344 C 37.574219 -2.4375 42.320312 -6.667969 45.140625 -12.441406 C 47.449219 -17.3125 47.964844 -22.828125 48.476562 -28.214844 C 48.476562 -28.855469 48.605469 -29.625 48.605469 -30.394531 C 49.117188 -36.035156 49.503906 -42.0625 49.628906 -48.476562 C 50.015625 -58.609375 49.757812 -68.996094 49.628906 -79 C 49.628906 -82.332031 49.503906 -85.796875 49.503906 -89.257812 C 50.398438 -89.386719 51.425781 -89.898438 52.066406 -90.539062 C 52.964844 -91.4375 53.351562 -92.59375 53.351562 -93.746094 C 53.222656 -96.183594 51.167969 -98.105469 48.734375 -98.105469 L 40.523438 -98.105469 C 39.242188 -98.105469 38.089844 -97.59375 37.191406 -96.695312 C 36.292969 -95.796875 35.910156 -94.773438 35.910156 -93.617188 C 36.035156 -91.054688 38.089844 -89.128906 40.523438 -89.128906 C 40.523438 -85.539062 40.523438 -82.078125 40.652344 -78.484375 C 40.910156 -59.632812 41.292969 -40.269531 38.601562 -21.417969 C 37.960938 -17.183594 35.910156 -13.464844 32.832031 -11.15625 C 29.882812 -8.976562 26.289062 -9.105469 23.46875 -11.671875 C 19.621094 -15.261719 18.46875 -21.03125 17.953125 -25.519531 C 17.183594 -32.445312 16.929688 -39.242188 16.800781 -45.785156 C 16.285156 -60.789062 16.800781 -76.175781 17.183594 -89.898438 C 17.824219 -90.15625 18.46875 -90.539062 19.109375 -91.183594 C 19.878906 -92.078125 20.390625 -93.105469 20.261719 -94.257812 C 20.132812 -96.824219 18.210938 -98.75 15.773438 -98.75 L 8.59375 -98.75 C 7.308594 -98.75 6.15625 -98.234375 5.257812 -97.335938 C 4.488281 -96.441406 3.976562 -95.285156 4.105469 -94.132812 C 4.230469 -91.824219 5.898438 -90.027344 8.078125 -89.769531 Z M 8.078125 -89.769531 "/></g></g></g><g fill="#6dcb83" fill-opacity="1"><g transform="translate(218.972552, 123.930177)"><g><path d="M 37.191406 -66.6875 C 36.550781 -67.714844 35.523438 -68.484375 34.496094 -68.738281 C 33.601562 -68.867188 32.832031 -68.867188 32.0625 -68.609375 C 28.46875 -72.972656 21.671875 -73.742188 16.929688 -71.816406 C 10.132812 -69.125 6.15625 -62.199219 7.054688 -54.503906 C 7.824219 -48.089844 11.15625 -42.449219 17.054688 -37.320312 L 17.953125 -36.550781 C 22.1875 -32.832031 25.90625 -29.238281 24.109375 -25.265625 C 23.46875 -23.726562 21.417969 -22.316406 19.492188 -22.1875 C 18.46875 -22.1875 16.929688 -22.957031 16.414062 -23.46875 C 16.671875 -23.726562 16.929688 -23.980469 17.183594 -24.367188 C 17.824219 -25.390625 17.953125 -26.804688 17.570312 -27.957031 C 17.183594 -29.113281 16.542969 -30.136719 15.515625 -30.652344 C 14.363281 -31.164062 13.210938 -31.292969 12.054688 -31.035156 C 9.363281 -30.265625 6.796875 -28.726562 4.875 -26.804688 C 3.976562 -26.035156 3.589844 -24.75 3.589844 -23.597656 C 3.589844 -22.441406 4.105469 -21.160156 4.875 -20.390625 C 5.898438 -19.492188 7.054688 -19.109375 8.078125 -19.109375 C 8.335938 -19.109375 8.464844 -19.109375 8.71875 -19.238281 C 10.773438 -15.644531 15.003906 -13.335938 19.492188 -13.335938 C 20.390625 -13.335938 21.160156 -13.335938 21.929688 -13.464844 C 29.367188 -14.875 34.371094 -21.800781 33.34375 -29.367188 C 32.445312 -35.652344 28.085938 -39.5 23.980469 -43.21875 C 23.082031 -43.988281 22.316406 -44.628906 21.417969 -45.398438 C 17.953125 -48.734375 14.621094 -54.375 16.414062 -59.632812 C 17.183594 -61.8125 19.109375 -63.480469 21.417969 -63.867188 C 22.570312 -63.992188 23.851562 -63.738281 24.621094 -63.222656 C 23.851562 -62.328125 23.46875 -61.171875 23.46875 -60.019531 C 23.46875 -58.863281 23.980469 -57.582031 24.878906 -56.8125 C 25.777344 -55.914062 26.929688 -55.53125 28.085938 -55.53125 C 29.238281 -55.65625 30.265625 -56.042969 31.164062 -56.8125 C 31.804688 -57.582031 32.574219 -58.222656 33.34375 -58.734375 C 34.113281 -59.378906 34.882812 -59.890625 35.652344 -60.53125 C 36.679688 -61.171875 37.449219 -62.070312 37.703125 -63.097656 C 37.960938 -64.25 37.832031 -65.660156 37.191406 -66.6875 Z M 37.191406 -66.6875 "/></g></g></g><g fill="#6dcb83" fill-opacity="1"><g transform="translate(258.983101, 123.930177)"><g><path d="M 36.421875 -27.058594 C 36.164062 -28.46875 35.394531 -29.625 34.371094 -30.265625 C 32.316406 -31.417969 29.753906 -30.777344 28.214844 -28.726562 C 26.804688 -26.929688 24.367188 -25.90625 21.671875 -26.160156 C 18.980469 -26.417969 16.671875 -27.828125 15.644531 -29.882812 C 14.363281 -32.703125 13.980469 -36.421875 13.722656 -39.113281 L 28.726562 -39.628906 C 30.136719 -39.628906 31.675781 -39.628906 33.085938 -40.652344 C 34.625 -41.550781 35.652344 -43.347656 35.78125 -45.398438 C 35.78125 -47.320312 35.78125 -49.117188 35.652344 -51.042969 C 35.523438 -51.554688 35.523438 -52.195312 35.523438 -52.835938 C 35.394531 -57.070312 35.140625 -62.328125 31.675781 -66.175781 C 29.367188 -68.867188 25.519531 -70.277344 21.671875 -70.148438 C 17.824219 -70.019531 13.980469 -68.226562 11.414062 -65.53125 C 8.847656 -62.839844 6.925781 -58.863281 5.769531 -53.863281 C 4.746094 -49.628906 4.359375 -45.015625 4.617188 -40.140625 C 4.875 -35.910156 5.386719 -30.90625 7.308594 -26.675781 C 9.488281 -21.417969 14.621094 -17.824219 20.777344 -17.183594 C 21.417969 -17.183594 21.929688 -17.183594 22.441406 -17.183594 C 27.574219 -17.183594 32.703125 -19.621094 35.78125 -23.851562 C 36.550781 -24.75 36.679688 -25.90625 36.421875 -27.058594 Z M 13.980469 -48.859375 C 14.363281 -52.195312 15.261719 -55.144531 16.671875 -57.582031 C 17.699219 -59.378906 18.851562 -60.402344 20.390625 -60.917969 C 21.417969 -61.171875 21.546875 -61.171875 22.570312 -61.171875 C 23.210938 -61.171875 23.851562 -60.917969 24.367188 -60.660156 C 24.496094 -60.53125 24.621094 -60.402344 24.878906 -60.273438 L 25.007812 -60.148438 C 25.136719 -60.019531 25.136719 -60.019531 25.265625 -60.019531 C 25.265625 -59.890625 25.265625 -59.890625 25.390625 -59.761719 C 25.90625 -58.863281 26.160156 -57.582031 26.289062 -56.300781 C 26.546875 -54.246094 26.546875 -52.195312 26.546875 -50.144531 L 26.675781 -48.605469 L 13.851562 -48.089844 C 13.851562 -48.347656 13.851562 -48.605469 13.980469 -48.859375 Z M 13.980469 -48.859375 "/></g></g></g><g clip-path="url(#id1)"><path fill="#6dcb83" d="M 442.253906 105.894531 L 438.863281 104.03125 C 443.3125 95.582031 445.65625 86.105469 445.65625 76.484375 C 445.65625 63.757812 441.679688 51.636719 434.160156 41.433594 C 427.894531 32.933594 419.65625 26.386719 410.113281 22.285156 C 407.386719 21.113281 404.25 22.582031 403.339844 25.414062 C 402.539062 27.910156 403.757812 30.609375 406.15625 31.640625 C 414.039062 35.039062 420.847656 40.453125 426.027344 47.484375 C 432.25 55.921875 435.539062 65.949219 435.539062 76.484375 C 435.539062 84.402344 433.621094 92.195312 429.984375 99.152344 L 426.621094 97.304688 C 425.589844 96.738281 424.375 97.648438 424.621094 98.800781 L 427.5 112.171875 C 427.675781 112.988281 428.535156 113.460938 429.316406 113.167969 L 442.078125 108.394531 C 443.175781 107.980469 443.285156 106.460938 442.253906 105.894531 " fill-opacity="1" fill-rule="nonzero"/></g><g clip-path="url(#id2)"><path fill="#6dcb83" d="M 334.730469 87.761719 C 337.277344 87.214844 339 84.8125 338.695312 82.214844 C 338.472656 80.3125 338.363281 78.398438 338.363281 76.484375 C 338.363281 63.449219 343.417969 51.195312 352.59375 41.976562 C 361.0625 33.46875 372.113281 28.492188 383.96875 27.773438 L 383.964844 31.503906 C 383.964844 32.683594 385.34375 33.316406 386.230469 32.542969 L 396.53125 23.601562 C 397.164062 23.054688 397.164062 22.070312 396.535156 21.519531 L 386.246094 12.5625 C 385.359375 11.789062 383.976562 12.421875 383.976562 13.597656 L 383.976562 17.59375 C 369.410156 18.316406 355.824219 24.359375 345.4375 34.789062 C 334.351562 45.925781 328.242188 60.734375 328.242188 76.484375 C 328.242188 78.78125 328.378906 81.082031 328.640625 83.363281 C 328.988281 86.347656 331.804688 88.390625 334.730469 87.761719 " fill-opacity="1" fill-rule="nonzero"/></g><g clip-path="url(#id3)"><path fill="#6dcb83" d="M 416.023438 115.589844 C 407.660156 121.875 397.496094 125.289062 386.949219 125.289062 C 378.269531 125.289062 369.75 122.964844 362.320312 118.5625 C 355.828125 114.722656 350.300781 109.394531 346.203125 103.0625 L 349.585938 101.078125 C 350.601562 100.484375 350.449219 98.964844 349.339844 98.585938 L 336.453125 94.171875 C 335.660156 93.902344 334.816406 94.398438 334.664062 95.222656 L 332.160156 108.667969 C 331.945312 109.824219 333.183594 110.703125 334.199219 110.109375 L 337.453125 108.199219 C 342.429688 116.019531 349.207031 122.597656 357.179688 127.320312 C 366.167969 132.640625 376.464844 135.453125 386.949219 135.453125 C 399.671875 135.453125 411.933594 131.339844 422.03125 123.769531 C 424.429688 121.972656 424.785156 118.5 422.777344 116.269531 C 421.035156 114.335938 418.105469 114.027344 416.023438 115.589844 " fill-opacity="1" fill-rule="nonzero"/></g><g clip-path="url(#id4)"><path fill="#c9e265" d="M 370.710938 95.851562 C 367.410156 95.851562 364.722656 98.554688 364.722656 101.878906 C 364.722656 105.203125 367.410156 107.90625 370.710938 107.90625 C 374.011719 107.90625 376.699219 105.203125 376.699219 101.878906 C 376.699219 98.554688 374.011719 95.851562 370.710938 95.851562 Z M 370.710938 95.851562 " fill-opacity="1" fill-rule="nonzero"/></g><g clip-path="url(#id5)"><path fill="#c9e265" d="M 404.238281 95.851562 C 400.933594 95.851562 398.25 98.554688 398.25 101.878906 C 398.25 105.203125 400.933594 107.90625 404.238281 107.90625 C 407.539062 107.90625 410.222656 105.203125 410.222656 101.878906 C 410.222656 98.554688 407.539062 95.851562 404.238281 95.851562 Z M 404.238281 95.851562 " fill-opacity="1" fill-rule="nonzero"/></g><g clip-path="url(#id6)"><path fill="#c9e265" d="M 411.421875 69.335938 L 364.722656 69.335938 L 364.722656 60.898438 C 364.722656 60.234375 364.1875 59.695312 363.527344 59.695312 L 358.738281 59.695312 C 358.078125 59.695312 357.539062 60.234375 357.539062 60.898438 C 357.539062 61.566406 358.078125 62.105469 358.738281 62.105469 L 362.328125 62.105469 L 362.328125 70.542969 C 362.328125 84.5 373.609375 95.851562 387.472656 95.851562 C 401.335938 95.851562 412.617188 84.5 412.617188 70.542969 C 412.617188 69.878906 412.082031 69.335938 411.421875 69.335938 Z M 411.421875 69.335938 " fill-opacity="1" fill-rule="nonzero"/></g><g clip-path="url(#id7)"><path fill="#c9e265" d="M 397.050781 64.515625 L 411.421875 64.515625 C 412.082031 64.515625 412.617188 63.976562 412.617188 63.3125 C 412.617188 54.671875 405.636719 47.640625 397.050781 47.640625 C 396.390625 47.640625 395.855469 48.183594 395.855469 48.847656 L 395.855469 63.3125 C 395.855469 63.976562 396.390625 64.515625 397.050781 64.515625 Z M 397.050781 64.515625 " fill-opacity="1" fill-rule="nonzero"/></g></svg>