<svg xmlns="http://www.w3.org/2000/svg" xmlns:xlink="http://www.w3.org/1999/xlink" width="600" zoomAndPan="magnify" viewBox="0 0 450 149.999998" height="200" preserveAspectRatio="xMidYMid meet" version="1.0"><defs><g/><clipPath id="id1"><path d="M 376 31 L 412.140625 31 L 412.140625 109 L 376 109 Z M 376 31 " clip-rule="nonzero"/></clipPath><clipPath id="id2"><path d="M 313.09375 23 L 372 23 L 372 87 L 313.09375 87 Z M 313.09375 23 " clip-rule="nonzero"/></clipPath><clipPath id="id3"><path d="M 316 92 L 394 92 L 394 127.050781 L 316 127.050781 Z M 316 92 " clip-rule="nonzero"/></clipPath><clipPath id="id4"><path d="M 343 93 L 354 93 L 354 103.816406 L 343 103.816406 Z M 343 93 " clip-rule="nonzero"/></clipPath><clipPath id="id5"><path d="M 372 93 L 383 93 L 383 103.816406 L 372 103.816406 Z M 372 93 " clip-rule="nonzero"/></clipPath><clipPath id="id6"><path d="M 337.804688 63 L 384.261719 63 L 384.261719 94 L 337.804688 94 Z M 337.804688 63 " clip-rule="nonzero"/></clipPath><clipPath id="id7"><path d="M 370 52.980469 L 384.261719 52.980469 L 384.261719 68 L 370 68 Z M 370 52.980469 " clip-rule="nonzero"/></clipPath></defs><g fill="#6dcb83" fill-opacity="1"><g transform="translate(35.646088, 117.329871)"><g><path d="M 60.683594 -81.992188 L 53.757812 -81.667969 C 52.679688 -81.667969 51.597656 -81.234375 50.945312 -80.367188 C 50.296875 -79.71875 49.867188 -78.746094 49.972656 -77.882812 C 50.082031 -75.933594 51.488281 -74.3125 53.328125 -74.09375 C 52.785156 -56.03125 51.8125 -37.859375 50.296875 -20.011719 C 50.296875 -19.6875 50.296875 -19.253906 50.296875 -18.929688 C 47.484375 -25.3125 44.78125 -31.800781 42.1875 -38.183594 C 39.914062 -43.59375 37.640625 -49.214844 35.261719 -54.625 C 34.613281 -56.140625 32.773438 -56.898438 31.367188 -56.679688 C 29.960938 -56.464844 28.988281 -55.597656 28.339844 -54.085938 C 24.335938 -44.457031 20.550781 -34.289062 16.765625 -22.933594 C 15.792969 -35.371094 15.035156 -47.917969 14.496094 -60.035156 C 14.277344 -64.578125 14.171875 -69.335938 13.953125 -74.09375 C 14.820312 -74.203125 15.578125 -74.636719 16.226562 -75.175781 C 16.980469 -75.933594 17.414062 -77.015625 17.308594 -77.988281 C 17.199219 -80.042969 15.683594 -81.667969 13.519531 -81.667969 L 6.597656 -81.992188 C 5.515625 -81.992188 4.542969 -81.558594 3.785156 -80.800781 C 3.027344 -80.042969 2.703125 -79.070312 2.703125 -78.097656 C 2.8125 -76.042969 4.328125 -74.417969 6.382812 -74.3125 C 6.921875 -56.140625 7.894531 -37.75 9.300781 -19.792969 C 9.734375 -14.496094 10.277344 -9.085938 10.707031 -3.785156 C 10.925781 -1.621094 12.546875 -0.109375 14.496094 -0.109375 C 16.226562 -0.109375 17.847656 -1.40625 18.28125 -3.027344 C 18.28125 -3.136719 18.386719 -3.246094 18.386719 -3.351562 C 22.933594 -18.171875 27.476562 -31.152344 32.019531 -42.941406 C 33.207031 -40.238281 34.289062 -37.425781 35.371094 -34.722656 C 39.699219 -24.335938 44.242188 -13.519531 49 -3.027344 C 49.324219 -1.40625 50.945312 -0.109375 52.785156 -0.109375 C 54.734375 -0.109375 56.355469 -1.621094 56.570312 -3.785156 C 58.300781 -22.390625 59.601562 -41.320312 60.359375 -59.925781 C 60.574219 -64.578125 60.789062 -69.445312 60.898438 -74.3125 C 61.980469 -74.417969 62.953125 -74.851562 63.601562 -75.609375 C 64.253906 -76.367188 64.578125 -77.230469 64.578125 -78.207031 C 64.46875 -80.367188 62.738281 -81.992188 60.683594 -81.992188 Z M 60.683594 -81.992188 "/></g></g></g><g fill="#6dcb83" fill-opacity="1"><g transform="translate(103.140265, 117.329871)"><g><path d="M 30.71875 -22.824219 C 30.503906 -24.011719 29.855469 -24.988281 28.988281 -25.527344 C 27.257812 -26.5 25.09375 -25.960938 23.796875 -24.230469 C 22.605469 -22.714844 20.550781 -21.851562 18.28125 -22.066406 C 16.007812 -22.28125 14.0625 -23.472656 13.195312 -25.203125 C 12.113281 -27.582031 11.789062 -30.71875 11.574219 -32.992188 L 24.230469 -33.425781 C 25.417969 -33.425781 26.71875 -33.425781 27.90625 -34.289062 C 29.207031 -35.046875 30.070312 -36.5625 30.179688 -38.292969 C 30.179688 -39.914062 30.179688 -41.429688 30.070312 -43.050781 C 29.960938 -43.484375 29.960938 -44.023438 29.960938 -44.566406 C 29.855469 -48.136719 29.636719 -52.570312 26.71875 -55.816406 C 24.769531 -58.085938 21.527344 -59.277344 18.28125 -59.167969 C 15.035156 -59.058594 11.789062 -57.546875 9.628906 -55.273438 C 7.464844 -53.003906 5.839844 -49.648438 4.867188 -45.429688 C 4.003906 -41.859375 3.675781 -37.96875 3.894531 -33.855469 C 4.109375 -30.289062 4.542969 -26.070312 6.164062 -22.5 C 8.003906 -18.0625 12.332031 -15.035156 17.523438 -14.496094 C 18.0625 -14.496094 18.496094 -14.496094 18.929688 -14.496094 C 23.257812 -14.496094 27.582031 -16.550781 30.179688 -20.121094 C 30.828125 -20.875 30.9375 -21.851562 30.71875 -22.824219 Z M 11.789062 -41.210938 C 12.113281 -44.023438 12.871094 -46.511719 14.0625 -48.566406 C 14.925781 -50.082031 15.902344 -50.945312 17.199219 -51.378906 C 18.0625 -51.597656 18.171875 -51.597656 19.039062 -51.597656 C 19.578125 -51.597656 20.121094 -51.378906 20.550781 -51.164062 C 20.660156 -51.054688 20.769531 -50.945312 20.984375 -50.839844 L 21.09375 -50.730469 C 21.199219 -50.621094 21.199219 -50.621094 21.308594 -50.621094 C 21.308594 -50.515625 21.308594 -50.515625 21.417969 -50.40625 C 21.851562 -49.648438 22.066406 -48.566406 22.175781 -47.484375 C 22.390625 -45.753906 22.390625 -44.023438 22.390625 -42.292969 L 22.5 -40.996094 L 11.683594 -40.5625 C 11.683594 -40.78125 11.683594 -40.996094 11.789062 -41.210938 Z M 11.789062 -41.210938 "/></g></g></g><g fill="#6dcb83" fill-opacity="1"><g transform="translate(137.752663, 117.329871)"><g><path d="M 30.71875 -22.824219 C 30.503906 -24.011719 29.855469 -24.988281 28.988281 -25.527344 C 27.257812 -26.5 25.09375 -25.960938 23.796875 -24.230469 C 22.605469 -22.714844 20.550781 -21.851562 18.28125 -22.066406 C 16.007812 -22.28125 14.0625 -23.472656 13.195312 -25.203125 C 12.113281 -27.582031 11.789062 -30.71875 11.574219 -32.992188 L 24.230469 -33.425781 C 25.417969 -33.425781 26.71875 -33.425781 27.90625 -34.289062 C 29.207031 -35.046875 30.070312 -36.5625 30.179688 -38.292969 C 30.179688 -39.914062 30.179688 -41.429688 30.070312 -43.050781 C 29.960938 -43.484375 29.960938 -44.023438 29.960938 -44.566406 C 29.855469 -48.136719 29.636719 -52.570312 26.71875 -55.816406 C 24.769531 -58.085938 21.527344 -59.277344 18.28125 -59.167969 C 15.035156 -59.058594 11.789062 -57.546875 9.628906 -55.273438 C 7.464844 -53.003906 5.839844 -49.648438 4.867188 -45.429688 C 4.003906 -41.859375 3.675781 -37.96875 3.894531 -33.855469 C 4.109375 -30.289062 4.542969 -26.070312 6.164062 -22.5 C 8.003906 -18.0625 12.332031 -15.035156 17.523438 -14.496094 C 18.0625 -14.496094 18.496094 -14.496094 18.929688 -14.496094 C 23.257812 -14.496094 27.582031 -16.550781 30.179688 -20.121094 C 30.828125 -20.875 30.9375 -21.851562 30.71875 -22.824219 Z M 11.789062 -41.210938 C 12.113281 -44.023438 12.871094 -46.511719 14.0625 -48.566406 C 14.925781 -50.082031 15.902344 -50.945312 17.199219 -51.378906 C 18.0625 -51.597656 18.171875 -51.597656 19.039062 -51.597656 C 19.578125 -51.597656 20.121094 -51.378906 20.550781 -51.164062 C 20.660156 -51.054688 20.769531 -50.945312 20.984375 -50.839844 L 21.09375 -50.730469 C 21.199219 -50.621094 21.199219 -50.621094 21.308594 -50.621094 C 21.308594 -50.515625 21.308594 -50.515625 21.417969 -50.40625 C 21.851562 -49.648438 22.066406 -48.566406 22.175781 -47.484375 C 22.390625 -45.753906 22.390625 -44.023438 22.390625 -42.292969 L 22.5 -40.996094 L 11.683594 -40.5625 C 11.683594 -40.78125 11.683594 -40.996094 11.789062 -41.210938 Z M 11.789062 -41.210938 "/></g></g></g><g fill="#6dcb83" fill-opacity="1"><g transform="translate(172.365061, 117.329871)"><g><path d="M 6.816406 -75.71875 C 6.488281 -64.792969 6.164062 -52.570312 6.488281 -40.671875 C 6.597656 -35.15625 6.816406 -28.664062 7.464844 -22.175781 C 8.003906 -16.875 9.085938 -10.816406 13.089844 -5.949219 C 15.902344 -2.488281 20.011719 -0.539062 24.121094 -0.539062 C 25.203125 -0.539062 26.285156 -0.648438 27.257812 -0.867188 C 31.691406 -2.054688 35.695312 -5.625 38.074219 -10.492188 C 40.023438 -14.601562 40.453125 -19.253906 40.886719 -23.796875 C 40.886719 -24.335938 40.996094 -24.988281 40.996094 -25.636719 C 41.429688 -30.394531 41.753906 -35.480469 41.859375 -40.886719 C 42.1875 -49.433594 41.96875 -58.195312 41.859375 -66.632812 C 41.859375 -69.445312 41.753906 -72.363281 41.753906 -75.285156 C 42.511719 -75.394531 43.375 -75.824219 43.917969 -76.367188 C 44.671875 -77.125 44.996094 -78.097656 44.996094 -79.070312 C 44.890625 -81.125 43.160156 -82.75 41.105469 -82.75 L 34.179688 -82.75 C 33.097656 -82.75 32.125 -82.316406 31.367188 -81.558594 C 30.613281 -80.800781 30.289062 -79.9375 30.289062 -78.960938 C 30.394531 -76.800781 32.125 -75.175781 34.179688 -75.175781 C 34.179688 -72.148438 34.179688 -69.226562 34.289062 -66.199219 C 34.503906 -50.296875 34.832031 -33.964844 32.558594 -18.0625 C 32.019531 -14.496094 30.289062 -11.359375 27.691406 -9.410156 C 25.203125 -7.570312 22.175781 -7.679688 19.792969 -9.84375 C 16.550781 -12.871094 15.578125 -17.738281 15.144531 -21.527344 C 14.496094 -27.367188 14.277344 -33.097656 14.171875 -38.617188 C 13.738281 -51.273438 14.171875 -64.253906 14.496094 -75.824219 C 15.035156 -76.042969 15.578125 -76.367188 16.117188 -76.90625 C 16.765625 -77.664062 17.199219 -78.53125 17.089844 -79.503906 C 16.980469 -81.667969 15.359375 -83.289062 13.304688 -83.289062 L 7.246094 -83.289062 C 6.164062 -83.289062 5.191406 -82.855469 4.433594 -82.101562 C 3.785156 -81.34375 3.351562 -80.367188 3.460938 -79.394531 C 3.570312 -77.449219 4.976562 -75.933594 6.816406 -75.71875 Z M 6.816406 -75.71875 "/></g></g></g><g fill="#6dcb83" fill-opacity="1"><g transform="translate(220.930587, 117.329871)"><g><path d="M 31.367188 -56.246094 C 30.828125 -57.113281 29.960938 -57.761719 29.097656 -57.976562 C 28.339844 -58.085938 27.691406 -58.085938 27.042969 -57.871094 C 24.011719 -61.546875 18.28125 -62.195312 14.277344 -60.574219 C 8.546875 -58.300781 5.191406 -52.460938 5.949219 -45.972656 C 6.597656 -40.5625 9.410156 -35.804688 14.386719 -31.476562 L 15.144531 -30.828125 C 18.714844 -27.691406 21.851562 -24.664062 20.335938 -21.308594 C 19.792969 -20.011719 18.0625 -18.820312 16.441406 -18.714844 C 15.578125 -18.714844 14.277344 -19.363281 13.84375 -19.792969 C 14.0625 -20.011719 14.277344 -20.226562 14.496094 -20.550781 C 15.035156 -21.417969 15.144531 -22.605469 14.820312 -23.582031 C 14.496094 -24.554688 13.953125 -25.417969 13.089844 -25.851562 C 12.113281 -26.285156 11.140625 -26.394531 10.167969 -26.175781 C 7.894531 -25.527344 5.734375 -24.230469 4.109375 -22.605469 C 3.351562 -21.957031 3.027344 -20.875 3.027344 -19.902344 C 3.027344 -18.929688 3.460938 -17.847656 4.109375 -17.199219 C 4.976562 -16.441406 5.949219 -16.117188 6.816406 -16.117188 C 7.03125 -16.117188 7.140625 -16.117188 7.355469 -16.226562 C 9.085938 -13.195312 12.65625 -11.25 16.441406 -11.25 C 17.199219 -11.25 17.847656 -11.25 18.496094 -11.359375 C 24.769531 -12.546875 28.988281 -18.386719 28.125 -24.769531 C 27.367188 -30.070312 23.6875 -33.316406 20.226562 -36.453125 C 19.46875 -37.101562 18.820312 -37.640625 18.0625 -38.292969 C 15.144531 -41.105469 12.332031 -45.863281 13.84375 -50.296875 C 14.496094 -52.136719 16.117188 -53.542969 18.0625 -53.867188 C 19.039062 -53.976562 20.121094 -53.757812 20.769531 -53.328125 C 20.121094 -52.570312 19.792969 -51.597656 19.792969 -50.621094 C 19.792969 -49.648438 20.226562 -48.566406 20.984375 -47.917969 C 21.742188 -47.160156 22.714844 -46.835938 23.6875 -46.835938 C 24.664062 -46.945312 25.527344 -47.269531 26.285156 -47.917969 C 26.824219 -48.566406 27.476562 -49.109375 28.125 -49.542969 C 28.773438 -50.082031 29.421875 -50.515625 30.070312 -51.054688 C 30.9375 -51.597656 31.585938 -52.351562 31.800781 -53.21875 C 32.019531 -54.191406 31.910156 -55.382812 31.367188 -56.246094 Z M 31.367188 -56.246094 "/></g></g></g><g fill="#6dcb83" fill-opacity="1"><g transform="translate(254.677675, 117.329871)"><g><path d="M 30.71875 -22.824219 C 30.503906 -24.011719 29.855469 -24.988281 28.988281 -25.527344 C 27.257812 -26.5 25.09375 -25.960938 23.796875 -24.230469 C 22.605469 -22.714844 20.550781 -21.851562 18.28125 -22.066406 C 16.007812 -22.28125 14.0625 -23.472656 13.195312 -25.203125 C 12.113281 -27.582031 11.789062 -30.71875 11.574219 -32.992188 L 24.230469 -33.425781 C 25.417969 -33.425781 26.71875 -33.425781 27.90625 -34.289062 C 29.207031 -35.046875 30.070312 -36.5625 30.179688 -38.292969 C 30.179688 -39.914062 30.179688 -41.429688 30.070312 -43.050781 C 29.960938 -43.484375 29.960938 -44.023438 29.960938 -44.566406 C 29.855469 -48.136719 29.636719 -52.570312 26.71875 -55.816406 C 24.769531 -58.085938 21.527344 -59.277344 18.28125 -59.167969 C 15.035156 -59.058594 11.789062 -57.546875 9.628906 -55.273438 C 7.464844 -53.003906 5.839844 -49.648438 4.867188 -45.429688 C 4.003906 -41.859375 3.675781 -37.96875 3.894531 -33.855469 C 4.109375 -30.289062 4.542969 -26.070312 6.164062 -22.5 C 8.003906 -18.0625 12.332031 -15.035156 17.523438 -14.496094 C 18.0625 -14.496094 18.496094 -14.496094 18.929688 -14.496094 C 23.257812 -14.496094 27.582031 -16.550781 30.179688 -20.121094 C 30.828125 -20.875 30.9375 -21.851562 30.71875 -22.824219 Z M 11.789062 -41.210938 C 12.113281 -44.023438 12.871094 -46.511719 14.0625 -48.566406 C 14.925781 -50.082031 15.902344 -50.945312 17.199219 -51.378906 C 18.0625 -51.597656 18.171875 -51.597656 19.039062 -51.597656 C 19.578125 -51.597656 20.121094 -51.378906 20.550781 -51.164062 C 20.660156 -51.054688 20.769531 -50.945312 20.984375 -50.839844 L 21.09375 -50.730469 C 21.199219 -50.621094 21.199219 -50.621094 21.308594 -50.621094 C 21.308594 -50.515625 21.308594 -50.515625 21.417969 -50.40625 C 21.851562 -49.648438 22.066406 -48.566406 22.175781 -47.484375 C 22.390625 -45.753906 22.390625 -44.023438 22.390625 -42.292969 L 22.5 -40.996094 L 11.683594 -40.5625 C 11.683594 -40.78125 11.683594 -40.996094 11.789062 -41.210938 Z M 11.789062 -41.210938 "/></g></g></g><g clip-path="url(#id1)"><path fill="#6dcb83" d="M 409.261719 102.117188 L 406.398438 100.546875 C 410.152344 93.417969 412.128906 85.425781 412.128906 77.3125 C 412.128906 66.578125 408.773438 56.351562 402.433594 47.75 C 397.148438 40.578125 390.199219 35.058594 382.152344 31.597656 C 379.851562 30.609375 377.203125 31.847656 376.4375 34.238281 C 375.761719 36.339844 376.789062 38.617188 378.8125 39.488281 C 385.460938 42.355469 391.203125 46.917969 395.574219 52.851562 C 400.820312 59.96875 403.59375 68.425781 403.59375 77.3125 C 403.59375 83.988281 401.976562 90.5625 398.910156 96.433594 L 396.070312 94.871094 C 395.203125 94.394531 394.175781 95.164062 394.386719 96.136719 L 396.8125 107.410156 C 396.960938 108.101562 397.6875 108.5 398.347656 108.253906 L 409.109375 104.226562 C 410.035156 103.878906 410.128906 102.597656 409.261719 102.117188 " fill-opacity="1" fill-rule="nonzero"/></g><g clip-path="url(#id2)"><path fill="#6dcb83" d="M 318.566406 86.824219 C 320.714844 86.359375 322.167969 84.335938 321.910156 82.144531 C 321.726562 80.542969 321.628906 78.925781 321.628906 77.3125 C 321.628906 66.316406 325.894531 55.980469 333.632812 48.207031 C 340.777344 41.027344 350.097656 36.832031 360.097656 36.226562 L 360.09375 39.371094 C 360.09375 40.367188 361.257812 40.902344 362.003906 40.25 L 370.695312 32.707031 C 371.226562 32.246094 371.226562 31.414062 370.695312 30.953125 L 362.019531 23.394531 C 361.269531 22.742188 360.105469 23.277344 360.105469 24.269531 L 360.101562 27.636719 C 347.820312 28.25 336.355469 33.34375 327.597656 42.144531 C 318.246094 51.535156 313.09375 64.027344 313.09375 77.3125 C 313.09375 79.25 313.207031 81.1875 313.433594 83.113281 C 313.722656 85.628906 316.101562 87.351562 318.566406 86.824219 " fill-opacity="1" fill-rule="nonzero"/></g><g clip-path="url(#id3)"><path fill="#6dcb83" d="M 387.132812 110.296875 C 380.078125 115.59375 371.503906 118.476562 362.613281 118.476562 C 355.289062 118.476562 348.105469 116.515625 341.835938 112.804688 C 336.363281 109.5625 331.703125 105.066406 328.242188 99.730469 L 331.097656 98.054688 C 331.953125 97.554688 331.828125 96.273438 330.890625 95.953125 L 320.019531 92.230469 C 319.351562 92.003906 318.640625 92.421875 318.507812 93.117188 L 316.398438 104.457031 C 316.21875 105.433594 317.261719 106.171875 318.117188 105.671875 L 320.863281 104.0625 C 325.0625 110.65625 330.777344 116.207031 337.503906 120.1875 C 345.085938 124.675781 353.765625 127.050781 362.613281 127.050781 C 373.339844 127.050781 383.683594 123.578125 392.199219 117.195312 C 394.226562 115.675781 394.527344 112.75 392.832031 110.867188 C 391.359375 109.234375 388.890625 108.976562 387.132812 110.296875 " fill-opacity="1" fill-rule="nonzero"/></g><g clip-path="url(#id4)"><path fill="#c9e265" d="M 348.914062 93.648438 C 346.128906 93.648438 343.867188 95.929688 343.867188 98.730469 C 343.867188 101.535156 346.128906 103.8125 348.914062 103.8125 C 351.699219 103.8125 353.964844 101.535156 353.964844 98.730469 C 353.964844 95.929688 351.699219 93.648438 348.914062 93.648438 Z M 348.914062 93.648438 " fill-opacity="1" fill-rule="nonzero"/></g><g clip-path="url(#id5)"><path fill="#c9e265" d="M 377.191406 93.648438 C 374.40625 93.648438 372.144531 95.929688 372.144531 98.730469 C 372.144531 101.535156 374.40625 103.8125 377.191406 103.8125 C 379.976562 103.8125 382.242188 101.535156 382.242188 98.730469 C 382.242188 95.929688 379.976562 93.648438 377.191406 93.648438 Z M 377.191406 93.648438 " fill-opacity="1" fill-rule="nonzero"/></g><g clip-path="url(#id6)"><path fill="#c9e265" d="M 383.25 71.28125 L 343.867188 71.28125 L 343.867188 64.167969 C 343.867188 63.605469 343.414062 63.148438 342.855469 63.148438 L 338.816406 63.148438 C 338.257812 63.148438 337.804688 63.605469 337.804688 64.167969 C 337.804688 64.726562 338.257812 65.183594 338.816406 65.183594 L 341.847656 65.183594 L 341.847656 72.300781 C 341.847656 84.070312 351.359375 93.648438 363.054688 93.648438 C 374.746094 93.648438 384.261719 84.070312 384.261719 72.300781 C 384.261719 71.738281 383.808594 71.28125 383.25 71.28125 Z M 383.25 71.28125 " fill-opacity="1" fill-rule="nonzero"/></g><g clip-path="url(#id7)"><path fill="#c9e265" d="M 371.132812 67.214844 L 383.25 67.214844 C 383.808594 67.214844 384.261719 66.761719 384.261719 66.199219 C 384.261719 58.914062 378.371094 52.984375 371.132812 52.984375 C 370.574219 52.984375 370.121094 53.441406 370.121094 54 L 370.121094 66.199219 C 370.121094 66.761719 370.574219 67.214844 371.132812 67.214844 Z M 371.132812 67.214844 " fill-opacity="1" fill-rule="nonzero"/></g></svg>