<svg xmlns="http://www.w3.org/2000/svg" xmlns:xlink="http://www.w3.org/1999/xlink" width="1600" zoomAndPan="magnify" viewBox="0 0 1200 749.999995" height="1000" preserveAspectRatio="xMidYMid meet" version="1.0"><defs><clipPath id="id1"><path d="M 911 429 L 1140 429 L 1140 504 L 911 504 Z M 911 429 " clip-rule="nonzero"/></clipPath><clipPath id="id2"><path d="M 835.527344 669.859375 L 912.527344 392.34375 L 1203.050781 472.949219 L 1126.050781 750.464844 Z M 835.527344 669.859375 " clip-rule="nonzero"/></clipPath><clipPath id="id3"><path d="M 835.527344 669.859375 L 912.527344 392.34375 L 1203.050781 472.949219 L 1126.050781 750.464844 Z M 835.527344 669.859375 " clip-rule="nonzero"/></clipPath><clipPath id="id4"><path d="M 873 514 L 1019 514 L 1019 716 L 873 716 Z M 873 514 " clip-rule="nonzero"/></clipPath><clipPath id="id5"><path d="M 835.527344 669.859375 L 912.527344 392.34375 L 1203.050781 472.949219 L 1126.050781 750.464844 Z M 835.527344 669.859375 " clip-rule="nonzero"/></clipPath><clipPath id="id6"><path d="M 835.527344 669.859375 L 912.527344 392.34375 L 1203.050781 472.949219 L 1126.050781 750.464844 Z M 835.527344 669.859375 " clip-rule="nonzero"/></clipPath><clipPath id="id7"><path d="M 1033 513 L 1170 513 L 1170 725 L 1033 725 Z M 1033 513 " clip-rule="nonzero"/></clipPath><clipPath id="id8"><path d="M 835.527344 669.859375 L 912.527344 392.34375 L 1203.050781 472.949219 L 1126.050781 750.464844 Z M 835.527344 669.859375 " clip-rule="nonzero"/></clipPath><clipPath id="id9"><path d="M 835.527344 669.859375 L 912.527344 392.34375 L 1203.050781 472.949219 L 1126.050781 750.464844 Z M 835.527344 669.859375 " clip-rule="nonzero"/></clipPath><clipPath id="id10"><path d="M 962 164 L 1081 164 L 1081 289 L 962 289 Z M 962 164 " clip-rule="nonzero"/></clipPath><clipPath id="id11"><path d="M 839.878906 206.574219 L 1017.25 123.757812 L 1104.191406 309.960938 L 926.820312 392.777344 Z M 839.878906 206.574219 " clip-rule="nonzero"/></clipPath><clipPath id="id12"><path d="M 839.878906 206.574219 L 1017.25 123.757812 L 1104.191406 309.960938 L 926.820312 392.777344 Z M 839.878906 206.574219 " clip-rule="nonzero"/></clipPath><clipPath id="id13"><path d="M 876 166 L 952 166 L 952 319 L 876 319 Z M 876 166 " clip-rule="nonzero"/></clipPath><clipPath id="id14"><path d="M 839.878906 206.574219 L 1017.25 123.757812 L 1104.191406 309.960938 L 926.820312 392.777344 Z M 839.878906 206.574219 " clip-rule="nonzero"/></clipPath><clipPath id="id15"><path d="M 839.878906 206.574219 L 1017.25 123.757812 L 1104.191406 309.960938 L 926.820312 392.777344 Z M 839.878906 206.574219 " clip-rule="nonzero"/></clipPath><clipPath id="id16"><path d="M 908 296 L 1062 296 L 1062 361 L 908 361 Z M 908 296 " clip-rule="nonzero"/></clipPath><clipPath id="id17"><path d="M 839.878906 206.574219 L 1017.25 123.757812 L 1104.191406 309.960938 L 926.820312 392.777344 Z M 839.878906 206.574219 " clip-rule="nonzero"/></clipPath><clipPath id="id18"><path d="M 839.878906 206.574219 L 1017.25 123.757812 L 1104.191406 309.960938 L 926.820312 392.777344 Z M 839.878906 206.574219 " clip-rule="nonzero"/></clipPath><clipPath id="id19"><path d="M 928 211 L 1031 211 L 1031 323 L 928 323 Z M 928 211 " clip-rule="nonzero"/></clipPath><clipPath id="id20"><path d="M 928.925781 209.078125 L 1031.542969 214.300781 L 1025.902344 325.15625 L 923.285156 319.933594 Z M 928.925781 209.078125 " clip-rule="nonzero"/></clipPath><clipPath id="id21"><path d="M 928.925781 209.078125 L 1031.542969 214.300781 L 1025.902344 325.15625 L 923.285156 319.933594 Z M 928.925781 209.078125 " clip-rule="nonzero"/></clipPath><clipPath id="id22"><path d="M 964 252 L 992 252 L 992 275 L 964 275 Z M 964 252 " clip-rule="nonzero"/></clipPath><clipPath id="id23"><path d="M 928.925781 209.078125 L 1031.542969 214.300781 L 1025.902344 325.15625 L 923.285156 319.933594 Z M 928.925781 209.078125 " clip-rule="nonzero"/></clipPath><clipPath id="id24"><path d="M 928.925781 209.078125 L 1031.542969 214.300781 L 1025.902344 325.15625 L 923.285156 319.933594 Z M 928.925781 209.078125 " clip-rule="nonzero"/></clipPath><clipPath id="id25"><path d="M 744 351 L 840 351 L 840 520 L 744 520 Z M 744 351 " clip-rule="nonzero"/></clipPath><clipPath id="id26"><path d="M 599.902344 351.824219 L 821.652344 323.898438 L 850.984375 556.808594 L 629.234375 584.734375 Z M 599.902344 351.824219 " clip-rule="nonzero"/></clipPath><clipPath id="id27"><path d="M 599.902344 351.824219 L 821.652344 323.898438 L 850.984375 556.808594 L 629.234375 584.734375 Z M 599.902344 351.824219 " clip-rule="nonzero"/></clipPath><clipPath id="id28"><path d="M 614 339 L 733 339 L 733 494 L 614 494 Z M 614 339 " clip-rule="nonzero"/></clipPath><clipPath id="id29"><path d="M 599.902344 351.824219 L 821.652344 323.898438 L 850.984375 556.808594 L 629.234375 584.734375 Z M 599.902344 351.824219 " clip-rule="nonzero"/></clipPath><clipPath id="id30"><path d="M 599.902344 351.824219 L 821.652344 323.898438 L 850.984375 556.808594 L 629.234375 584.734375 Z M 599.902344 351.824219 " clip-rule="nonzero"/></clipPath><clipPath id="id31"><path d="M 630 504 L 807 504 L 807 572 L 630 572 Z M 630 504 " clip-rule="nonzero"/></clipPath><clipPath id="id32"><path d="M 599.902344 351.824219 L 821.652344 323.898438 L 850.984375 556.808594 L 629.234375 584.734375 Z M 599.902344 351.824219 " clip-rule="nonzero"/></clipPath><clipPath id="id33"><path d="M 599.902344 351.824219 L 821.652344 323.898438 L 850.984375 556.808594 L 629.234375 584.734375 Z M 599.902344 351.824219 " clip-rule="nonzero"/></clipPath><clipPath id="id34"><path d="M 696 436 L 723 436 L 723 443 L 696 443 Z M 696 436 " clip-rule="nonzero"/></clipPath><clipPath id="id35"><path d="M 657.792969 405.421875 L 773.875 390.800781 L 788.777344 509.117188 L 672.695312 523.738281 Z M 657.792969 405.421875 " clip-rule="nonzero"/></clipPath><clipPath id="id36"><path d="M 657.792969 405.421875 L 773.875 390.800781 L 788.777344 509.117188 L 672.695312 523.738281 Z M 657.792969 405.421875 " clip-rule="nonzero"/></clipPath><clipPath id="id37"><path d="M 682 440 L 692 440 L 692 445 L 682 445 Z M 682 440 " clip-rule="nonzero"/></clipPath><clipPath id="id38"><path d="M 657.792969 405.421875 L 773.875 390.800781 L 788.777344 509.117188 L 672.695312 523.738281 Z M 657.792969 405.421875 " clip-rule="nonzero"/></clipPath><clipPath id="id39"><path d="M 657.792969 405.421875 L 773.875 390.800781 L 788.777344 509.117188 L 672.695312 523.738281 Z M 657.792969 405.421875 " clip-rule="nonzero"/></clipPath><clipPath id="id40"><path d="M 719 433 L 730 433 L 730 443 L 719 443 Z M 719 433 " clip-rule="nonzero"/></clipPath><clipPath id="id41"><path d="M 657.792969 405.421875 L 773.875 390.800781 L 788.777344 509.117188 L 672.695312 523.738281 Z M 657.792969 405.421875 " clip-rule="nonzero"/></clipPath><clipPath id="id42"><path d="M 657.792969 405.421875 L 773.875 390.800781 L 788.777344 509.117188 L 672.695312 523.738281 Z M 657.792969 405.421875 " clip-rule="nonzero"/></clipPath><clipPath id="id43"><path d="M 721 398 L 726 398 L 726 436 L 721 436 Z M 721 398 " clip-rule="nonzero"/></clipPath><clipPath id="id44"><path d="M 657.792969 405.421875 L 773.875 390.800781 L 788.777344 509.117188 L 672.695312 523.738281 Z M 657.792969 405.421875 " clip-rule="nonzero"/></clipPath><clipPath id="id45"><path d="M 657.792969 405.421875 L 773.875 390.800781 L 788.777344 509.117188 L 672.695312 523.738281 Z M 657.792969 405.421875 " clip-rule="nonzero"/></clipPath><clipPath id="id46"><path d="M 721 397 L 776 397 L 776 439 L 721 439 Z M 721 397 " clip-rule="nonzero"/></clipPath><clipPath id="id47"><path d="M 657.792969 405.421875 L 773.875 390.800781 L 788.777344 509.117188 L 672.695312 523.738281 Z M 657.792969 405.421875 " clip-rule="nonzero"/></clipPath><clipPath id="id48"><path d="M 657.792969 405.421875 L 773.875 390.800781 L 788.777344 509.117188 L 672.695312 523.738281 Z M 657.792969 405.421875 " clip-rule="nonzero"/></clipPath><clipPath id="id49"><path d="M 726 399 L 743 399 L 743 436 L 726 436 Z M 726 399 " clip-rule="nonzero"/></clipPath><clipPath id="id50"><path d="M 657.792969 405.421875 L 773.875 390.800781 L 788.777344 509.117188 L 672.695312 523.738281 Z M 657.792969 405.421875 " clip-rule="nonzero"/></clipPath><clipPath id="id51"><path d="M 657.792969 405.421875 L 773.875 390.800781 L 788.777344 509.117188 L 672.695312 523.738281 Z M 657.792969 405.421875 " clip-rule="nonzero"/></clipPath><clipPath id="id52"><path d="M 726 405 L 757 405 L 757 438 L 726 438 Z M 726 405 " clip-rule="nonzero"/></clipPath><clipPath id="id53"><path d="M 657.792969 405.421875 L 773.875 390.800781 L 788.777344 509.117188 L 672.695312 523.738281 Z M 657.792969 405.421875 " clip-rule="nonzero"/></clipPath><clipPath id="id54"><path d="M 657.792969 405.421875 L 773.875 390.800781 L 788.777344 509.117188 L 672.695312 523.738281 Z M 657.792969 405.421875 " clip-rule="nonzero"/></clipPath><clipPath id="id55"><path d="M 727 415 L 768 415 L 768 439 L 727 439 Z M 727 415 " clip-rule="nonzero"/></clipPath><clipPath id="id56"><path d="M 657.792969 405.421875 L 773.875 390.800781 L 788.777344 509.117188 L 672.695312 523.738281 Z M 657.792969 405.421875 " clip-rule="nonzero"/></clipPath><clipPath id="id57"><path d="M 657.792969 405.421875 L 773.875 390.800781 L 788.777344 509.117188 L 672.695312 523.738281 Z M 657.792969 405.421875 " clip-rule="nonzero"/></clipPath><clipPath id="id58"><path d="M 738 430 L 776 430 L 776 477 L 738 477 Z M 738 430 " clip-rule="nonzero"/></clipPath><clipPath id="id59"><path d="M 657.792969 405.421875 L 773.875 390.800781 L 788.777344 509.117188 L 672.695312 523.738281 Z M 657.792969 405.421875 " clip-rule="nonzero"/></clipPath><clipPath id="id60"><path d="M 657.792969 405.421875 L 773.875 390.800781 L 788.777344 509.117188 L 672.695312 523.738281 Z M 657.792969 405.421875 " clip-rule="nonzero"/></clipPath><clipPath id="id61"><path d="M 722 474 L 735 474 L 735 479 L 722 479 Z M 722 474 " clip-rule="nonzero"/></clipPath><clipPath id="id62"><path d="M 657.792969 405.421875 L 773.875 390.800781 L 788.777344 509.117188 L 672.695312 523.738281 Z M 657.792969 405.421875 " clip-rule="nonzero"/></clipPath><clipPath id="id63"><path d="M 657.792969 405.421875 L 773.875 390.800781 L 788.777344 509.117188 L 672.695312 523.738281 Z M 657.792969 405.421875 " clip-rule="nonzero"/></clipPath><clipPath id="id64"><path d="M 682 441 L 718 441 L 718 478 L 682 478 Z M 682 441 " clip-rule="nonzero"/></clipPath><clipPath id="id65"><path d="M 657.792969 405.421875 L 773.875 390.800781 L 788.777344 509.117188 L 672.695312 523.738281 Z M 657.792969 405.421875 " clip-rule="nonzero"/></clipPath><clipPath id="id66"><path d="M 657.792969 405.421875 L 773.875 390.800781 L 788.777344 509.117188 L 672.695312 523.738281 Z M 657.792969 405.421875 " clip-rule="nonzero"/></clipPath><clipPath id="id67"><path d="M 667 423 L 752 423 L 752 492 L 667 492 Z M 667 423 " clip-rule="nonzero"/></clipPath><clipPath id="id68"><path d="M 657.792969 405.421875 L 773.875 390.800781 L 788.777344 509.117188 L 672.695312 523.738281 Z M 657.792969 405.421875 " clip-rule="nonzero"/></clipPath><clipPath id="id69"><path d="M 657.792969 405.421875 L 773.875 390.800781 L 788.777344 509.117188 L 672.695312 523.738281 Z M 657.792969 405.421875 " clip-rule="nonzero"/></clipPath><clipPath id="id70"><path d="M 671 419 L 755 419 L 755 488 L 671 488 Z M 671 419 " clip-rule="nonzero"/></clipPath><clipPath id="id71"><path d="M 657.792969 405.421875 L 773.875 390.800781 L 788.777344 509.117188 L 672.695312 523.738281 Z M 657.792969 405.421875 " clip-rule="nonzero"/></clipPath><clipPath id="id72"><path d="M 657.792969 405.421875 L 773.875 390.800781 L 788.777344 509.117188 L 672.695312 523.738281 Z M 657.792969 405.421875 " clip-rule="nonzero"/></clipPath><clipPath id="id73"><path d="M 747 480 L 781 480 L 781 512 L 747 512 Z M 747 480 " clip-rule="nonzero"/></clipPath><clipPath id="id74"><path d="M 657.792969 405.421875 L 773.875 390.800781 L 788.777344 509.117188 L 672.695312 523.738281 Z M 657.792969 405.421875 " clip-rule="nonzero"/></clipPath><clipPath id="id75"><path d="M 657.792969 405.421875 L 773.875 390.800781 L 788.777344 509.117188 L 672.695312 523.738281 Z M 657.792969 405.421875 " clip-rule="nonzero"/></clipPath><clipPath id="id76"><path d="M 756 489 L 772 489 L 772 504 L 756 504 Z M 756 489 " clip-rule="nonzero"/></clipPath><clipPath id="id77"><path d="M 657.792969 405.421875 L 773.875 390.800781 L 788.777344 509.117188 L 672.695312 523.738281 Z M 657.792969 405.421875 " clip-rule="nonzero"/></clipPath><clipPath id="id78"><path d="M 657.792969 405.421875 L 773.875 390.800781 L 788.777344 509.117188 L 672.695312 523.738281 Z M 657.792969 405.421875 " clip-rule="nonzero"/></clipPath><clipPath id="id79"><path d="M 660 414 L 674 414 L 674 427 L 660 427 Z M 660 414 " clip-rule="nonzero"/></clipPath><clipPath id="id80"><path d="M 657.792969 405.421875 L 773.875 390.800781 L 788.777344 509.117188 L 672.695312 523.738281 Z M 657.792969 405.421875 " clip-rule="nonzero"/></clipPath><clipPath id="id81"><path d="M 657.792969 405.421875 L 773.875 390.800781 L 788.777344 509.117188 L 672.695312 523.738281 Z M 657.792969 405.421875 " clip-rule="nonzero"/></clipPath><clipPath id="id82"><path d="M 688 487 L 722 487 L 722 519 L 688 519 Z M 688 487 " clip-rule="nonzero"/></clipPath><clipPath id="id83"><path d="M 657.792969 405.421875 L 773.875 390.800781 L 788.777344 509.117188 L 672.695312 523.738281 Z M 657.792969 405.421875 " clip-rule="nonzero"/></clipPath><clipPath id="id84"><path d="M 657.792969 405.421875 L 773.875 390.800781 L 788.777344 509.117188 L 672.695312 523.738281 Z M 657.792969 405.421875 " clip-rule="nonzero"/></clipPath><clipPath id="id85"><path d="M 697 496 L 713 496 L 713 511 L 697 511 Z M 697 496 " clip-rule="nonzero"/></clipPath><clipPath id="id86"><path d="M 657.792969 405.421875 L 773.875 390.800781 L 788.777344 509.117188 L 672.695312 523.738281 Z M 657.792969 405.421875 " clip-rule="nonzero"/></clipPath><clipPath id="id87"><path d="M 657.792969 405.421875 L 773.875 390.800781 L 788.777344 509.117188 L 672.695312 523.738281 Z M 657.792969 405.421875 " clip-rule="nonzero"/></clipPath><clipPath id="id88"><path d="M 707 465 L 724 465 L 724 491 L 707 491 Z M 707 465 " clip-rule="nonzero"/></clipPath><clipPath id="id89"><path d="M 657.792969 405.421875 L 773.875 390.800781 L 788.777344 509.117188 L 672.695312 523.738281 Z M 657.792969 405.421875 " clip-rule="nonzero"/></clipPath><clipPath id="id90"><path d="M 657.792969 405.421875 L 773.875 390.800781 L 788.777344 509.117188 L 672.695312 523.738281 Z M 657.792969 405.421875 " clip-rule="nonzero"/></clipPath><clipPath id="id91"><path d="M 712 469 L 728 469 L 728 493 L 712 493 Z M 712 469 " clip-rule="nonzero"/></clipPath><clipPath id="id92"><path d="M 657.792969 405.421875 L 773.875 390.800781 L 788.777344 509.117188 L 672.695312 523.738281 Z M 657.792969 405.421875 " clip-rule="nonzero"/></clipPath><clipPath id="id93"><path d="M 657.792969 405.421875 L 773.875 390.800781 L 788.777344 509.117188 L 672.695312 523.738281 Z M 657.792969 405.421875 " clip-rule="nonzero"/></clipPath><clipPath id="id94"><path d="M 933 512 L 1107 512 L 1107 642 L 933 642 Z M 933 512 " clip-rule="nonzero"/></clipPath><clipPath id="id95"><path d="M 944.296875 495.910156 L 1107.753906 512 L 1094.457031 647.09375 L 930.996094 631.003906 Z M 944.296875 495.910156 " clip-rule="nonzero"/></clipPath><clipPath id="id96"><path d="M 944.296875 495.910156 L 1107.753906 512 L 1094.457031 647.09375 L 930.996094 631.003906 Z M 944.296875 495.910156 " clip-rule="nonzero"/></clipPath></defs><g clip-path="url(#id1)"><g clip-path="url(#id2)"><g clip-path="url(#id3)"><path fill="#6dcb83" d="M 1131.367188 461.746094 L 1124.765625 468.546875 C 1107.828125 452.523438 1087.105469 440.808594 1064.503906 434.539062 C 1034.597656 426.242188 1003.519531 427.734375 974.621094 438.859375 C 950.539062 448.128906 929.761719 463.335938 913.867188 483.207031 C 909.324219 488.886719 910.710938 497.261719 916.777344 501.257812 C 922.113281 504.773438 929.25 503.652344 933.25 498.660156 C 946.398438 482.25 963.578125 469.6875 983.496094 462.023438 C 1007.398438 452.820312 1033.117188 451.585938 1057.867188 458.453125 C 1076.464844 463.613281 1093.523438 473.222656 1107.480469 486.351562 L 1100.929688 493.101562 C 1098.921875 495.167969 1100.269531 498.632812 1103.140625 498.800781 L 1136.429688 500.710938 C 1138.472656 500.828125 1140.144531 499.105469 1139.96875 497.0625 L 1137.117188 463.796875 C 1136.871094 460.929688 1133.371094 459.679688 1131.367188 461.746094 " fill-opacity="1" fill-rule="nonzero"/></g></g></g><g clip-path="url(#id4)"><g clip-path="url(#id5)"><g clip-path="url(#id6)"><path fill="#6dcb83" d="M 1018.253906 704.054688 L 1018.253906 704.050781 C 1018.636719 697.675781 1014.125 692.039062 1007.820312 691.0625 C 1003.214844 690.347656 998.640625 689.363281 994.144531 688.117188 C 963.519531 679.621094 938.042969 659.6875 922.40625 631.988281 C 907.972656 606.425781 903.523438 577.070312 909.617188 548.582031 L 918.371094 551.019531 C 921.140625 551.789062 923.535156 548.945312 922.304688 546.339844 L 908.050781 516.167969 C 907.175781 514.316406 904.863281 513.671875 903.160156 514.808594 L 875.367188 533.28125 C 872.96875 534.871094 873.550781 538.546875 876.320312 539.316406 L 885.699219 541.929688 C 877.851562 576.820312 883.132812 612.875 900.828125 644.214844 C 919.722656 677.679688 950.507812 701.765625 987.507812 712.03125 C 992.90625 713.53125 998.394531 714.710938 1003.929688 715.574219 C 1011.164062 716.699219 1017.8125 711.371094 1018.253906 704.054688 " fill-opacity="1" fill-rule="nonzero"/></g></g></g><g clip-path="url(#id7)"><g clip-path="url(#id8)"><g clip-path="url(#id9)"><path fill="#6dcb83" d="M 1136.941406 530.0625 C 1146.214844 553.925781 1147.574219 580.175781 1140.660156 605.097656 C 1134.96875 625.613281 1123.917969 644.226562 1108.707031 658.925781 C 1095.425781 671.757812 1079.285156 681.347656 1061.726562 686.914062 L 1059.28125 677.617188 C 1058.546875 674.832031 1054.886719 674.203125 1053.261719 676.582031 L 1034.445312 704.160156 C 1033.292969 705.851562 1033.902344 708.175781 1035.738281 709.074219 L 1065.679688 723.753906 C 1068.261719 725.015625 1071.136719 722.65625 1070.40625 719.875 L 1068.050781 710.941406 C 1089.6875 704.273438 1109.585938 692.546875 1125.90625 676.777344 C 1144.304688 659.003906 1157.664062 636.507812 1164.539062 611.722656 C 1172.878906 581.660156 1171.253906 549.996094 1160.09375 521.199219 C 1157.441406 514.355469 1149.519531 511.25 1142.964844 514.542969 C 1137.273438 517.402344 1134.632812 524.125 1136.941406 530.0625 " fill-opacity="1" fill-rule="nonzero"/></g></g></g><g clip-path="url(#id10)"><g clip-path="url(#id11)"><g clip-path="url(#id12)"><path fill="#6dcb83" d="M 1078.253906 267.859375 L 1071.820312 267.445312 C 1072.601562 251.582031 1069.476562 235.664062 1062.714844 221.175781 C 1053.765625 202.011719 1039.238281 186.566406 1020.707031 176.507812 C 1005.265625 168.125 988.21875 164.082031 970.921875 164.636719 C 965.980469 164.792969 962.273438 169.214844 962.890625 174.125 C 963.4375 178.445312 967.175781 181.648438 971.523438 181.511719 C 985.816406 181.070312 999.90625 184.417969 1012.675781 191.351562 C 1028.003906 199.667969 1040.023438 212.453125 1047.429688 228.3125 C 1052.996094 240.234375 1055.582031 253.320312 1054.980469 266.359375 L 1048.59375 265.949219 C 1046.640625 265.824219 1045.445312 268.054688 1046.628906 269.617188 L 1060.375 287.714844 C 1061.21875 288.824219 1062.847656 288.929688 1063.824219 287.933594 L 1079.738281 271.746094 C 1081.113281 270.351562 1080.207031 267.984375 1078.253906 267.859375 " fill-opacity="1" fill-rule="nonzero"/></g></g></g><g clip-path="url(#id13)"><g clip-path="url(#id14)"><g clip-path="url(#id15)"><path fill="#6dcb83" d="M 903.082031 316.390625 C 906.546875 313.769531 907.460938 308.9375 905.175781 305.238281 C 903.503906 302.535156 901.988281 299.730469 900.644531 296.847656 C 891.480469 277.222656 890.496094 255.203125 897.878906 234.851562 C 904.691406 216.066406 917.882812 200.78125 935.285156 191.34375 L 937.902344 196.957031 C 938.730469 198.730469 941.261719 198.714844 942.058594 196.925781 L 951.332031 176.195312 C 951.898438 174.925781 951.210938 173.441406 949.871094 173.058594 L 928.03125 166.828125 C 926.148438 166.289062 924.507812 168.214844 925.335938 169.988281 L 928.136719 176.003906 C 906.648438 187.367188 890.371094 206.046875 882.019531 229.074219 C 873.097656 253.667969 874.285156 280.269531 885.359375 303.984375 C 886.972656 307.445312 888.792969 310.8125 890.796875 314.0625 C 893.417969 318.308594 899.109375 319.398438 903.082031 316.390625 " fill-opacity="1" fill-rule="nonzero"/></g></g></g><g clip-path="url(#id16)"><g clip-path="url(#id17)"><g clip-path="url(#id18)"><path fill="#6dcb83" d="M 1045.445312 300.957031 C 1037.226562 316.316406 1024.273438 328.628906 1008.347656 336.066406 C 995.234375 342.1875 980.734375 344.695312 966.414062 343.308594 C 953.910156 342.101562 941.816406 337.976562 931.171875 331.339844 L 934.890625 325.960938 C 936.003906 324.351562 934.707031 322.171875 932.761719 322.386719 L 910.191406 324.828125 C 908.808594 324.980469 907.878906 326.324219 908.226562 327.671875 L 913.898438 349.679688 C 914.386719 351.578125 916.878906 352.023438 917.992188 350.414062 L 921.5625 345.242188 C 934.582031 353.507812 949.441406 358.632812 964.804688 360.117188 C 982.125 361.792969 999.652344 358.765625 1015.492188 351.371094 C 1034.707031 342.398438 1050.335938 327.554688 1060.269531 309.035156 C 1062.628906 304.636719 1060.726562 299.15625 1056.125 297.214844 C 1052.128906 295.53125 1047.488281 297.136719 1045.445312 300.957031 " fill-opacity="1" fill-rule="nonzero"/></g></g></g><g clip-path="url(#id19)"><g clip-path="url(#id20)"><g clip-path="url(#id21)"><path fill="#c9e265" d="M 1030.113281 228.667969 C 1029.820312 227.8125 1029.183594 227.109375 1027.867188 226.539062 C 1022.945312 224.273438 1018.027344 221.839844 1012.933594 219.566406 C 1008.007812 217.300781 1002.378906 215.671875 997.648438 212.910156 C 996.984375 212.710938 996.332031 212.339844 995.644531 212.640625 C 994.789062 212.933594 994.234375 213.914062 993.859375 214.734375 C 991.222656 220.308594 984.984375 224.019531 978.953125 223.710938 C 972.75 223.394531 967.097656 218.910156 965.21875 212.941406 C 965.074219 212.429688 964.933594 211.917969 964.441406 211.726562 C 964.113281 211.539062 963.601562 211.683594 963.257812 211.832031 C 952.179688 214.960938 941.089844 218.257812 929.992188 221.722656 C 929.480469 221.867188 928.792969 222.167969 928.597656 222.660156 C 928.414062 222.988281 928.566406 223.328125 928.539062 223.832031 C 930.023438 230.960938 931.519531 237.917969 933.171875 245.054688 C 933.863281 247.945312 935.785156 246.53125 937.664062 245.953125 C 940.226562 245.078125 943.109375 244.554688 945.835938 243.851562 C 944.980469 244.144531 944.273438 254.6875 944.207031 256.023438 C 943.640625 260.53125 943.242188 265.042969 943.015625 269.5625 C 942.402344 278.261719 942.285156 287.15625 942.511719 295.898438 C 942.488281 296.398438 942.628906 296.910156 942.773438 297.421875 C 943.390625 298.460938 945.550781 298.90625 946.53125 299.460938 C 950.132812 301.320312 953.171875 304.332031 954.828125 308.109375 C 956.492188 311.71875 956.960938 315.773438 957.601562 319.667969 C 958.269531 323.058594 964.871094 322.050781 967.386719 322.179688 C 969.0625 322.265625 989.53125 322.800781 989.558594 322.300781 C 989.4375 318.097656 989.640625 314.078125 992.34375 310.523438 C 994.144531 308.09375 996.894531 306.890625 999.796875 306.03125 C 1002.359375 305.15625 1005.738281 304.824219 1006.5625 301.84375 C 1007.183594 299.523438 1006.667969 296.476562 1006.609375 294.289062 C 1007.394531 278.886719 1007.835938 263.628906 1010.292969 248.308594 C 1012.722656 250.109375 1015.34375 251.417969 1018.160156 252.234375 C 1018.820312 252.4375 1019.484375 252.636719 1020.164062 252.503906 C 1023.046875 251.980469 1025.386719 245.550781 1026.511719 243.257812 C 1028.226562 239.316406 1029.613281 235.1875 1030.167969 230.851562 C 1030.230469 229.679688 1030.253906 229.175781 1030.113281 228.667969 Z M 1019.277344 250.109375 C 1017.484375 249.011719 1015.515625 248.070312 1013.539062 247.296875 C 1011.730469 246.535156 1010.730469 246.316406 1009.207031 246.574219 C 1009.039062 246.566406 1008.863281 246.722656 1008.679688 247.050781 C 1004.449219 264.128906 1002.597656 284.011719 1004.726562 301.582031 C 999.648438 302.332031 993.628906 305.046875 990.398438 309.078125 C 988.242188 311.824219 986.859375 315.949219 987.859375 319.359375 C 984.097656 320.679688 977.109375 319.316406 973.085938 319.109375 C 968.722656 319.058594 964.207031 318.660156 959.8125 319.105469 C 958.925781 310.164062 955.710938 297.410156 945.179688 296.367188 C 944.84375 296.351562 947.113281 268.261719 947.242188 265.75 C 947.503906 260.558594 947.777344 255.199219 947.875 250 C 947.960938 248.324219 948.683594 243.996094 947.738281 242.773438 C 946.164062 240.679688 942.507812 243.179688 940.796875 243.761719 C 939.265625 244.1875 937.738281 244.449219 936.195312 245.039062 C 937.5625 244.605469 932.433594 226.546875 931.1875 224.636719 C 937.113281 223.765625 942.945312 221.375 948.578125 219.648438 C 953.53125 218.054688 958.8125 216.644531 963.625 214.539062 C 964.03125 229.667969 994.875 231.070312 996.722656 214.542969 C 1005.617188 221.375 1017.519531 225.171875 1027.890625 229.394531 C 1028.386719 229.585938 1025.015625 239.65625 1024.628906 240.644531 C 1023.128906 243.757812 1021.609375 247.207031 1019.277344 250.109375 Z M 1019.277344 250.109375 " fill-opacity="1" fill-rule="nonzero"/></g></g></g><g clip-path="url(#id22)"><g clip-path="url(#id23)"><g clip-path="url(#id24)"><path fill="#c9e265" d="M 990.210938 256.6875 C 988.058594 252.71875 980.835938 252.683594 977.976562 256.066406 C 977.222656 254.347656 975.609375 253.089844 973.445312 252.644531 C 969.289062 251.761719 964.8125 253.882812 964.25 258.386719 C 963.945312 261.058594 965.351562 263.144531 967.09375 265.25 C 969.628906 268.230469 975.949219 276.109375 980.441406 273.652344 C 985.445312 271.050781 993.742188 263.246094 990.210938 256.6875 Z M 966.511719 260.183594 C 966.367188 259.671875 966.234375 258.992188 966.425781 258.5 C 966.644531 257.503906 967.703125 256.550781 968.742188 255.929688 C 968.003906 257.238281 967.257812 258.710938 966.511719 260.183594 Z M 967.429688 261.910156 C 968.554688 259.613281 969.671875 257.488281 970.964844 255.203125 C 970.964844 255.203125 970.964844 255.203125 970.972656 255.039062 C 970.972656 255.039062 971.140625 255.046875 971.140625 255.046875 C 971.308594 255.054688 971.640625 255.070312 971.976562 255.089844 C 970.675781 257.539062 969.367188 260.160156 968.066406 262.613281 C 967.738281 262.429688 967.589844 262.085938 967.429688 261.910156 Z M 969.480469 264.53125 C 969.320312 264.355469 968.996094 264.171875 968.84375 263.828125 C 970.164062 261.039062 971.648438 258.261719 973.125 255.652344 C 973.453125 255.835938 973.609375 256.011719 973.9375 256.195312 C 972.453125 258.972656 970.964844 261.753906 969.480469 264.53125 Z M 970.601562 265.59375 C 972.089844 262.816406 973.574219 260.039062 975.066406 257.09375 C 975.386719 257.445312 975.546875 257.621094 975.695312 257.964844 C 974.378906 260.75 972.566406 263.34375 971.566406 266.484375 C 971.414062 266.140625 970.921875 265.949219 970.601562 265.59375 Z M 972.6875 267.546875 C 972.863281 267.390625 972.863281 267.390625 973.039062 267.230469 C 973.847656 264.585938 975.316406 262.140625 976.617188 259.691406 C 976.941406 259.875 977.445312 259.898438 977.621094 259.742188 C 976.136719 262.519531 974.648438 265.296875 973.164062 268.078125 C 973.183594 267.742188 972.855469 267.558594 972.6875 267.546875 Z M 974.472656 268.816406 C 976.335938 265.214844 978.367188 261.625 980.238281 257.859375 C 980.414062 257.699219 980.421875 257.53125 980.261719 257.355469 C 980.957031 256.890625 981.644531 256.585938 982.667969 256.304688 C 980.585938 260.898438 977.523438 264.941406 975.285156 269.359375 C 974.949219 269.34375 974.796875 269 974.472656 268.816406 Z M 976.40625 270.425781 C 978.839844 265.511719 982.085938 261.144531 984.351562 256.222656 C 984.6875 256.238281 985.191406 256.265625 985.519531 256.449219 C 982.914062 261.351562 980.148438 266.25 977.058594 270.792969 C 976.722656 270.777344 976.566406 270.601562 976.40625 270.425781 Z M 978.515625 271.875 C 978.515625 271.875 978.339844 272.035156 978.339844 272.035156 C 978.171875 272.023438 978.179688 271.859375 978.011719 271.847656 C 981.109375 267.136719 984.046875 262.25 986.65625 257.179688 C 986.984375 257.363281 987.300781 257.714844 987.453125 258.058594 C 985.414062 261.816406 983.539062 265.582031 981.5 269.339844 C 980.460938 269.957031 979.40625 270.914062 978.515625 271.875 Z M 988.085938 262.121094 C 987.320312 263.929688 986.070312 265.375 984.664062 266.648438 C 985.957031 264.363281 987.089844 261.902344 988.382812 259.617188 C 988.503906 260.460938 988.296875 261.292969 988.085938 262.121094 Z M 988.085938 262.121094 " fill-opacity="1" fill-rule="nonzero"/></g></g></g><g clip-path="url(#id25)"><g clip-path="url(#id26)"><g clip-path="url(#id27)"><path fill="#6dcb83" d="M 837.527344 501.945312 L 830.683594 499.242188 C 837.078125 482.269531 839.257812 463.863281 836.976562 445.742188 C 833.957031 421.769531 823.574219 399.886719 806.953125 382.460938 C 793.101562 367.941406 775.988281 357.574219 757 352.117188 C 751.574219 350.558594 745.992188 354.066406 744.949219 359.625 C 744.03125 364.511719 746.972656 369.304688 751.746094 370.679688 C 767.433594 375.203125 781.574219 383.777344 793.027344 395.789062 C 806.777344 410.203125 815.367188 428.308594 817.863281 448.152344 C 819.742188 463.0625 817.976562 478.195312 812.757812 492.164062 L 805.960938 489.480469 C 803.882812 488.660156 801.804688 490.667969 802.542969 492.777344 L 811.152344 517.269531 C 811.675781 518.773438 813.414062 519.457031 814.820312 518.71875 L 837.78125 506.691406 C 839.761719 505.652344 839.609375 502.765625 837.527344 501.945312 " fill-opacity="1" fill-rule="nonzero"/></g></g></g><g clip-path="url(#id28)"><g clip-path="url(#id29)"><g clip-path="url(#id30)"><path fill="#6dcb83" d="M 630.164062 493.363281 C 634.84375 491.726562 637.53125 486.792969 636.339844 481.972656 C 635.46875 478.445312 634.804688 474.867188 634.351562 471.261719 C 631.257812 446.710938 637.898438 422.425781 653.042969 402.882812 C 667.019531 384.84375 686.703125 372.84375 708.921875 368.675781 L 709.800781 375.695312 C 710.078125 377.917969 712.835938 378.78125 714.328125 377.121094 L 731.660156 357.824219 C 732.722656 356.640625 732.492188 354.789062 731.167969 353.90625 L 709.617188 339.476562 C 707.757812 338.234375 705.300781 339.753906 705.578125 341.972656 L 706.519531 349.492188 C 679.191406 354.324219 654.960938 368.933594 637.824219 391.046875 C 619.527344 414.660156 611.503906 444.003906 615.242188 473.667969 C 615.785156 477.996094 616.585938 482.292969 617.625 486.527344 C 618.988281 492.0625 624.792969 495.242188 630.164062 493.363281 " fill-opacity="1" fill-rule="nonzero"/></g></g></g><g clip-path="url(#id31)"><g clip-path="url(#id32)"><g clip-path="url(#id33)"><path fill="#6dcb83" d="M 790.289062 526.441406 C 775.984375 540.265625 757.597656 549.117188 737.683594 551.625 C 721.289062 553.6875 704.652344 551.332031 689.574219 544.8125 C 676.40625 539.121094 664.707031 530.398438 655.460938 519.457031 L 661.382812 514.910156 C 663.15625 513.546875 662.511719 510.726562 660.324219 510.277344 L 634.9375 505.03125 C 633.382812 504.707031 631.902344 505.84375 631.808594 507.433594 L 630.269531 533.347656 C 630.140625 535.582031 632.691406 536.9375 634.464844 535.578125 L 640.15625 531.207031 C 651.410156 544.753906 665.765625 555.53125 681.945312 562.527344 C 700.183594 570.410156 720.289062 573.261719 740.09375 570.765625 C 764.117188 567.742188 786.300781 557.074219 803.574219 540.417969 C 807.679688 536.460938 807.527344 529.835938 803.203125 526.113281 C 799.453125 522.882812 793.847656 523.003906 790.289062 526.441406 " fill-opacity="1" fill-rule="nonzero"/></g></g></g><g clip-path="url(#id34)"><g clip-path="url(#id35)"><g clip-path="url(#id36)"><path fill="#c9e265" d="M 697.765625 442.429688 C 705.570312 441.445312 713.503906 440.445312 721.289062 439.335938 C 722.980469 439.121094 722.65625 436.527344 720.964844 436.738281 C 713.160156 437.722656 705.226562 438.722656 697.441406 439.832031 C 695.75 440.046875 696.078125 442.640625 697.765625 442.429688 Z M 697.765625 442.429688 " fill-opacity="1" fill-rule="nonzero"/></g></g></g><g clip-path="url(#id37)"><g clip-path="url(#id38)"><g clip-path="url(#id39)"><path fill="#c9e265" d="M 683.867188 444.3125 C 685.949219 444.046875 688.03125 443.785156 690.09375 443.394531 C 691.785156 443.183594 691.457031 440.585938 689.765625 440.800781 C 687.6875 441.0625 685.605469 441.324219 683.539062 441.714844 C 681.851562 441.929688 682.175781 444.523438 683.867188 444.3125 Z M 683.867188 444.3125 " fill-opacity="1" fill-rule="nonzero"/></g></g></g><g clip-path="url(#id40)"><g clip-path="url(#id41)"><g clip-path="url(#id42)"><path fill="#c9e265" d="M 724.195312 433.039062 C 721.871094 433.460938 719.953125 435.023438 719.859375 437.40625 C 719.828125 440.308594 722.625 442.59375 725.375 442.378906 C 727.992188 442.179688 730.332031 439.777344 729.710938 436.957031 C 729.253906 434.378906 726.816406 432.839844 724.195312 433.039062 C 722.488281 433.121094 722.816406 435.714844 724.523438 435.632812 C 727.53125 435.386719 728.347656 439.761719 725.046875 439.785156 C 722.136719 439.753906 721.679688 436.121094 724.523438 435.632812 C 726.199219 435.289062 725.871094 432.695312 724.195312 433.039062 Z M 724.195312 433.039062 " fill-opacity="1" fill-rule="nonzero"/></g></g></g><g clip-path="url(#id43)"><g clip-path="url(#id44)"><g clip-path="url(#id45)"><path fill="#c9e265" d="M 721.167969 399.550781 C 722.460938 410.851562 723.425781 422.722656 723.140625 434.09375 C 723.09375 435.8125 725.644531 436.148438 725.695312 434.429688 C 726.078125 422.785156 725.078125 410.652344 723.753906 399.089844 C 723.558594 397.535156 720.957031 397.863281 721.167969 399.550781 Z M 721.167969 399.550781 " fill-opacity="1" fill-rule="nonzero"/></g></g></g><g clip-path="url(#id46)"><g clip-path="url(#id47)"><g clip-path="url(#id48)"><path fill="#c9e265" d="M 721.964844 400.636719 C 726.78125 403.191406 731.363281 402.878906 736.617188 402.613281 C 740.679688 402.363281 742.550781 403.578125 745.933594 405.261719 C 748.601562 406.503906 751.460938 407.199219 754.015625 408.589844 C 758.292969 411.082031 764.410156 416.640625 766.800781 420.949219 C 768.871094 424.777344 770.578125 428.910156 772.761719 432.589844 C 773.070312 431.890625 773.378906 431.191406 773.683594 430.496094 C 758.679688 431.988281 743.59375 433.890625 728.636719 435.773438 C 726.945312 435.984375 727.273438 438.582031 728.964844 438.367188 C 743.921875 436.484375 759.007812 434.585938 774.011719 433.089844 C 775.050781 432.957031 775.3125 431.871094 774.9375 430.996094 C 773.929688 429.277344 773.050781 427.542969 772.171875 425.808594 C 770.769531 423.085938 769.859375 418.984375 767.96875 416.585938 C 766.898438 415.402344 765.207031 414.5625 764.019531 413.527344 C 761.367188 411.355469 759.089844 407.953125 756.355469 406.1875 C 754.925781 405.3125 753.183594 405.136719 751.527344 404.554688 C 748.339844 403.375 744.875 399.992188 741.882812 399.3125 C 740.253906 398.992188 738.355469 399.625 736.664062 399.839844 C 731.851562 400.445312 727.609375 400.320312 723.363281 398.085938 C 721.425781 397.40625 720.40625 399.777344 721.964844 400.636719 Z M 721.964844 400.636719 " fill-opacity="1" fill-rule="nonzero"/></g></g></g><g clip-path="url(#id49)"><g clip-path="url(#id50)"><g clip-path="url(#id51)"><path fill="#c9e265" d="M 728.636719 434.71875 C 733.589844 423.683594 737.160156 412.164062 742.109375 401.128906 C 742.839844 399.585938 740.335938 398.585938 739.734375 400.109375 C 734.785156 411.144531 731.214844 422.664062 726.261719 433.699219 C 725.53125 435.242188 727.90625 436.261719 728.636719 434.71875 Z M 728.636719 434.71875 " fill-opacity="1" fill-rule="nonzero"/></g></g></g><g clip-path="url(#id52)"><g clip-path="url(#id53)"><g clip-path="url(#id54)"><path fill="#c9e265" d="M 728.523438 436.972656 C 738.226562 427.976562 746.101562 417.101562 755.820312 408.230469 C 757.007812 407.160156 755.410156 404.988281 754.242188 406.191406 C 744.523438 415.058594 736.777344 425.917969 726.929688 434.800781 C 725.757812 436.003906 727.339844 438.046875 728.523438 436.972656 Z M 728.523438 436.972656 " fill-opacity="1" fill-rule="nonzero"/></g></g></g><g clip-path="url(#id55)"><g clip-path="url(#id56)"><g clip-path="url(#id57)"><path fill="#c9e265" d="M 729.222656 438.335938 C 741.933594 432.253906 755.992188 426.398438 767.386719 418.242188 C 768.71875 417.28125 767.140625 415.242188 765.808594 416.199219 C 754.546875 424.339844 740.730469 430.03125 728.261719 435.953125 C 726.769531 436.667969 727.730469 439.050781 729.222656 438.335938 Z M 729.222656 438.335938 " fill-opacity="1" fill-rule="nonzero"/></g></g></g><g clip-path="url(#id58)"><g clip-path="url(#id59)"><g clip-path="url(#id60)"><path fill="#c9e265" d="M 740.335938 476.207031 C 750.511719 474.136719 765.207031 471.230469 771.574219 461.996094 C 773.800781 458.683594 773.960938 454.710938 774.007812 450.882812 C 774.261719 444.523438 774 438.230469 775.066406 432.035156 C 775.390625 430.410156 772.691406 429.960938 772.515625 431.695312 C 771.074219 440.179688 773.40625 450.300781 770.582031 458.296875 C 766.960938 468.375 749.160156 471.804688 740.023438 473.742188 C 738.335938 473.957031 738.660156 476.550781 740.335938 476.207031 Z M 740.335938 476.207031 " fill-opacity="1" fill-rule="nonzero"/></g></g></g><g clip-path="url(#id61)"><g clip-path="url(#id62)"><g clip-path="url(#id63)"><path fill="#c9e265" d="M 723.527344 478.0625 C 726.808594 477.914062 730.09375 477.761719 733.34375 477.351562 C 735.035156 477.140625 734.710938 474.546875 733.019531 474.757812 C 729.765625 475.167969 726.484375 475.316406 723.199219 475.46875 C 721.476562 475.421875 721.800781 478.015625 723.527344 478.0625 Z M 723.527344 478.0625 " fill-opacity="1" fill-rule="nonzero"/></g></g></g><g clip-path="url(#id64)"><g clip-path="url(#id65)"><g clip-path="url(#id66)"><path fill="#c9e265" d="M 682.566406 443.421875 C 686.75 451.460938 687.390625 461.789062 693.070312 469.113281 C 698.453125 476.210938 707.753906 477.675781 715.980469 477.957031 C 717.707031 478.003906 718.046875 475.457031 716.320312 475.410156 C 706.5 475.066406 697.101562 472.824219 692.59375 463.242188 C 689.5 456.515625 688.4375 449.136719 684.972656 442.589844 C 684.109375 440.984375 681.71875 441.945312 682.566406 443.421875 Z M 682.566406 443.421875 " fill-opacity="1" fill-rule="nonzero"/></g></g></g><g clip-path="url(#id67)"><g clip-path="url(#id68)"><g clip-path="url(#id69)"><path fill="#c9e265" d="M 668.28125 425.449219 C 694.761719 447.945312 722.851562 468.527344 749.335938 491.023438 C 750.667969 492.171875 752.246094 489.996094 750.925781 488.976562 C 724.316406 466.496094 696.339844 445.769531 669.855469 423.277344 C 668.539062 422.253906 666.945312 424.300781 668.28125 425.449219 Z M 668.28125 425.449219 " fill-opacity="1" fill-rule="nonzero"/></g></g></g><g clip-path="url(#id70)"><g clip-path="url(#id71)"><g clip-path="url(#id72)"><path fill="#c9e265" d="M 671.480469 421.488281 C 698.109375 444.097656 726.214844 464.808594 752.714844 487.433594 C 754.046875 488.582031 755.625 486.40625 754.308594 485.386719 C 727.679688 462.777344 699.570312 442.070312 673.074219 419.445312 C 671.871094 418.277344 670.292969 420.453125 671.480469 421.488281 Z M 671.480469 421.488281 " fill-opacity="1" fill-rule="nonzero"/></g></g></g><g clip-path="url(#id73)"><g clip-path="url(#id74)"><g clip-path="url(#id75)"><path fill="#c9e265" d="M 761.898438 480.609375 C 753.949219 482.535156 745.253906 491.140625 747.40625 499.832031 C 749.703125 508.636719 759.347656 512.824219 767.6875 510.851562 C 787.972656 506.1875 781.582031 478.527344 761.898438 480.609375 C 760.207031 480.824219 760.53125 483.417969 762.222656 483.203125 C 778.007812 481.613281 784.476562 503.597656 767.992188 508.046875 C 761.867188 509.738281 755.199219 508.207031 751.457031 502.617188 C 746.25 494.835938 754.257812 485 762.222656 483.203125 C 763.882812 482.734375 763.554688 480.136719 761.898438 480.609375 Z M 761.898438 480.609375 " fill-opacity="1" fill-rule="nonzero"/></g></g></g><g clip-path="url(#id76)"><g clip-path="url(#id77)"><g clip-path="url(#id78)"><path fill="#c9e265" d="M 770.421875 492.714844 C 768.292969 489.425781 762.828125 488.003906 759.546875 490.261719 C 756.359375 492.246094 755.160156 496.351562 757.160156 499.65625 C 759.164062 502.964844 763 504.0625 766.496094 502.433594 C 770.003906 500.9375 772.230469 496.574219 770.472656 493.105469 C 769.757812 491.613281 767.367188 492.574219 768.082031 494.0625 C 770.425781 499.039062 762.707031 502.78125 759.535156 498.566406 C 758.085938 496.507812 758.667969 493.800781 760.75 492.484375 C 763.074219 491.003906 766.78125 492.121094 768.246094 494.308594 C 769.335938 495.621094 771.382812 494.042969 770.421875 492.714844 Z M 770.421875 492.714844 " fill-opacity="1" fill-rule="nonzero"/></g></g></g><g clip-path="url(#id79)"><g clip-path="url(#id80)"><g clip-path="url(#id81)"><path fill="#c9e265" d="M 672.679688 417.382812 C 670.890625 414.710938 666.386719 413.566406 663.707031 415.351562 C 661.136719 416.992188 660.117188 420.417969 661.777344 423.105469 C 663.4375 425.796875 666.589844 426.71875 669.46875 425.433594 C 672.34375 424.148438 674.148438 420.625 672.84375 417.628906 C 672.128906 416.136719 669.738281 417.097656 670.453125 418.585938 C 672.097656 422.203125 666.507812 425.015625 664.261719 421.871094 C 663.171875 420.558594 663.59375 418.660156 665.171875 417.539062 C 666.875 416.402344 669.640625 417.371094 670.765625 418.945312 C 671.609375 420.417969 673.65625 418.84375 672.679688 417.382812 Z M 672.679688 417.382812 " fill-opacity="1" fill-rule="nonzero"/></g></g></g><g clip-path="url(#id82)"><g clip-path="url(#id83)"><g clip-path="url(#id84)"><path fill="#c9e265" d="M 703.371094 487.980469 C 695.421875 489.902344 686.730469 498.511719 688.882812 507.203125 C 691.179688 516.003906 700.824219 520.195312 709.160156 518.222656 C 729.320312 513.574219 723.058594 485.898438 703.371094 487.980469 C 701.679688 488.195312 702.007812 490.789062 703.699219 490.574219 C 719.484375 488.984375 725.953125 510.96875 709.46875 515.414062 C 703.339844 517.109375 696.675781 515.578125 692.929688 509.988281 C 687.722656 502.207031 695.734375 492.371094 703.699219 490.574219 C 705.226562 490.121094 704.898438 487.523438 703.371094 487.980469 Z M 703.371094 487.980469 " fill-opacity="1" fill-rule="nonzero"/></g></g></g><g clip-path="url(#id85)"><g clip-path="url(#id86)"><g clip-path="url(#id87)"><path fill="#c9e265" d="M 711.898438 500.085938 C 709.765625 496.796875 704.304688 495.375 701.019531 497.632812 C 697.835938 499.617188 696.632812 503.722656 698.636719 507.027344 C 700.636719 510.332031 704.476562 511.433594 707.96875 509.804688 C 711.480469 508.308594 713.707031 503.945312 711.949219 500.476562 C 711.230469 498.984375 708.84375 499.945312 709.558594 501.433594 C 711.902344 506.410156 704.183594 510.152344 701.007812 505.9375 C 699.5625 503.878906 700.144531 501.171875 702.226562 499.855469 C 704.546875 498.375 708.257812 499.488281 709.722656 501.679688 C 710.8125 502.992188 712.859375 501.414062 711.898438 500.085938 Z M 711.898438 500.085938 " fill-opacity="1" fill-rule="nonzero"/></g></g></g><g clip-path="url(#id88)"><g clip-path="url(#id89)"><g clip-path="url(#id90)"><path fill="#c9e265" d="M 709.46875 490.242188 C 713.953125 482.828125 718.304688 475.425781 722.933594 468.121094 C 723.8125 466.691406 721.761719 465.105469 720.886719 466.535156 C 716.125 473.855469 711.917969 481.367188 707.421875 488.65625 C 706.542969 490.085938 708.59375 491.671875 709.46875 490.242188 Z M 709.46875 490.242188 " fill-opacity="1" fill-rule="nonzero"/></g></g></g><g clip-path="url(#id91)"><g clip-path="url(#id92)"><g clip-path="url(#id93)"><path fill="#c9e265" d="M 715.03125 492.441406 C 719.1875 485.59375 723.347656 478.742188 727.652344 472.007812 C 728.527344 470.578125 726.480469 468.992188 725.601562 470.421875 C 721.296875 477.15625 717.140625 484.007812 712.980469 490.855469 C 712.089844 492.15625 714.15625 493.871094 715.03125 492.441406 Z M 715.03125 492.441406 " fill-opacity="1" fill-rule="nonzero"/></g></g></g><g clip-path="url(#id94)"><g clip-path="url(#id95)"><g clip-path="url(#id96)"><path fill="#c9e265" d="M 957.1875 603.945312 C 954.441406 603.652344 951.386719 604.59375 949.558594 606.261719 C 946.441406 609.128906 945.875 614.222656 948.296875 617.613281 C 949.703125 619.5625 951.941406 620.726562 954.269531 620.957031 C 956.101562 621.136719 957.992188 620.734375 959.523438 619.6875 C 961.4375 618.382812 962.851562 615.980469 963.328125 613.273438 C 963.769531 610.730469 963.316406 608.269531 962.058594 606.546875 C 961.023438 605.078125 959.285156 604.171875 957.1875 603.945312 Z M 960.25 612.738281 C 959.917969 614.617188 958.976562 616.289062 957.757812 617.117188 C 955.664062 618.550781 952.363281 617.929688 950.847656 615.804688 C 949.335938 613.679688 949.722656 610.378906 951.6875 608.574219 C 952.84375 607.511719 955.003906 606.882812 956.835938 607.0625 C 956.835938 607.0625 956.859375 607.066406 956.859375 607.066406 C 957.710938 607.148438 958.859375 607.449219 959.523438 608.378906 C 960.28125 609.441406 960.542969 611.023438 960.25 612.738281 Z M 1092.664062 512.804688 L 1078.835938 518.570312 C 1077.609375 519.078125 1075.917969 519.796875 1074.828125 521.265625 C 1074.125 522.226562 1073.546875 523.851562 1073.816406 525.347656 C 1066.074219 528.433594 1051.890625 530.988281 1044.660156 531.011719 C 1044.617188 531.007812 1044.554688 531.023438 1044.511719 531.019531 C 1042.476562 528.652344 1039.570312 527.84375 1037.726562 527.785156 L 1022.753906 527.28125 C 1021.410156 527.230469 1019.589844 527.179688 1017.988281 528.050781 C 1014.832031 529.820312 1013.164062 533.105469 1013.316406 537.324219 C 1013.511719 542.789062 1015.8125 544.421875 1016.933594 545.207031 C 1017.011719 545.253906 1017.089844 545.324219 1017.148438 545.375 C 1018.21875 546.234375 1019.476562 546.464844 1020.679688 546.644531 C 1020.84375 546.664062 1021.050781 546.703125 1021.28125 546.726562 C 1025.253906 547.117188 1036.953125 546.988281 1041.195312 546.585938 C 1042.339844 546.464844 1044.011719 545.707031 1045.304688 543.898438 C 1045.722656 543.289062 1046.152344 542.53125 1046.460938 541.554688 C 1049.421875 541.363281 1055.074219 540.929688 1058.542969 540.472656 C 1058.242188 545.46875 1057.5625 552.777344 1056.96875 559.046875 C 1055.773438 559.433594 1054.8125 560.035156 1054.097656 560.867188 C 1053.292969 561.796875 1052.894531 562.871094 1052.691406 563.859375 C 1045.003906 563.398438 1037.367188 563.464844 1029.949219 564.101562 C 1030.105469 562.960938 1030.113281 561.804688 1029.933594 560.632812 C 1029.210938 555.8125 1025.582031 551.691406 1020.421875 549.878906 C 1018.128906 549.066406 1015.753906 548.640625 1013.464844 548.207031 C 1011.730469 547.890625 1010.101562 547.582031 1008.480469 547.148438 C 1006.027344 546.464844 1001.65625 544.753906 1000.089844 541.023438 L 999.957031 540.675781 C 999.277344 539.054688 998.039062 536.03125 995.554688 533.535156 C 992.472656 530.457031 988.445312 529.117188 983.585938 529.582031 C 979.386719 529.988281 975.6875 531.917969 972.121094 533.773438 L 971.386719 534.164062 C 967.25 536.300781 963.875 539.625 961.890625 543.53125 C 960.019531 547.191406 959.574219 551.5 960.605469 555.953125 C 961.546875 560.058594 963.703125 563.972656 966.683594 567 C 970.964844 571.351562 977.003906 574.46875 984.683594 576.296875 C 976.058594 580.640625 968.464844 586.050781 962.042969 592.375 C 955.761719 590.855469 948.78125 591.976562 943.316406 595.390625 C 939.53125 597.769531 936.785156 600.714844 935.160156 604.191406 C 933.324219 608.089844 932.894531 612.671875 933.90625 617.773438 C 934.847656 622.511719 938.199219 626.878906 943.105469 629.78125 C 946.382812 631.699219 949.96875 632.871094 953.566406 633.226562 C 956.441406 633.511719 959.320312 633.269531 962.042969 632.507812 C 968.054688 630.804688 972.925781 626.347656 975.4375 620.265625 C 977.835938 614.46875 977.699219 608.171875 975.121094 602.785156 C 985.808594 594.527344 998.355469 588.109375 1011.457031 584.1875 C 1025.164062 580.070312 1039.109375 578.878906 1051.875 580.679688 C 1052.246094 583.515625 1053.171875 585.453125 1054.699219 586.59375 C 1054.816406 586.667969 1054.914062 586.761719 1055.03125 586.835938 C 1054.980469 587.566406 1054.925781 588.339844 1054.886719 589.15625 C 1050.992188 589.863281 1047.898438 590.988281 1045.488281 592.625 C 1036.558594 598.597656 1031.894531 610.097656 1034.160156 620.601562 C 1036.425781 631.105469 1045.417969 639.660156 1056.023438 641.421875 C 1056.5625 641.515625 1057.101562 641.589844 1057.621094 641.640625 C 1067.464844 642.609375 1077.59375 637.71875 1082.703125 629.351562 C 1087.164062 622.035156 1087.71875 613.199219 1084.191406 605.074219 C 1080.867188 597.410156 1074.546875 591.804688 1067.171875 589.859375 C 1067.167969 589.082031 1067.15625 588.34375 1067.160156 587.652344 C 1067.949219 587.308594 1068.628906 586.828125 1069.171875 586.230469 C 1070.796875 584.4375 1070.917969 581.90625 1071 580.230469 C 1071.207031 576.003906 1071.433594 571.78125 1071.640625 567.554688 C 1071.710938 565.984375 1071.816406 563.832031 1070.777344 562.003906 C 1070.1875 560.957031 1069.222656 560.085938 1068.042969 559.484375 C 1068.488281 554.738281 1068.886719 550.234375 1069.257812 546.257812 L 1069.976562 538.550781 C 1072.273438 537.851562 1076.160156 536.363281 1078.597656 535.277344 C 1079.292969 536.335938 1080.390625 537.15625 1081.3125 537.394531 C 1081.535156 537.460938 1081.765625 537.480469 1081.992188 537.503906 C 1083.074219 537.609375 1084.089844 537.355469 1085.0625 537.070312 C 1088.199219 536.160156 1099.789062 530.722656 1103.6875 528.457031 C 1104.691406 527.882812 1105.898438 526.488281 1106.304688 524.300781 C 1106.664062 522.359375 1106.480469 519.292969 1103.566406 515.621094 C 1100.085938 511.242188 1095.074219 511.78125 1092.664062 512.804688 Z M 1042.753906 542.050781 C 1041.996094 543.113281 1041.148438 543.40625 1040.894531 543.445312 C 1036.417969 543.886719 1023.84375 543.929688 1021.132812 543.539062 C 1020.324219 543.417969 1019.539062 543.277344 1019.089844 542.917969 C 1018.972656 542.820312 1018.855469 542.726562 1018.71875 542.648438 C 1017.910156 542.085938 1016.578125 541.132812 1016.4375 537.210938 C 1016.339844 534.152344 1017.371094 531.984375 1019.507812 530.785156 C 1020.265625 530.355469 1021.335938 530.355469 1022.632812 530.402344 L 1037.609375 530.90625 C 1037.628906 530.910156 1037.714844 530.917969 1037.839844 530.929688 C 1038.796875 531.023438 1042.414062 531.632812 1043.390625 535.597656 C 1044.234375 538.980469 1043.507812 540.988281 1042.753906 542.050781 Z M 968.917969 564.800781 C 964.21875 560.027344 961.261719 551.664062 964.695312 544.960938 C 966.386719 541.640625 969.273438 538.789062 972.835938 536.957031 L 973.589844 536.566406 C 977.046875 534.761719 980.320312 533.066406 983.90625 532.726562 C 984.96875 532.621094 985.933594 532.632812 986.808594 532.71875 C 993.570312 533.382812 995.878906 538.992188 997.0625 541.882812 L 997.21875 542.234375 C 998.75 545.894531 1002.464844 548.722656 1007.660156 550.15625 C 1009.398438 550.644531 1011.195312 550.96875 1012.910156 551.285156 C 1015.179688 551.695312 1017.324219 552.097656 1019.398438 552.828125 C 1023.5 554.28125 1026.285156 557.351562 1026.84375 561.085938 C 1027.363281 564.5625 1025.789062 567.960938 1022.5 570.390625 C 1018.941406 573.023438 1014.296875 573.914062 1010.65625 574.394531 C 1003.523438 575.332031 996.304688 575.210938 989.191406 574.027344 C 980.261719 572.519531 973.445312 569.410156 968.917969 564.800781 Z M 972.53125 619.054688 C 970.402344 624.226562 966.246094 628.023438 961.1875 629.480469 C 955.933594 630.957031 949.78125 630.058594 944.675781 627.074219 C 940.542969 624.652344 937.726562 621.03125 936.96875 617.171875 C 936.105469 612.738281 936.449219 608.816406 937.988281 605.542969 C 939.347656 602.628906 941.714844 600.128906 944.988281 598.074219 C 949.734375 595.097656 956.074219 594.101562 961.527344 595.5 C 964.703125 596.316406 969.066406 598.300781 971.785156 603.132812 C 974.46875 607.894531 974.738281 613.722656 972.53125 619.054688 Z M 1010.554688 581.15625 C 997.21875 585.140625 984.472656 591.664062 973.542969 600.023438 C 971.515625 597.113281 968.769531 594.910156 965.402344 593.484375 C 972.285156 586.972656 980.492188 581.515625 989.859375 577.289062 C 991.144531 577.476562 992.449219 577.648438 993.742188 577.777344 C 999.484375 578.339844 1005.296875 578.242188 1011.019531 577.5 C 1015.046875 576.972656 1020.1875 575.964844 1024.3125 572.902344 C 1026.445312 571.324219 1028.019531 569.421875 1028.960938 567.328125 C 1036.574219 566.625 1044.445312 566.496094 1052.363281 566.980469 C 1052.339844 567.839844 1052.222656 569.027344 1052.089844 570.382812 C 1051.882812 572.503906 1051.632812 575.042969 1051.644531 577.464844 C 1038.640625 575.722656 1024.476562 576.996094 1010.554688 581.15625 Z M 1081.296875 606.28125 C 1084.417969 613.441406 1083.945312 621.234375 1080.011719 627.679688 C 1077.730469 631.425781 1074.125 634.542969 1069.859375 636.453125 C 1065.613281 638.371094 1060.886719 639.019531 1056.523438 638.296875 C 1052.035156 637.558594 1047.632812 635.316406 1044.136719 631.988281 C 1040.636719 628.660156 1038.179688 624.382812 1037.234375 619.914062 C 1036.261719 615.46875 1036.746094 610.554688 1038.554688 606.066406 C 1040.363281 601.578125 1043.449219 597.742188 1047.230469 595.191406 C 1049.144531 593.90625 1051.589844 592.972656 1054.699219 592.351562 C 1054.558594 594.820312 1054.386719 598.0625 1054.289062 601.433594 C 1053.761719 601.636719 1053.277344 601.863281 1052.902344 602.054688 C 1050.71875 603.332031 1048.921875 605.34375 1047.683594 607.890625 C 1045.179688 613.046875 1046.117188 619.53125 1049.933594 623.667969 C 1052.214844 626.121094 1055.371094 627.585938 1058.617188 627.90625 C 1058.949219 627.941406 1059.285156 627.953125 1059.621094 627.964844 C 1059.578125 628.167969 1059.535156 628.398438 1059.511719 628.644531 C 1059.285156 631.148438 1061.292969 634.035156 1063.613281 634.578125 C 1063.796875 634.617188 1063.984375 634.65625 1064.171875 634.675781 C 1065.605469 634.816406 1066.78125 634.175781 1067.601562 633.753906 L 1072.75 630.980469 C 1073.617188 630.519531 1075.457031 629.523438 1075.65625 627.292969 C 1075.828125 625.542969 1074.847656 623.324219 1073.355469 622.042969 C 1072.738281 621.496094 1072.054688 621.179688 1071.394531 621.050781 C 1072.855469 618.378906 1073.480469 615.242188 1073 612.230469 C 1072.4375 608.5625 1070.136719 605.011719 1067.066406 602.902344 C 1067.152344 599.273438 1067.183594 595.726562 1067.175781 593.054688 C 1073.207031 594.972656 1078.523438 599.890625 1081.296875 606.28125 Z M 1066.925781 606.90625 C 1068.449219 608.503906 1069.546875 610.589844 1069.882812 612.722656 C 1070.4375 616.269531 1069.035156 620.039062 1066.40625 622.410156 C 1065.902344 621.5625 1065.308594 620.554688 1064.699219 619.488281 C 1065.933594 618.914062 1066.234375 616.90625 1066.511719 614.074219 C 1066.671875 612.238281 1066.824219 609.835938 1066.925781 606.90625 Z M 1064.226562 627.28125 C 1064.679688 627.136719 1065.121094 626.949219 1065.539062 626.738281 C 1065.980469 626.53125 1066.382812 626.296875 1066.804688 626.042969 C 1066.984375 625.933594 1067.144531 625.824219 1067.324219 625.695312 C 1068.5 625.054688 1069.714844 624.457031 1070.898438 624.175781 C 1071.042969 624.210938 1071.476562 624.484375 1071.914062 625.160156 C 1072.390625 625.898438 1072.570312 626.632812 1072.527344 627.046875 C 1072.488281 627.464844 1072.183594 627.769531 1071.273438 628.269531 L 1066.125 631.042969 C 1065.394531 631.433594 1064.839844 631.714844 1064.347656 631.582031 C 1063.589844 631.402344 1062.550781 629.996094 1062.652344 628.976562 C 1062.675781 628.285156 1063.097656 627.84375 1064.226562 627.28125 Z M 1063.726562 624.039062 C 1063.546875 624.125 1063.394531 624.214844 1063.21875 624.28125 C 1063.175781 624.296875 1063.109375 624.332031 1063.042969 624.371094 C 1059.351562 625.5625 1054.902344 624.449219 1052.222656 621.539062 C 1049.300781 618.371094 1048.566406 613.210938 1050.492188 609.261719 C 1051.386719 607.433594 1052.667969 605.921875 1054.171875 604.957031 C 1053.917969 616.492188 1054.757812 617.582031 1055.203125 618.175781 C 1055.855469 619.039062 1057.003906 619.527344 1058.875 619.714844 C 1059.5625 619.78125 1060.335938 619.816406 1061.242188 619.800781 C 1062.105469 621.292969 1063.003906 622.832031 1063.726562 624.039062 Z M 1059.09375 616.015625 C 1059.199219 616.214844 1059.304688 616.414062 1059.433594 616.613281 C 1058.308594 616.523438 1057.882812 616.355469 1057.726562 616.257812 C 1057.542969 615.734375 1057.0625 613.375 1057.363281 603.273438 C 1057.363281 603.273438 1057.367188 603.253906 1057.367188 603.253906 C 1057.488281 598.785156 1057.710938 594.394531 1057.894531 591.46875 C 1057.90625 591.132812 1057.9375 590.820312 1057.949219 590.507812 C 1057.949219 590.507812 1057.949219 590.488281 1057.949219 590.488281 C 1057.996094 589.609375 1058.058594 588.753906 1058.117188 587.9375 C 1058.613281 588.027344 1059.089844 588.097656 1059.566406 588.144531 C 1060.316406 588.21875 1061.007812 588.242188 1061.636719 588.265625 C 1062.410156 588.296875 1063.230469 588.292969 1064.03125 588.246094 C 1064.035156 589.089844 1064.046875 590.015625 1064.039062 590.960938 C 1064.035156 591 1064.03125 591.023438 1064.03125 591.042969 C 1064.039062 591.402344 1064.023438 591.757812 1064.03125 592.113281 C 1064.027344 595.140625 1064 599.699219 1063.875 604.164062 C 1063.652344 612.40625 1063.230469 615.390625 1062.976562 616.480469 C 1062.546875 615.742188 1062.175781 615.035156 1061.851562 614.457031 C 1061.445312 613.703125 1060.484375 613.417969 1059.730469 613.828125 C 1058.96875 614.296875 1058.683594 615.257812 1059.09375 616.015625 Z M 1068.023438 563.5 C 1068.582031 564.457031 1068.558594 565.738281 1068.488281 567.328125 C 1068.28125 571.554688 1068.078125 575.78125 1067.847656 580.003906 C 1067.773438 581.636719 1067.625 583.15625 1066.820312 584.066406 C 1066.441406 584.492188 1065.886719 584.792969 1065.175781 584.976562 C 1064.140625 585.230469 1062.902344 585.234375 1061.730469 585.183594 C 1060.03125 585.121094 1058.527344 585.035156 1057.324219 584.476562 C 1057.058594 584.367188 1056.800781 584.214844 1056.566406 584.042969 C 1055.625 583.363281 1055.054688 581.667969 1054.882812 579.167969 C 1054.6875 576.460938 1055 573.253906 1055.257812 570.671875 C 1055.398438 569.214844 1055.523438 567.964844 1055.535156 566.980469 C 1055.554688 566.582031 1055.558594 566.097656 1055.605469 565.621094 C 1055.714844 564.304688 1055.964844 563.46875 1056.464844 562.886719 C 1056.9375 562.34375 1057.644531 561.992188 1058.738281 561.785156 C 1059.527344 561.632812 1060.398438 561.570312 1061.15625 561.539062 C 1062.191406 561.496094 1063.265625 561.453125 1064.265625 561.550781 C 1064.617188 561.585938 1064.972656 561.644531 1065.320312 561.71875 C 1065.527344 561.761719 1065.6875 561.820312 1065.851562 561.875 C 1066.867188 562.25 1067.628906 562.808594 1068.023438 563.5 Z M 1078.5625 531.785156 C 1076.570312 532.808594 1070.082031 535.324219 1068.171875 535.746094 C 1067.503906 535.890625 1067.007812 536.449219 1066.941406 537.136719 L 1066.140625 545.929688 C 1065.785156 549.742188 1065.386719 554.011719 1064.984375 558.53125 C 1063.65625 558.359375 1062.324219 558.417969 1061.058594 558.460938 C 1060.785156 558.476562 1060.511719 558.492188 1060.214844 558.503906 C 1060.882812 551.507812 1061.59375 543.421875 1061.828125 538.695312 C 1061.855469 538.214844 1061.652344 537.730469 1061.28125 537.421875 C 1060.914062 537.113281 1060.421875 536.980469 1059.949219 537.078125 C 1057.953125 537.492188 1052.0625 538.007812 1046.960938 538.367188 C 1046.957031 537.335938 1046.820312 536.164062 1046.488281 534.851562 C 1046.429688 534.59375 1046.347656 534.351562 1046.265625 534.113281 C 1054.726562 533.769531 1069.359375 530.941406 1076.710938 527.546875 C 1076.949219 527.484375 1078.265625 527.574219 1079.242188 529.183594 C 1079.652344 529.894531 1078.945312 531.320312 1078.5625 531.785156 Z M 1103.191406 523.679688 C 1102.960938 524.957031 1102.289062 525.585938 1102.089844 525.714844 C 1098.1875 527.980469 1086.800781 533.269531 1084.164062 534.019531 C 1083.363281 534.253906 1082.609375 534.433594 1082.078125 534.296875 C 1081.835938 534.210938 1081.433594 533.8125 1081.191406 533.496094 C 1082.234375 532.0625 1083.09375 529.519531 1081.882812 527.53125 C 1080.542969 525.335938 1078.511719 524.421875 1076.917969 524.390625 C 1076.953125 524.015625 1077.109375 523.488281 1077.378906 523.113281 C 1077.890625 522.40625 1078.855469 521.976562 1080.0625 521.464844 L 1093.890625 515.699219 C 1094.066406 515.632812 1098.226562 513.941406 1101.105469 517.546875 C 1103.273438 520.28125 1103.421875 522.398438 1103.191406 523.679688 Z M 1008.003906 571.84375 C 1011.144531 571.964844 1013.785156 571.632812 1016.074219 570.789062 C 1019.082031 569.675781 1021.503906 566.84375 1022.007812 563.886719 C 1022.476562 561.054688 1021.023438 558.09375 1017.988281 555.820312 C 1015.644531 554.035156 1012.824219 553.210938 1010.3125 552.457031 L 1000.738281 549.625 C 998.308594 548.902344 995.550781 548.082031 992.699219 548.453125 C 989.035156 548.933594 986.015625 551.242188 983.582031 553.128906 C 981.488281 554.730469 979.1875 556.75 978.066406 559.414062 C 976.9375 562.101562 977.703125 566.085938 980.585938 567.527344 C 982.269531 568.363281 985.472656 569.121094 988.375 569.742188 C 991.75 570.476562 994.917969 570.933594 998.0625 571.242188 C 1001.351562 571.546875 1004.59375 571.695312 1008.003906 571.84375 Z M 981.980469 564.699219 C 980.957031 564.199219 980.265625 562.261719 980.949219 560.625 C 981.777344 558.625 983.703125 556.984375 985.476562 555.625 C 987.730469 553.894531 990.273438 551.957031 993.105469 551.585938 C 995.316406 551.296875 997.625 551.988281 999.851562 552.648438 L 1009.425781 555.480469 C 1011.777344 556.175781 1014.203125 556.898438 1016.082031 558.324219 C 1016.84375 558.902344 1019.289062 560.972656 1018.902344 563.394531 C 1018.75 564.304688 1018.261719 565.222656 1017.59375 566.019531 C 1017.570312 566.058594 1017.546875 566.078125 1017.5 566.113281 C 1016.816406 566.886719 1015.933594 567.515625 1014.996094 567.863281 C 1013.121094 568.5625 1010.863281 568.847656 1008.144531 568.726562 C 1001.65625 568.464844 995.722656 568.113281 989.035156 566.675781 C 987.535156 566.339844 983.542969 565.460938 981.980469 564.699219 Z M 981.980469 564.699219 " fill-opacity="1" fill-rule="nonzero"/></g></g></g></svg>