<svg xmlns="http://www.w3.org/2000/svg" xmlns:xlink="http://www.w3.org/1999/xlink" width="1600" zoomAndPan="magnify" viewBox="0 0 1200 749.999995" height="1000" preserveAspectRatio="xMidYMid meet" version="1.0"><defs><clipPath id="id1"><path d="M 880 371 L 1110 371 L 1110 446 L 880 446 Z M 880 371 " clip-rule="nonzero"/></clipPath><clipPath id="id2"><path d="M 804.804688 612.148438 L 881.800781 334.632812 L 1172.328125 415.238281 L 1095.328125 692.753906 Z M 804.804688 612.148438 " clip-rule="nonzero"/></clipPath><clipPath id="id3"><path d="M 804.804688 612.148438 L 881.800781 334.632812 L 1172.328125 415.238281 L 1095.328125 692.753906 Z M 804.804688 612.148438 " clip-rule="nonzero"/></clipPath><clipPath id="id4"><path d="M 843 456 L 988 456 L 988 659 L 843 659 Z M 843 456 " clip-rule="nonzero"/></clipPath><clipPath id="id5"><path d="M 804.804688 612.148438 L 881.800781 334.632812 L 1172.328125 415.238281 L 1095.328125 692.753906 Z M 804.804688 612.148438 " clip-rule="nonzero"/></clipPath><clipPath id="id6"><path d="M 804.804688 612.148438 L 881.800781 334.632812 L 1172.328125 415.238281 L 1095.328125 692.753906 Z M 804.804688 612.148438 " clip-rule="nonzero"/></clipPath><clipPath id="id7"><path d="M 1003 455 L 1140 455 L 1140 667 L 1003 667 Z M 1003 455 " clip-rule="nonzero"/></clipPath><clipPath id="id8"><path d="M 804.804688 612.148438 L 881.800781 334.632812 L 1172.328125 415.238281 L 1095.328125 692.753906 Z M 804.804688 612.148438 " clip-rule="nonzero"/></clipPath><clipPath id="id9"><path d="M 804.804688 612.148438 L 881.800781 334.632812 L 1172.328125 415.238281 L 1095.328125 692.753906 Z M 804.804688 612.148438 " clip-rule="nonzero"/></clipPath><clipPath id="id10"><path d="M 932 106 L 1050 106 L 1050 231 L 932 231 Z M 932 106 " clip-rule="nonzero"/></clipPath><clipPath id="id11"><path d="M 809.15625 148.863281 L 986.527344 66.046875 L 1073.464844 252.25 L 896.097656 335.066406 Z M 809.15625 148.863281 " clip-rule="nonzero"/></clipPath><clipPath id="id12"><path d="M 809.15625 148.863281 L 986.527344 66.046875 L 1073.464844 252.25 L 896.097656 335.066406 Z M 809.15625 148.863281 " clip-rule="nonzero"/></clipPath><clipPath id="id13"><path d="M 845 109 L 921 109 L 921 261 L 845 261 Z M 845 109 " clip-rule="nonzero"/></clipPath><clipPath id="id14"><path d="M 809.15625 148.863281 L 986.527344 66.046875 L 1073.464844 252.25 L 896.097656 335.066406 Z M 809.15625 148.863281 " clip-rule="nonzero"/></clipPath><clipPath id="id15"><path d="M 809.15625 148.863281 L 986.527344 66.046875 L 1073.464844 252.25 L 896.097656 335.066406 Z M 809.15625 148.863281 " clip-rule="nonzero"/></clipPath><clipPath id="id16"><path d="M 877 238 L 1031 238 L 1031 303 L 877 303 Z M 877 238 " clip-rule="nonzero"/></clipPath><clipPath id="id17"><path d="M 809.15625 148.863281 L 986.527344 66.046875 L 1073.464844 252.25 L 896.097656 335.066406 Z M 809.15625 148.863281 " clip-rule="nonzero"/></clipPath><clipPath id="id18"><path d="M 809.15625 148.863281 L 986.527344 66.046875 L 1073.464844 252.25 L 896.097656 335.066406 Z M 809.15625 148.863281 " clip-rule="nonzero"/></clipPath><clipPath id="id19"><path d="M 897 153 L 1000 153 L 1000 265 L 897 265 Z M 897 153 " clip-rule="nonzero"/></clipPath><clipPath id="id20"><path d="M 898.203125 151.367188 L 1000.820312 156.589844 L 995.175781 267.445312 L 892.558594 262.222656 Z M 898.203125 151.367188 " clip-rule="nonzero"/></clipPath><clipPath id="id21"><path d="M 898.203125 151.367188 L 1000.820312 156.589844 L 995.175781 267.445312 L 892.558594 262.222656 Z M 898.203125 151.367188 " clip-rule="nonzero"/></clipPath><clipPath id="id22"><path d="M 933 194 L 961 194 L 961 217 L 933 217 Z M 933 194 " clip-rule="nonzero"/></clipPath><clipPath id="id23"><path d="M 898.203125 151.367188 L 1000.820312 156.589844 L 995.175781 267.445312 L 892.558594 262.222656 Z M 898.203125 151.367188 " clip-rule="nonzero"/></clipPath><clipPath id="id24"><path d="M 898.203125 151.367188 L 1000.820312 156.589844 L 995.175781 267.445312 L 892.558594 262.222656 Z M 898.203125 151.367188 " clip-rule="nonzero"/></clipPath><clipPath id="id25"><path d="M 714 294 L 809 294 L 809 462 L 714 462 Z M 714 294 " clip-rule="nonzero"/></clipPath><clipPath id="id26"><path d="M 569.179688 294.113281 L 790.925781 266.1875 L 820.257812 499.097656 L 598.511719 527.023438 Z M 569.179688 294.113281 " clip-rule="nonzero"/></clipPath><clipPath id="id27"><path d="M 569.179688 294.113281 L 790.925781 266.1875 L 820.257812 499.097656 L 598.511719 527.023438 Z M 569.179688 294.113281 " clip-rule="nonzero"/></clipPath><clipPath id="id28"><path d="M 583 281 L 702 281 L 702 437 L 583 437 Z M 583 281 " clip-rule="nonzero"/></clipPath><clipPath id="id29"><path d="M 569.179688 294.113281 L 790.925781 266.1875 L 820.257812 499.097656 L 598.511719 527.023438 Z M 569.179688 294.113281 " clip-rule="nonzero"/></clipPath><clipPath id="id30"><path d="M 569.179688 294.113281 L 790.925781 266.1875 L 820.257812 499.097656 L 598.511719 527.023438 Z M 569.179688 294.113281 " clip-rule="nonzero"/></clipPath><clipPath id="id31"><path d="M 599 447 L 776 447 L 776 514 L 599 514 Z M 599 447 " clip-rule="nonzero"/></clipPath><clipPath id="id32"><path d="M 569.179688 294.113281 L 790.925781 266.1875 L 820.257812 499.097656 L 598.511719 527.023438 Z M 569.179688 294.113281 " clip-rule="nonzero"/></clipPath><clipPath id="id33"><path d="M 569.179688 294.113281 L 790.925781 266.1875 L 820.257812 499.097656 L 598.511719 527.023438 Z M 569.179688 294.113281 " clip-rule="nonzero"/></clipPath><clipPath id="id34"><path d="M 665 379 L 692 379 L 692 385 L 665 385 Z M 665 379 " clip-rule="nonzero"/></clipPath><clipPath id="id35"><path d="M 627.070312 347.710938 L 743.152344 333.089844 L 758.054688 451.40625 L 641.96875 466.027344 Z M 627.070312 347.710938 " clip-rule="nonzero"/></clipPath><clipPath id="id36"><path d="M 627.070312 347.710938 L 743.152344 333.089844 L 758.054688 451.40625 L 641.96875 466.027344 Z M 627.070312 347.710938 " clip-rule="nonzero"/></clipPath><clipPath id="id37"><path d="M 651 383 L 661 383 L 661 387 L 651 387 Z M 651 383 " clip-rule="nonzero"/></clipPath><clipPath id="id38"><path d="M 627.070312 347.710938 L 743.152344 333.089844 L 758.054688 451.40625 L 641.96875 466.027344 Z M 627.070312 347.710938 " clip-rule="nonzero"/></clipPath><clipPath id="id39"><path d="M 627.070312 347.710938 L 743.152344 333.089844 L 758.054688 451.40625 L 641.96875 466.027344 Z M 627.070312 347.710938 " clip-rule="nonzero"/></clipPath><clipPath id="id40"><path d="M 689 375 L 700 375 L 700 385 L 689 385 Z M 689 375 " clip-rule="nonzero"/></clipPath><clipPath id="id41"><path d="M 627.070312 347.710938 L 743.152344 333.089844 L 758.054688 451.40625 L 641.96875 466.027344 Z M 627.070312 347.710938 " clip-rule="nonzero"/></clipPath><clipPath id="id42"><path d="M 627.070312 347.710938 L 743.152344 333.089844 L 758.054688 451.40625 L 641.96875 466.027344 Z M 627.070312 347.710938 " clip-rule="nonzero"/></clipPath><clipPath id="id43"><path d="M 690 340 L 696 340 L 696 378 L 690 378 Z M 690 340 " clip-rule="nonzero"/></clipPath><clipPath id="id44"><path d="M 627.070312 347.710938 L 743.152344 333.089844 L 758.054688 451.40625 L 641.96875 466.027344 Z M 627.070312 347.710938 " clip-rule="nonzero"/></clipPath><clipPath id="id45"><path d="M 627.070312 347.710938 L 743.152344 333.089844 L 758.054688 451.40625 L 641.96875 466.027344 Z M 627.070312 347.710938 " clip-rule="nonzero"/></clipPath><clipPath id="id46"><path d="M 690 340 L 745 340 L 745 381 L 690 381 Z M 690 340 " clip-rule="nonzero"/></clipPath><clipPath id="id47"><path d="M 627.070312 347.710938 L 743.152344 333.089844 L 758.054688 451.40625 L 641.96875 466.027344 Z M 627.070312 347.710938 " clip-rule="nonzero"/></clipPath><clipPath id="id48"><path d="M 627.070312 347.710938 L 743.152344 333.089844 L 758.054688 451.40625 L 641.96875 466.027344 Z M 627.070312 347.710938 " clip-rule="nonzero"/></clipPath><clipPath id="id49"><path d="M 695 341 L 712 341 L 712 378 L 695 378 Z M 695 341 " clip-rule="nonzero"/></clipPath><clipPath id="id50"><path d="M 627.070312 347.710938 L 743.152344 333.089844 L 758.054688 451.40625 L 641.96875 466.027344 Z M 627.070312 347.710938 " clip-rule="nonzero"/></clipPath><clipPath id="id51"><path d="M 627.070312 347.710938 L 743.152344 333.089844 L 758.054688 451.40625 L 641.96875 466.027344 Z M 627.070312 347.710938 " clip-rule="nonzero"/></clipPath><clipPath id="id52"><path d="M 695 348 L 726 348 L 726 380 L 695 380 Z M 695 348 " clip-rule="nonzero"/></clipPath><clipPath id="id53"><path d="M 627.070312 347.710938 L 743.152344 333.089844 L 758.054688 451.40625 L 641.96875 466.027344 Z M 627.070312 347.710938 " clip-rule="nonzero"/></clipPath><clipPath id="id54"><path d="M 627.070312 347.710938 L 743.152344 333.089844 L 758.054688 451.40625 L 641.96875 466.027344 Z M 627.070312 347.710938 " clip-rule="nonzero"/></clipPath><clipPath id="id55"><path d="M 696 358 L 738 358 L 738 381 L 696 381 Z M 696 358 " clip-rule="nonzero"/></clipPath><clipPath id="id56"><path d="M 627.070312 347.710938 L 743.152344 333.089844 L 758.054688 451.40625 L 641.96875 466.027344 Z M 627.070312 347.710938 " clip-rule="nonzero"/></clipPath><clipPath id="id57"><path d="M 627.070312 347.710938 L 743.152344 333.089844 L 758.054688 451.40625 L 641.96875 466.027344 Z M 627.070312 347.710938 " clip-rule="nonzero"/></clipPath><clipPath id="id58"><path d="M 708 372 L 745 372 L 745 419 L 708 419 Z M 708 372 " clip-rule="nonzero"/></clipPath><clipPath id="id59"><path d="M 627.070312 347.710938 L 743.152344 333.089844 L 758.054688 451.40625 L 641.96875 466.027344 Z M 627.070312 347.710938 " clip-rule="nonzero"/></clipPath><clipPath id="id60"><path d="M 627.070312 347.710938 L 743.152344 333.089844 L 758.054688 451.40625 L 641.96875 466.027344 Z M 627.070312 347.710938 " clip-rule="nonzero"/></clipPath><clipPath id="id61"><path d="M 691 417 L 704 417 L 704 421 L 691 421 Z M 691 417 " clip-rule="nonzero"/></clipPath><clipPath id="id62"><path d="M 627.070312 347.710938 L 743.152344 333.089844 L 758.054688 451.40625 L 641.96875 466.027344 Z M 627.070312 347.710938 " clip-rule="nonzero"/></clipPath><clipPath id="id63"><path d="M 627.070312 347.710938 L 743.152344 333.089844 L 758.054688 451.40625 L 641.96875 466.027344 Z M 627.070312 347.710938 " clip-rule="nonzero"/></clipPath><clipPath id="id64"><path d="M 651 384 L 687 384 L 687 421 L 651 421 Z M 651 384 " clip-rule="nonzero"/></clipPath><clipPath id="id65"><path d="M 627.070312 347.710938 L 743.152344 333.089844 L 758.054688 451.40625 L 641.96875 466.027344 Z M 627.070312 347.710938 " clip-rule="nonzero"/></clipPath><clipPath id="id66"><path d="M 627.070312 347.710938 L 743.152344 333.089844 L 758.054688 451.40625 L 641.96875 466.027344 Z M 627.070312 347.710938 " clip-rule="nonzero"/></clipPath><clipPath id="id67"><path d="M 637 365 L 721 365 L 721 434 L 637 434 Z M 637 365 " clip-rule="nonzero"/></clipPath><clipPath id="id68"><path d="M 627.070312 347.710938 L 743.152344 333.089844 L 758.054688 451.40625 L 641.96875 466.027344 Z M 627.070312 347.710938 " clip-rule="nonzero"/></clipPath><clipPath id="id69"><path d="M 627.070312 347.710938 L 743.152344 333.089844 L 758.054688 451.40625 L 641.96875 466.027344 Z M 627.070312 347.710938 " clip-rule="nonzero"/></clipPath><clipPath id="id70"><path d="M 640 361 L 725 361 L 725 431 L 640 431 Z M 640 361 " clip-rule="nonzero"/></clipPath><clipPath id="id71"><path d="M 627.070312 347.710938 L 743.152344 333.089844 L 758.054688 451.40625 L 641.96875 466.027344 Z M 627.070312 347.710938 " clip-rule="nonzero"/></clipPath><clipPath id="id72"><path d="M 627.070312 347.710938 L 743.152344 333.089844 L 758.054688 451.40625 L 641.96875 466.027344 Z M 627.070312 347.710938 " clip-rule="nonzero"/></clipPath><clipPath id="id73"><path d="M 716 422 L 750 422 L 750 454 L 716 454 Z M 716 422 " clip-rule="nonzero"/></clipPath><clipPath id="id74"><path d="M 627.070312 347.710938 L 743.152344 333.089844 L 758.054688 451.40625 L 641.96875 466.027344 Z M 627.070312 347.710938 " clip-rule="nonzero"/></clipPath><clipPath id="id75"><path d="M 627.070312 347.710938 L 743.152344 333.089844 L 758.054688 451.40625 L 641.96875 466.027344 Z M 627.070312 347.710938 " clip-rule="nonzero"/></clipPath><clipPath id="id76"><path d="M 725 431 L 741 431 L 741 446 L 725 446 Z M 725 431 " clip-rule="nonzero"/></clipPath><clipPath id="id77"><path d="M 627.070312 347.710938 L 743.152344 333.089844 L 758.054688 451.40625 L 641.96875 466.027344 Z M 627.070312 347.710938 " clip-rule="nonzero"/></clipPath><clipPath id="id78"><path d="M 627.070312 347.710938 L 743.152344 333.089844 L 758.054688 451.40625 L 641.96875 466.027344 Z M 627.070312 347.710938 " clip-rule="nonzero"/></clipPath><clipPath id="id79"><path d="M 630 356 L 643 356 L 643 369 L 630 369 Z M 630 356 " clip-rule="nonzero"/></clipPath><clipPath id="id80"><path d="M 627.070312 347.710938 L 743.152344 333.089844 L 758.054688 451.40625 L 641.96875 466.027344 Z M 627.070312 347.710938 " clip-rule="nonzero"/></clipPath><clipPath id="id81"><path d="M 627.070312 347.710938 L 743.152344 333.089844 L 758.054688 451.40625 L 641.96875 466.027344 Z M 627.070312 347.710938 " clip-rule="nonzero"/></clipPath><clipPath id="id82"><path d="M 657 430 L 691 430 L 691 461 L 657 461 Z M 657 430 " clip-rule="nonzero"/></clipPath><clipPath id="id83"><path d="M 627.070312 347.710938 L 743.152344 333.089844 L 758.054688 451.40625 L 641.96875 466.027344 Z M 627.070312 347.710938 " clip-rule="nonzero"/></clipPath><clipPath id="id84"><path d="M 627.070312 347.710938 L 743.152344 333.089844 L 758.054688 451.40625 L 641.96875 466.027344 Z M 627.070312 347.710938 " clip-rule="nonzero"/></clipPath><clipPath id="id85"><path d="M 666 438 L 682 438 L 682 453 L 666 453 Z M 666 438 " clip-rule="nonzero"/></clipPath><clipPath id="id86"><path d="M 627.070312 347.710938 L 743.152344 333.089844 L 758.054688 451.40625 L 641.96875 466.027344 Z M 627.070312 347.710938 " clip-rule="nonzero"/></clipPath><clipPath id="id87"><path d="M 627.070312 347.710938 L 743.152344 333.089844 L 758.054688 451.40625 L 641.96875 466.027344 Z M 627.070312 347.710938 " clip-rule="nonzero"/></clipPath><clipPath id="id88"><path d="M 676 408 L 693 408 L 693 434 L 676 434 Z M 676 408 " clip-rule="nonzero"/></clipPath><clipPath id="id89"><path d="M 627.070312 347.710938 L 743.152344 333.089844 L 758.054688 451.40625 L 641.96875 466.027344 Z M 627.070312 347.710938 " clip-rule="nonzero"/></clipPath><clipPath id="id90"><path d="M 627.070312 347.710938 L 743.152344 333.089844 L 758.054688 451.40625 L 641.96875 466.027344 Z M 627.070312 347.710938 " clip-rule="nonzero"/></clipPath><clipPath id="id91"><path d="M 682 412 L 698 412 L 698 436 L 682 436 Z M 682 412 " clip-rule="nonzero"/></clipPath><clipPath id="id92"><path d="M 627.070312 347.710938 L 743.152344 333.089844 L 758.054688 451.40625 L 641.96875 466.027344 Z M 627.070312 347.710938 " clip-rule="nonzero"/></clipPath><clipPath id="id93"><path d="M 627.070312 347.710938 L 743.152344 333.089844 L 758.054688 451.40625 L 641.96875 466.027344 Z M 627.070312 347.710938 " clip-rule="nonzero"/></clipPath><clipPath id="id94"><path d="M 902 454 L 1076 454 L 1076 585 L 902 585 Z M 902 454 " clip-rule="nonzero"/></clipPath><clipPath id="id95"><path d="M 913.570312 438.199219 L 1077.03125 454.289062 L 1063.734375 589.382812 L 900.273438 573.292969 Z M 913.570312 438.199219 " clip-rule="nonzero"/></clipPath><clipPath id="id96"><path d="M 913.570312 438.199219 L 1077.03125 454.289062 L 1063.734375 589.382812 L 900.273438 573.292969 Z M 913.570312 438.199219 " clip-rule="nonzero"/></clipPath></defs><g clip-path="url(#id1)"><g clip-path="url(#id2)"><g clip-path="url(#id3)"><path fill="#6dcb83" d="M 1100.640625 404.035156 L 1094.042969 410.835938 C 1077.105469 394.8125 1056.382812 383.097656 1033.777344 376.828125 C 1003.875 368.53125 972.792969 370.023438 943.894531 381.148438 C 919.816406 390.417969 899.035156 405.625 883.140625 425.496094 C 878.601562 431.175781 879.988281 439.550781 886.054688 443.546875 C 891.390625 447.0625 898.527344 445.941406 902.527344 440.949219 C 915.675781 424.539062 932.855469 411.976562 952.773438 404.3125 C 976.675781 395.109375 1002.394531 393.875 1027.144531 400.742188 C 1045.742188 405.902344 1062.796875 415.511719 1076.757812 428.640625 L 1070.203125 435.390625 C 1068.199219 437.457031 1069.546875 440.921875 1072.414062 441.089844 L 1105.707031 443 C 1107.746094 443.117188 1109.421875 441.394531 1109.246094 439.355469 L 1106.394531 406.085938 C 1106.148438 403.21875 1102.648438 401.96875 1100.640625 404.035156 " fill-opacity="1" fill-rule="nonzero"/></g></g></g><g clip-path="url(#id4)"><g clip-path="url(#id5)"><g clip-path="url(#id6)"><path fill="#6dcb83" d="M 987.527344 646.34375 L 987.527344 646.339844 C 987.914062 639.964844 983.402344 634.328125 977.097656 633.351562 C 972.488281 632.636719 967.917969 631.652344 963.421875 630.40625 C 932.796875 621.910156 907.320312 601.976562 891.679688 574.277344 C 877.246094 548.714844 872.800781 519.359375 878.894531 490.871094 L 887.648438 493.308594 C 890.417969 494.078125 892.8125 491.234375 891.582031 488.628906 L 877.324219 458.457031 C 876.453125 456.605469 874.140625 455.960938 872.4375 457.097656 L 844.644531 475.570312 C 842.246094 477.160156 842.828125 480.835938 845.597656 481.609375 L 854.972656 484.21875 C 847.128906 519.109375 852.410156 555.164062 870.105469 586.503906 C 889 619.96875 919.78125 644.054688 956.785156 654.320312 C 962.183594 655.820312 967.671875 657 973.207031 657.863281 C 980.441406 658.988281 987.089844 653.660156 987.527344 646.34375 " fill-opacity="1" fill-rule="nonzero"/></g></g></g><g clip-path="url(#id7)"><g clip-path="url(#id8)"><g clip-path="url(#id9)"><path fill="#6dcb83" d="M 1106.21875 472.351562 C 1115.492188 496.214844 1116.851562 522.464844 1109.9375 547.386719 C 1104.246094 567.902344 1093.195312 586.515625 1077.984375 601.214844 C 1064.703125 614.046875 1048.558594 623.636719 1031.003906 629.203125 L 1028.554688 619.90625 C 1027.824219 617.121094 1024.160156 616.492188 1022.539062 618.871094 L 1003.722656 646.453125 C 1002.570312 648.140625 1003.179688 650.464844 1005.015625 651.363281 L 1034.957031 666.042969 C 1037.539062 667.304688 1040.414062 664.945312 1039.679688 662.164062 L 1037.328125 653.230469 C 1058.964844 646.5625 1078.863281 634.835938 1095.183594 619.066406 C 1113.578125 601.292969 1126.9375 578.796875 1133.816406 554.011719 C 1142.15625 523.949219 1140.53125 492.285156 1129.371094 463.488281 C 1126.71875 456.644531 1118.796875 453.539062 1112.242188 456.832031 C 1106.550781 459.691406 1103.90625 466.414062 1106.21875 472.351562 " fill-opacity="1" fill-rule="nonzero"/></g></g></g><g clip-path="url(#id10)"><g clip-path="url(#id11)"><g clip-path="url(#id12)"><path fill="#6dcb83" d="M 1047.53125 210.148438 L 1041.097656 209.734375 C 1041.875 193.871094 1038.753906 177.953125 1031.992188 163.464844 C 1023.042969 144.300781 1008.515625 128.855469 989.984375 118.796875 C 974.542969 110.414062 957.496094 106.371094 940.199219 106.925781 C 935.257812 107.082031 931.546875 111.503906 932.167969 116.414062 C 932.714844 120.734375 936.449219 123.9375 940.800781 123.804688 C 955.089844 123.359375 969.179688 126.707031 981.953125 133.640625 C 997.28125 141.957031 1009.300781 154.742188 1016.707031 170.601562 C 1022.269531 182.523438 1024.859375 195.609375 1024.257812 208.648438 L 1017.871094 208.238281 C 1015.917969 208.113281 1014.722656 210.34375 1015.90625 211.90625 L 1029.652344 230.003906 C 1030.496094 231.113281 1032.125 231.21875 1033.101562 230.222656 L 1049.015625 214.035156 C 1050.386719 212.640625 1049.484375 210.273438 1047.53125 210.148438 " fill-opacity="1" fill-rule="nonzero"/></g></g></g><g clip-path="url(#id13)"><g clip-path="url(#id14)"><g clip-path="url(#id15)"><path fill="#6dcb83" d="M 872.359375 258.679688 C 875.820312 256.058594 876.738281 251.226562 874.449219 247.527344 C 872.78125 244.824219 871.265625 242.019531 869.917969 239.140625 C 860.753906 219.511719 859.773438 197.492188 867.15625 177.140625 C 873.96875 158.355469 887.15625 143.070312 904.5625 133.632812 L 907.179688 139.246094 C 908.007812 141.019531 910.535156 141.003906 911.335938 139.214844 L 920.609375 118.484375 C 921.175781 117.214844 920.484375 115.730469 919.144531 115.347656 L 897.308594 109.117188 C 895.425781 108.578125 893.785156 110.503906 894.613281 112.277344 L 897.414062 118.292969 C 875.925781 129.65625 859.648438 148.335938 851.292969 171.367188 C 842.375 195.957031 843.5625 222.558594 854.632812 246.277344 C 856.25 249.734375 858.066406 253.101562 860.074219 256.351562 C 862.691406 260.597656 868.386719 261.6875 872.359375 258.679688 " fill-opacity="1" fill-rule="nonzero"/></g></g></g><g clip-path="url(#id16)"><g clip-path="url(#id17)"><g clip-path="url(#id18)"><path fill="#6dcb83" d="M 1014.722656 243.246094 C 1006.503906 258.605469 993.550781 270.917969 977.625 278.355469 C 964.511719 284.476562 950.011719 286.984375 935.6875 285.597656 C 923.1875 284.390625 911.089844 280.265625 900.449219 273.628906 L 904.164062 268.25 C 905.277344 266.640625 903.984375 264.460938 902.039062 264.675781 L 879.46875 267.117188 C 878.085938 267.269531 877.15625 268.613281 877.503906 269.960938 L 883.175781 291.96875 C 883.664062 293.867188 886.15625 294.3125 887.269531 292.703125 L 890.839844 287.53125 C 903.855469 295.796875 918.71875 300.921875 934.082031 302.40625 C 951.402344 304.082031 968.929688 301.054688 984.769531 293.660156 C 1003.984375 284.6875 1019.613281 269.84375 1029.546875 251.324219 C 1031.90625 246.925781 1030.003906 241.445312 1025.402344 239.503906 C 1021.40625 237.820312 1016.765625 239.425781 1014.722656 243.246094 " fill-opacity="1" fill-rule="nonzero"/></g></g></g><g clip-path="url(#id19)"><g clip-path="url(#id20)"><g clip-path="url(#id21)"><path fill="#c9e265" d="M 999.390625 170.957031 C 999.097656 170.101562 998.460938 169.398438 997.144531 168.828125 C 992.21875 166.5625 987.304688 164.128906 982.210938 161.855469 C 977.285156 159.589844 971.65625 157.960938 966.921875 155.199219 C 966.261719 155 965.609375 154.628906 964.921875 154.929688 C 964.066406 155.222656 963.511719 156.203125 963.132812 157.023438 C 960.5 162.597656 954.261719 166.308594 948.226562 166 C 942.027344 165.6875 936.375 161.199219 934.496094 155.230469 C 934.351562 154.71875 934.210938 154.207031 933.714844 154.015625 C 933.390625 153.828125 932.878906 153.972656 932.535156 154.121094 C 921.453125 157.25 910.363281 160.546875 899.269531 164.011719 C 898.757812 164.15625 898.070312 164.457031 897.875 164.949219 C 897.691406 165.277344 897.839844 165.617188 897.816406 166.121094 C 899.300781 173.25 900.796875 180.207031 902.449219 187.34375 C 903.140625 190.234375 905.0625 188.820312 906.9375 188.242188 C 909.503906 187.367188 912.386719 186.84375 915.109375 186.140625 C 914.257812 186.433594 913.550781 196.976562 913.484375 198.316406 C 912.917969 202.820312 912.519531 207.332031 912.289062 211.851562 C 911.679688 220.550781 911.5625 229.445312 911.789062 238.1875 C 911.765625 238.6875 911.90625 239.199219 912.046875 239.710938 C 912.667969 240.75 914.828125 241.195312 915.808594 241.75 C 919.410156 243.609375 922.449219 246.621094 924.105469 250.398438 C 925.769531 254.007812 926.234375 258.0625 926.878906 261.957031 C 927.546875 265.347656 934.148438 264.339844 936.664062 264.46875 C 938.339844 264.554688 958.808594 265.089844 958.835938 264.589844 C 958.714844 260.386719 958.917969 256.367188 961.617188 252.8125 C 963.421875 250.382812 966.171875 249.179688 969.070312 248.320312 C 971.636719 247.445312 975.015625 247.113281 975.839844 244.132812 C 976.460938 241.8125 975.941406 238.765625 975.886719 236.578125 C 976.671875 221.175781 977.109375 205.917969 979.570312 190.597656 C 982 192.398438 984.621094 193.707031 987.4375 194.523438 C 988.097656 194.726562 988.757812 194.925781 989.4375 194.792969 C 992.320312 194.269531 994.664062 187.839844 995.789062 185.546875 C 997.503906 181.605469 998.890625 177.476562 999.445312 173.140625 C 999.503906 171.96875 999.53125 171.464844 999.390625 170.957031 Z M 988.550781 192.398438 C 986.761719 191.300781 984.792969 190.359375 982.816406 189.585938 C 981.003906 188.824219 980.007812 188.605469 978.484375 188.863281 C 978.316406 188.855469 978.140625 189.015625 977.953125 189.339844 C 973.726562 206.417969 971.875 226.300781 974.003906 243.871094 C 968.925781 244.621094 962.90625 247.335938 959.675781 251.367188 C 957.519531 254.113281 956.132812 258.238281 957.136719 261.648438 C 953.371094 262.96875 946.386719 261.605469 942.363281 261.402344 C 937.996094 261.347656 933.480469 260.949219 929.089844 261.394531 C 928.203125 252.453125 924.988281 239.699219 914.453125 238.65625 C 914.117188 238.640625 916.390625 210.550781 916.515625 208.039062 C 916.78125 202.847656 917.054688 197.488281 917.152344 192.289062 C 917.234375 190.613281 917.960938 186.285156 917.015625 185.0625 C 915.441406 182.96875 911.785156 185.46875 910.074219 186.054688 C 908.542969 186.476562 907.015625 186.738281 905.472656 187.328125 C 906.839844 186.894531 901.710938 168.839844 900.464844 166.929688 C 906.386719 166.054688 912.222656 163.664062 917.855469 161.9375 C 922.808594 160.34375 928.089844 158.933594 932.902344 156.828125 C 933.308594 171.957031 964.152344 173.359375 966 156.832031 C 974.894531 163.664062 986.796875 167.460938 997.167969 171.683594 C 997.660156 171.875 994.292969 181.945312 993.90625 182.933594 C 992.402344 186.046875 990.882812 189.496094 988.550781 192.398438 Z M 988.550781 192.398438 " fill-opacity="1" fill-rule="nonzero"/></g></g></g><g clip-path="url(#id22)"><g clip-path="url(#id23)"><g clip-path="url(#id24)"><path fill="#c9e265" d="M 959.488281 198.976562 C 957.335938 195.007812 950.113281 194.972656 947.253906 198.355469 C 946.5 196.636719 944.882812 195.378906 942.722656 194.933594 C 938.566406 194.050781 934.089844 196.171875 933.523438 200.679688 C 933.222656 203.347656 934.628906 205.433594 936.367188 207.539062 C 938.90625 210.519531 945.222656 218.398438 949.71875 215.941406 C 954.722656 213.339844 963.015625 205.535156 959.488281 198.976562 Z M 935.785156 202.472656 C 935.644531 201.960938 935.511719 201.28125 935.703125 200.789062 C 935.921875 199.792969 936.980469 198.839844 938.019531 198.21875 C 937.28125 199.527344 936.535156 201 935.785156 202.472656 Z M 936.707031 204.199219 C 937.832031 201.90625 938.949219 199.777344 940.238281 197.492188 C 940.238281 197.492188 940.238281 197.492188 940.25 197.328125 C 940.25 197.328125 940.417969 197.335938 940.417969 197.335938 C 940.582031 197.34375 940.917969 197.359375 941.253906 197.378906 C 939.953125 199.828125 938.644531 202.449219 937.34375 204.902344 C 937.015625 204.71875 936.867188 204.375 936.707031 204.199219 Z M 938.757812 206.820312 C 938.597656 206.644531 938.269531 206.460938 938.121094 206.117188 C 939.4375 203.328125 940.925781 200.550781 942.402344 197.941406 C 942.726562 198.125 942.886719 198.300781 943.214844 198.484375 C 941.726562 201.261719 940.242188 204.042969 938.757812 206.820312 Z M 939.878906 207.882812 C 941.363281 205.105469 942.851562 202.328125 944.34375 199.382812 C 944.664062 199.734375 944.820312 199.910156 944.972656 200.253906 C 943.652344 203.039062 941.84375 205.632812 940.84375 208.773438 C 940.691406 208.429688 940.195312 208.238281 939.878906 207.882812 Z M 941.964844 209.835938 C 942.140625 209.679688 942.140625 209.679688 942.316406 209.519531 C 943.121094 206.875 944.589844 204.429688 945.890625 201.980469 C 946.21875 202.164062 946.722656 202.1875 946.898438 202.03125 C 945.414062 204.808594 943.925781 207.585938 942.441406 210.367188 C 942.457031 210.03125 942.132812 209.847656 941.964844 209.835938 Z M 943.746094 211.105469 C 945.609375 207.503906 947.640625 203.914062 949.515625 200.148438 C 949.691406 199.988281 949.699219 199.820312 949.539062 199.644531 C 950.234375 199.179688 950.921875 198.878906 951.945312 198.59375 C 949.863281 203.1875 946.800781 207.230469 944.558594 211.648438 C 944.226562 211.632812 944.074219 211.289062 943.746094 211.105469 Z M 945.683594 212.714844 C 948.117188 207.800781 951.363281 203.433594 953.628906 198.511719 C 953.964844 198.527344 954.46875 198.554688 954.792969 198.738281 C 952.191406 203.644531 949.421875 208.539062 946.335938 213.082031 C 946 213.066406 945.839844 212.890625 945.683594 212.714844 Z M 947.792969 214.164062 C 947.792969 214.164062 947.617188 214.324219 947.617188 214.324219 C 947.449219 214.3125 947.457031 214.148438 947.289062 214.136719 C 950.386719 209.425781 953.324219 204.539062 955.933594 199.46875 C 956.261719 199.652344 956.578125 200.003906 956.726562 200.347656 C 954.6875 204.105469 952.816406 207.871094 950.777344 211.628906 C 949.738281 212.246094 948.679688 213.203125 947.792969 214.164062 Z M 957.363281 204.410156 C 956.597656 206.21875 955.347656 207.664062 953.9375 208.9375 C 955.230469 206.652344 956.363281 204.191406 957.65625 201.90625 C 957.78125 202.75 957.570312 203.582031 957.363281 204.410156 Z M 957.363281 204.410156 " fill-opacity="1" fill-rule="nonzero"/></g></g></g><g clip-path="url(#id25)"><g clip-path="url(#id26)"><g clip-path="url(#id27)"><path fill="#6dcb83" d="M 806.804688 444.234375 L 799.960938 441.53125 C 806.355469 424.558594 808.53125 406.152344 806.25 388.03125 C 803.230469 364.058594 792.851562 342.175781 776.230469 324.753906 C 762.378906 310.230469 745.265625 299.863281 726.277344 294.40625 C 720.847656 292.847656 715.269531 296.355469 714.226562 301.914062 C 713.304688 306.800781 716.246094 311.59375 721.019531 312.96875 C 736.710938 317.492188 750.851562 326.066406 762.304688 338.078125 C 776.054688 352.492188 784.644531 370.597656 787.140625 390.441406 C 789.019531 405.351562 787.25 420.484375 782.035156 434.453125 L 775.238281 431.769531 C 773.15625 430.949219 771.078125 432.957031 771.820312 435.066406 L 780.425781 459.558594 C 780.953125 461.0625 782.6875 461.746094 784.097656 461.007812 L 807.058594 448.980469 C 809.039062 447.941406 808.882812 445.054688 806.804688 444.234375 " fill-opacity="1" fill-rule="nonzero"/></g></g></g><g clip-path="url(#id28)"><g clip-path="url(#id29)"><g clip-path="url(#id30)"><path fill="#6dcb83" d="M 599.441406 435.652344 C 604.121094 434.015625 606.804688 429.082031 605.617188 424.261719 C 604.746094 420.734375 604.082031 417.15625 603.628906 413.550781 C 600.535156 389 607.171875 364.714844 622.316406 345.171875 C 636.296875 327.132812 655.980469 315.132812 678.199219 310.964844 L 679.078125 317.984375 C 679.355469 320.207031 682.109375 321.070312 683.605469 319.410156 L 700.9375 300.113281 C 702 298.929688 701.769531 297.078125 700.445312 296.195312 L 678.894531 281.765625 C 677.035156 280.523438 674.578125 282.042969 674.855469 284.261719 L 675.796875 291.78125 C 648.46875 296.613281 624.238281 311.222656 607.101562 333.335938 C 588.800781 356.949219 580.78125 386.292969 584.519531 415.957031 C 585.0625 420.285156 585.859375 424.582031 586.902344 428.816406 C 588.265625 434.351562 594.070312 437.53125 599.441406 435.652344 " fill-opacity="1" fill-rule="nonzero"/></g></g></g><g clip-path="url(#id31)"><g clip-path="url(#id32)"><g clip-path="url(#id33)"><path fill="#6dcb83" d="M 759.566406 468.730469 C 745.257812 482.554688 726.875 491.40625 706.960938 493.914062 C 690.566406 495.976562 673.929688 493.621094 658.851562 487.101562 C 645.683594 481.410156 633.980469 472.6875 624.738281 461.746094 L 630.660156 457.199219 C 632.433594 455.835938 631.789062 453.015625 629.597656 452.566406 L 604.214844 447.320312 C 602.65625 446.996094 601.179688 448.132812 601.085938 449.722656 L 599.546875 475.636719 C 599.414062 477.871094 601.964844 479.226562 603.738281 477.867188 L 609.429688 473.496094 C 620.683594 487.042969 635.042969 497.820312 651.222656 504.816406 C 669.460938 512.699219 689.566406 515.550781 709.371094 513.054688 C 733.394531 510.03125 755.574219 499.363281 772.847656 482.707031 C 776.953125 478.75 776.804688 472.125 772.480469 468.402344 C 768.730469 465.171875 763.125 465.292969 759.566406 468.730469 " fill-opacity="1" fill-rule="nonzero"/></g></g></g><g clip-path="url(#id34)"><g clip-path="url(#id35)"><g clip-path="url(#id36)"><path fill="#b6cd5d" d="M 667.042969 384.71875 C 674.847656 383.734375 682.78125 382.734375 690.566406 381.625 C 692.257812 381.410156 691.929688 378.816406 690.242188 379.027344 C 682.4375 380.011719 674.503906 381.011719 666.714844 382.121094 C 665.027344 382.335938 665.351562 384.929688 667.042969 384.71875 Z M 667.042969 384.71875 " fill-opacity="1" fill-rule="nonzero"/></g></g></g><g clip-path="url(#id37)"><g clip-path="url(#id38)"><g clip-path="url(#id39)"><path fill="#b6cd5d" d="M 653.144531 386.601562 C 655.226562 386.335938 657.304688 386.074219 659.371094 385.683594 C 661.0625 385.472656 660.734375 382.875 659.042969 383.089844 C 656.960938 383.351562 654.882812 383.613281 652.816406 384.003906 C 651.125 384.21875 651.453125 386.8125 653.144531 386.601562 Z M 653.144531 386.601562 " fill-opacity="1" fill-rule="nonzero"/></g></g></g><g clip-path="url(#id40)"><g clip-path="url(#id41)"><g clip-path="url(#id42)"><path fill="#b6cd5d" d="M 693.472656 375.328125 C 691.148438 375.75 689.230469 377.3125 689.136719 379.695312 C 689.105469 382.597656 691.902344 384.882812 694.648438 384.667969 C 697.265625 384.46875 699.605469 382.066406 698.988281 379.246094 C 698.53125 376.667969 696.089844 375.128906 693.472656 375.328125 C 691.765625 375.410156 692.09375 378.003906 693.800781 377.921875 C 696.808594 377.675781 697.625 382.050781 694.324219 382.074219 C 691.414062 382.042969 690.957031 378.410156 693.800781 377.921875 C 695.476562 377.578125 695.148438 374.984375 693.472656 375.328125 Z M 693.472656 375.328125 " fill-opacity="1" fill-rule="nonzero"/></g></g></g><g clip-path="url(#id43)"><g clip-path="url(#id44)"><g clip-path="url(#id45)"><path fill="#b6cd5d" d="M 690.445312 341.839844 C 691.738281 353.140625 692.703125 365.011719 692.417969 376.382812 C 692.371094 378.101562 694.921875 378.4375 694.96875 376.71875 C 695.351562 365.074219 694.355469 352.945312 693.03125 341.382812 C 692.832031 339.824219 690.234375 340.152344 690.445312 341.839844 Z M 690.445312 341.839844 " fill-opacity="1" fill-rule="nonzero"/></g></g></g><g clip-path="url(#id46)"><g clip-path="url(#id47)"><g clip-path="url(#id48)"><path fill="#b6cd5d" d="M 691.242188 342.925781 C 696.054688 345.480469 700.640625 345.167969 705.890625 344.902344 C 709.957031 344.652344 711.828125 345.867188 715.210938 347.550781 C 717.875 348.796875 720.738281 349.488281 723.292969 350.878906 C 727.570312 353.371094 733.6875 358.929688 736.078125 363.238281 C 738.144531 367.066406 739.855469 371.199219 742.035156 374.878906 C 742.34375 374.179688 742.652344 373.480469 742.960938 372.785156 C 727.957031 374.277344 712.871094 376.179688 697.914062 378.0625 C 696.222656 378.273438 696.550781 380.871094 698.242188 380.65625 C 713.195312 378.773438 728.285156 376.875 743.289062 375.378906 C 744.328125 375.25 744.589844 374.160156 744.214844 373.285156 C 743.203125 371.566406 742.324219 369.832031 741.445312 368.097656 C 740.046875 365.375 739.132812 361.273438 737.246094 358.875 C 736.171875 357.691406 734.480469 356.851562 733.292969 355.816406 C 730.644531 353.644531 728.363281 350.242188 725.632812 348.476562 C 724.199219 347.601562 722.460938 347.425781 720.800781 346.84375 C 717.613281 345.664062 714.148438 342.28125 711.15625 341.601562 C 709.53125 341.28125 707.628906 341.914062 705.9375 342.128906 C 701.128906 342.734375 696.882812 342.609375 692.640625 340.375 C 690.703125 339.695312 689.679688 342.066406 691.242188 342.925781 Z M 691.242188 342.925781 " fill-opacity="1" fill-rule="nonzero"/></g></g></g><g clip-path="url(#id49)"><g clip-path="url(#id50)"><g clip-path="url(#id51)"><path fill="#b6cd5d" d="M 697.914062 377.007812 C 702.863281 365.972656 706.433594 354.453125 711.386719 343.417969 C 712.117188 341.875 709.613281 340.875 709.011719 342.398438 C 704.058594 353.433594 700.492188 364.953125 695.539062 375.988281 C 694.808594 377.53125 697.183594 378.550781 697.914062 377.007812 Z M 697.914062 377.007812 " fill-opacity="1" fill-rule="nonzero"/></g></g></g><g clip-path="url(#id52)"><g clip-path="url(#id53)"><g clip-path="url(#id54)"><path fill="#b6cd5d" d="M 697.800781 379.261719 C 707.5 370.265625 715.378906 359.390625 725.097656 350.523438 C 726.28125 349.449219 724.6875 347.277344 723.519531 348.480469 C 713.800781 357.347656 706.054688 368.207031 696.207031 377.089844 C 695.035156 378.292969 696.613281 380.335938 697.800781 379.261719 Z M 697.800781 379.261719 " fill-opacity="1" fill-rule="nonzero"/></g></g></g><g clip-path="url(#id55)"><g clip-path="url(#id56)"><g clip-path="url(#id57)"><path fill="#b6cd5d" d="M 698.5 380.625 C 711.210938 374.542969 725.269531 368.6875 736.664062 360.53125 C 737.996094 359.570312 736.417969 357.53125 735.085938 358.488281 C 723.820312 366.628906 710.007812 372.320312 697.539062 378.242188 C 696.042969 378.957031 697.003906 381.339844 698.5 380.625 Z M 698.5 380.625 " fill-opacity="1" fill-rule="nonzero"/></g></g></g><g clip-path="url(#id58)"><g clip-path="url(#id59)"><g clip-path="url(#id60)"><path fill="#b6cd5d" d="M 709.613281 418.5 C 719.789062 416.425781 734.484375 413.519531 740.851562 404.285156 C 743.078125 400.972656 743.238281 397 743.285156 393.171875 C 743.539062 386.8125 743.277344 380.519531 744.34375 374.324219 C 744.667969 372.703125 741.96875 372.25 741.792969 373.984375 C 740.351562 382.46875 742.679688 392.589844 739.855469 400.585938 C 736.238281 410.664062 718.4375 414.09375 709.300781 416.035156 C 707.609375 416.246094 707.9375 418.839844 709.613281 418.5 Z M 709.613281 418.5 " fill-opacity="1" fill-rule="nonzero"/></g></g></g><g clip-path="url(#id61)"><g clip-path="url(#id62)"><g clip-path="url(#id63)"><path fill="#b6cd5d" d="M 692.800781 420.351562 C 696.085938 420.203125 699.371094 420.050781 702.621094 419.640625 C 704.3125 419.429688 703.984375 416.835938 702.292969 417.046875 C 699.042969 417.457031 695.757812 417.605469 692.476562 417.757812 C 690.753906 417.710938 691.078125 420.304688 692.800781 420.351562 Z M 692.800781 420.351562 " fill-opacity="1" fill-rule="nonzero"/></g></g></g><g clip-path="url(#id64)"><g clip-path="url(#id65)"><g clip-path="url(#id66)"><path fill="#b6cd5d" d="M 651.84375 385.710938 C 656.027344 393.75 656.667969 404.078125 662.34375 411.402344 C 667.730469 418.5 677.03125 419.964844 685.257812 420.246094 C 686.980469 420.292969 687.320312 417.746094 685.597656 417.699219 C 675.777344 417.355469 666.378906 415.113281 661.871094 405.53125 C 658.777344 398.804688 657.714844 391.425781 654.25 384.878906 C 653.386719 383.273438 650.996094 384.234375 651.84375 385.710938 Z M 651.84375 385.710938 " fill-opacity="1" fill-rule="nonzero"/></g></g></g><g clip-path="url(#id67)"><g clip-path="url(#id68)"><g clip-path="url(#id69)"><path fill="#b6cd5d" d="M 637.558594 367.738281 C 664.039062 390.234375 692.128906 410.816406 718.613281 433.3125 C 719.945312 434.460938 721.519531 432.285156 720.203125 431.265625 C 693.589844 408.785156 665.613281 388.058594 639.132812 365.566406 C 637.816406 364.542969 636.222656 366.589844 637.558594 367.738281 Z M 637.558594 367.738281 " fill-opacity="1" fill-rule="nonzero"/></g></g></g><g clip-path="url(#id70)"><g clip-path="url(#id71)"><g clip-path="url(#id72)"><path fill="#b6cd5d" d="M 640.757812 363.777344 C 667.386719 386.386719 695.492188 407.097656 721.992188 429.722656 C 723.324219 430.871094 724.902344 428.699219 723.582031 427.675781 C 696.953125 405.066406 668.847656 384.359375 642.347656 361.734375 C 641.144531 360.566406 639.570312 362.742188 640.757812 363.777344 Z M 640.757812 363.777344 " fill-opacity="1" fill-rule="nonzero"/></g></g></g><g clip-path="url(#id73)"><g clip-path="url(#id74)"><g clip-path="url(#id75)"><path fill="#b6cd5d" d="M 731.171875 422.898438 C 723.222656 424.824219 714.53125 433.429688 716.683594 442.121094 C 718.980469 450.925781 728.625 455.113281 736.964844 453.140625 C 757.25 448.476562 750.859375 420.816406 731.171875 422.898438 C 729.480469 423.113281 729.808594 425.707031 731.5 425.492188 C 747.285156 423.902344 753.753906 445.886719 737.269531 450.335938 C 731.140625 452.027344 724.476562 450.496094 720.734375 444.90625 C 715.523438 437.125 723.535156 427.289062 731.5 425.492188 C 733.15625 425.023438 732.832031 422.425781 731.171875 422.898438 Z M 731.171875 422.898438 " fill-opacity="1" fill-rule="nonzero"/></g></g></g><g clip-path="url(#id76)"><g clip-path="url(#id77)"><g clip-path="url(#id78)"><path fill="#b6cd5d" d="M 739.699219 435.003906 C 737.566406 431.714844 732.105469 430.292969 728.820312 432.550781 C 725.636719 434.535156 724.433594 438.640625 726.4375 441.945312 C 728.4375 445.253906 732.277344 446.351562 735.769531 444.722656 C 739.28125 443.226562 741.507812 438.863281 739.75 435.394531 C 739.03125 433.902344 736.644531 434.863281 737.359375 436.355469 C 739.703125 441.328125 731.984375 445.070312 728.808594 440.855469 C 727.363281 438.796875 727.945312 436.089844 730.027344 434.773438 C 732.351562 433.292969 736.058594 434.410156 737.523438 436.597656 C 738.613281 437.910156 740.660156 436.332031 739.699219 435.003906 Z M 739.699219 435.003906 " fill-opacity="1" fill-rule="nonzero"/></g></g></g><g clip-path="url(#id79)"><g clip-path="url(#id80)"><g clip-path="url(#id81)"><path fill="#b6cd5d" d="M 641.957031 359.675781 C 640.167969 357 635.664062 355.855469 632.980469 357.640625 C 630.414062 359.28125 629.390625 362.707031 631.050781 365.394531 C 632.710938 368.085938 635.867188 369.007812 638.742188 367.722656 C 641.621094 366.4375 643.421875 362.914062 642.121094 359.917969 C 641.40625 358.425781 639.015625 359.386719 639.730469 360.875 C 641.375 364.492188 635.785156 367.304688 633.539062 364.160156 C 632.449219 362.847656 632.871094 360.949219 634.445312 359.828125 C 636.152344 358.691406 638.917969 359.660156 640.039062 361.234375 C 640.886719 362.707031 642.933594 361.132812 641.957031 359.675781 Z M 641.957031 359.675781 " fill-opacity="1" fill-rule="nonzero"/></g></g></g><g clip-path="url(#id82)"><g clip-path="url(#id83)"><g clip-path="url(#id84)"><path fill="#b6cd5d" d="M 672.648438 430.269531 C 664.699219 432.195312 656.007812 440.800781 658.15625 449.492188 C 660.457031 458.296875 670.097656 462.484375 678.4375 460.511719 C 698.59375 455.863281 692.335938 428.1875 672.648438 430.269531 C 670.957031 430.484375 671.285156 433.078125 672.976562 432.863281 C 688.761719 431.273438 695.230469 453.257812 678.746094 457.703125 C 672.617188 459.398438 665.949219 457.867188 662.207031 452.277344 C 657 444.496094 665.007812 434.660156 672.976562 432.863281 C 674.503906 432.410156 674.175781 429.8125 672.648438 430.269531 Z M 672.648438 430.269531 " fill-opacity="1" fill-rule="nonzero"/></g></g></g><g clip-path="url(#id85)"><g clip-path="url(#id86)"><g clip-path="url(#id87)"><path fill="#b6cd5d" d="M 681.175781 442.375 C 679.042969 439.085938 673.578125 437.664062 670.296875 439.921875 C 667.109375 441.90625 665.910156 446.011719 667.914062 449.316406 C 669.914062 452.621094 673.75 453.722656 677.246094 452.09375 C 680.757812 450.597656 682.980469 446.234375 681.222656 442.765625 C 680.507812 441.273438 678.117188 442.234375 678.835938 443.722656 C 681.179688 448.699219 673.457031 452.441406 670.285156 448.226562 C 668.835938 446.167969 669.421875 443.460938 671.5 442.144531 C 673.824219 440.664062 677.53125 441.78125 678.996094 443.96875 C 680.085938 445.28125 682.136719 443.703125 681.175781 442.375 Z M 681.175781 442.375 " fill-opacity="1" fill-rule="nonzero"/></g></g></g><g clip-path="url(#id88)"><g clip-path="url(#id89)"><g clip-path="url(#id90)"><path fill="#b6cd5d" d="M 678.746094 432.53125 C 683.230469 425.117188 687.582031 417.714844 692.210938 410.410156 C 693.085938 408.980469 691.039062 407.394531 690.160156 408.824219 C 685.402344 416.144531 681.195312 423.660156 676.695312 430.945312 C 675.820312 432.375 677.871094 433.960938 678.746094 432.53125 Z M 678.746094 432.53125 " fill-opacity="1" fill-rule="nonzero"/></g></g></g><g clip-path="url(#id91)"><g clip-path="url(#id92)"><g clip-path="url(#id93)"><path fill="#b6cd5d" d="M 684.308594 434.730469 C 688.464844 427.882812 692.625 421.03125 696.929688 414.296875 C 697.804688 412.867188 695.753906 411.28125 694.878906 412.710938 C 690.574219 419.445312 686.417969 426.296875 682.257812 433.144531 C 681.363281 434.445312 683.429688 436.160156 684.308594 434.730469 Z M 684.308594 434.730469 " fill-opacity="1" fill-rule="nonzero"/></g></g></g><g clip-path="url(#id94)"><g clip-path="url(#id95)"><g clip-path="url(#id96)"><path fill="#c9e265" d="M 926.460938 546.234375 C 923.71875 545.941406 920.660156 546.882812 918.835938 548.550781 C 915.71875 551.417969 915.152344 556.511719 917.570312 559.90625 C 918.976562 561.851562 921.214844 563.015625 923.546875 563.246094 C 925.378906 563.425781 927.269531 563.023438 928.800781 561.976562 C 930.714844 560.671875 932.128906 558.269531 932.605469 555.5625 C 933.042969 553.019531 932.59375 550.558594 931.332031 548.835938 C 930.300781 547.367188 928.5625 546.460938 926.460938 546.234375 Z M 929.527344 555.027344 C 929.195312 556.90625 928.25 558.582031 927.035156 559.40625 C 924.941406 560.839844 921.640625 560.21875 920.125 558.09375 C 918.609375 555.96875 919 552.667969 920.964844 550.863281 C 922.117188 549.800781 924.28125 549.171875 926.113281 549.351562 C 926.113281 549.351562 926.132812 549.355469 926.132812 549.355469 C 926.988281 549.4375 928.132812 549.738281 928.800781 550.667969 C 929.554688 551.730469 929.820312 553.3125 929.527344 555.027344 Z M 1061.9375 455.09375 L 1048.113281 460.859375 C 1046.882812 461.367188 1045.195312 462.085938 1044.105469 463.554688 C 1043.402344 464.515625 1042.820312 466.140625 1043.09375 467.636719 C 1035.351562 470.722656 1021.167969 473.277344 1013.9375 473.300781 C 1013.894531 473.296875 1013.832031 473.3125 1013.789062 473.308594 C 1011.75 470.941406 1008.847656 470.132812 1007.003906 470.078125 L 992.027344 469.570312 C 990.6875 469.519531 988.867188 469.46875 987.265625 470.339844 C 984.109375 472.109375 982.441406 475.394531 982.59375 479.613281 C 982.789062 485.078125 985.085938 486.710938 986.207031 487.496094 C 986.289062 487.542969 986.363281 487.617188 986.421875 487.664062 C 987.492188 488.523438 988.753906 488.753906 989.953125 488.9375 C 990.121094 488.953125 990.328125 488.992188 990.554688 489.015625 C 994.53125 489.40625 1006.226562 489.277344 1010.46875 488.875 C 1011.617188 488.753906 1013.289062 487.996094 1014.582031 486.1875 C 1014.996094 485.578125 1015.429688 484.820312 1015.734375 483.84375 C 1018.695312 483.652344 1024.351562 483.21875 1027.820312 482.761719 C 1027.519531 487.757812 1026.839844 495.066406 1026.242188 501.335938 C 1025.050781 501.722656 1024.085938 502.324219 1023.375 503.15625 C 1022.570312 504.085938 1022.167969 505.160156 1021.964844 506.148438 C 1014.277344 505.6875 1006.644531 505.753906 999.226562 506.390625 C 999.378906 505.25 999.390625 504.09375 999.210938 502.921875 C 998.488281 498.101562 994.859375 493.980469 989.699219 492.167969 C 987.40625 491.355469 985.03125 490.929688 982.738281 490.496094 C 981.007812 490.179688 979.375 489.871094 977.757812 489.4375 C 975.304688 488.753906 970.933594 487.042969 969.367188 483.316406 L 969.234375 482.964844 C 968.550781 481.34375 967.316406 478.320312 964.828125 475.824219 C 961.75 472.746094 957.722656 471.40625 952.863281 471.875 C 948.660156 472.28125 944.960938 474.207031 941.398438 476.0625 L 940.664062 476.453125 C 936.523438 478.589844 933.148438 481.914062 931.167969 485.820312 C 929.296875 489.480469 928.851562 493.789062 929.882812 498.242188 C 930.824219 502.347656 932.980469 506.261719 935.960938 509.289062 C 940.242188 513.640625 946.28125 516.757812 953.960938 518.585938 C 945.335938 522.929688 937.742188 528.339844 931.320312 534.664062 C 925.039062 533.144531 918.058594 534.265625 912.59375 537.679688 C 908.808594 540.058594 906.058594 543.003906 904.4375 546.480469 C 902.601562 550.378906 902.171875 554.960938 903.183594 560.066406 C 904.125 564.804688 907.476562 569.167969 912.382812 572.070312 C 915.660156 573.988281 919.242188 575.160156 922.84375 575.515625 C 925.714844 575.800781 928.597656 575.558594 931.320312 574.796875 C 937.332031 573.09375 942.203125 568.636719 944.714844 562.554688 C 947.113281 556.757812 946.976562 550.460938 944.394531 545.074219 C 955.085938 536.816406 967.632812 530.398438 980.730469 526.476562 C 994.441406 522.359375 1008.382812 521.167969 1021.152344 522.96875 C 1021.523438 525.804688 1022.445312 527.742188 1023.972656 528.882812 C 1024.09375 528.957031 1024.1875 529.050781 1024.308594 529.125 C 1024.257812 529.855469 1024.203125 530.628906 1024.164062 531.445312 C 1020.269531 532.152344 1017.175781 533.277344 1014.765625 534.914062 C 1005.832031 540.886719 1001.171875 552.386719 1003.4375 562.890625 C 1005.703125 573.394531 1014.695312 581.949219 1025.300781 583.710938 C 1025.839844 583.804688 1026.378906 583.878906 1026.898438 583.929688 C 1036.742188 584.898438 1046.871094 580.011719 1051.980469 571.640625 C 1056.441406 564.324219 1056.996094 555.488281 1053.464844 547.363281 C 1050.144531 539.699219 1043.824219 534.09375 1036.449219 532.148438 C 1036.441406 531.371094 1036.429688 530.632812 1036.4375 529.941406 C 1037.226562 529.597656 1037.902344 529.117188 1038.445312 528.519531 C 1040.074219 526.726562 1040.195312 524.195312 1040.277344 522.519531 C 1040.484375 518.292969 1040.710938 514.070312 1040.914062 509.84375 C 1040.984375 508.273438 1041.09375 506.121094 1040.054688 504.292969 C 1039.464844 503.246094 1038.5 502.375 1037.316406 501.773438 C 1037.765625 497.027344 1038.164062 492.523438 1038.535156 488.546875 L 1039.253906 480.839844 C 1041.546875 480.140625 1045.433594 478.652344 1047.875 477.566406 C 1048.570312 478.625 1049.664062 479.445312 1050.585938 479.683594 C 1050.8125 479.75 1051.042969 479.769531 1051.269531 479.792969 C 1052.351562 479.898438 1053.367188 479.644531 1054.339844 479.359375 C 1057.476562 478.449219 1069.0625 473.011719 1072.964844 470.746094 C 1073.96875 470.171875 1075.175781 468.777344 1075.582031 466.589844 C 1075.941406 464.648438 1075.757812 461.582031 1072.839844 457.910156 C 1069.363281 453.53125 1064.351562 454.070312 1061.9375 455.09375 Z M 1012.03125 484.339844 C 1011.273438 485.402344 1010.425781 485.695312 1010.171875 485.734375 C 1005.691406 486.175781 993.121094 486.21875 990.40625 485.828125 C 989.601562 485.707031 988.816406 485.566406 988.367188 485.207031 C 988.25 485.109375 988.132812 485.015625 987.992188 484.9375 C 987.1875 484.375 985.851562 483.421875 985.714844 479.5 C 985.613281 476.441406 986.648438 474.273438 988.785156 473.074219 C 989.539062 472.644531 990.613281 472.644531 991.910156 472.691406 L 1006.886719 473.195312 C 1006.90625 473.199219 1006.988281 473.207031 1007.113281 473.21875 C 1008.070312 473.3125 1011.691406 473.921875 1012.664062 477.886719 C 1013.507812 481.269531 1012.785156 483.277344 1012.03125 484.339844 Z M 938.195312 507.089844 C 933.496094 502.316406 930.535156 493.953125 933.96875 487.25 C 935.664062 483.929688 938.550781 481.078125 942.113281 479.246094 L 942.867188 478.855469 C 946.320312 477.050781 949.597656 475.355469 953.183594 475.015625 C 954.246094 474.910156 955.210938 474.921875 956.085938 475.007812 C 962.847656 475.671875 965.15625 481.28125 966.339844 484.171875 L 966.496094 484.523438 C 968.027344 488.1875 971.742188 491.011719 976.9375 492.445312 C 978.675781 492.933594 980.472656 493.257812 982.183594 493.574219 C 984.457031 493.984375 986.601562 494.386719 988.671875 495.117188 C 992.773438 496.570312 995.5625 499.640625 996.117188 503.375 C 996.636719 506.851562 995.0625 510.25 991.777344 512.679688 C 988.21875 515.316406 983.570312 516.203125 979.929688 516.683594 C 972.796875 517.621094 965.582031 517.5 958.46875 516.316406 C 949.539062 514.808594 942.722656 511.699219 938.195312 507.089844 Z M 941.808594 561.34375 C 939.679688 566.515625 935.523438 570.3125 930.464844 571.769531 C 925.210938 573.246094 919.058594 572.347656 913.953125 569.363281 C 909.820312 566.941406 907.003906 563.320312 906.246094 559.460938 C 905.378906 555.027344 905.722656 551.109375 907.265625 547.832031 C 908.625 544.917969 910.992188 542.417969 914.261719 540.367188 C 919.011719 537.386719 925.351562 536.390625 930.800781 537.789062 C 933.980469 538.605469 938.34375 540.589844 941.0625 545.421875 C 943.746094 550.183594 944.011719 556.011719 941.808594 561.34375 Z M 979.832031 523.445312 C 966.496094 527.429688 953.75 533.953125 942.820312 542.3125 C 940.792969 539.402344 938.046875 537.199219 934.679688 535.773438 C 941.5625 529.261719 949.769531 523.804688 959.136719 519.578125 C 960.421875 519.765625 961.726562 519.9375 963.019531 520.066406 C 968.761719 520.628906 974.570312 520.53125 980.296875 519.789062 C 984.320312 519.261719 989.464844 518.253906 993.589844 515.191406 C 995.71875 513.613281 997.296875 511.710938 998.238281 509.617188 C 1005.851562 508.914062 1013.722656 508.785156 1021.636719 509.269531 C 1021.617188 510.128906 1021.5 511.316406 1021.367188 512.671875 C 1021.15625 514.792969 1020.90625 517.332031 1020.921875 519.753906 C 1007.917969 518.011719 993.753906 519.285156 979.832031 523.445312 Z M 1050.574219 548.570312 C 1053.691406 555.730469 1053.21875 563.523438 1049.285156 569.96875 C 1047.003906 573.71875 1043.398438 576.832031 1039.132812 578.742188 C 1034.890625 580.660156 1030.160156 581.308594 1025.796875 580.585938 C 1021.3125 579.847656 1016.910156 577.605469 1013.410156 574.277344 C 1009.914062 570.949219 1007.457031 566.671875 1006.507812 562.207031 C 1005.539062 557.757812 1006.023438 552.84375 1007.832031 548.355469 C 1009.636719 543.867188 1012.726562 540.03125 1016.507812 537.480469 C 1018.421875 536.199219 1020.867188 535.261719 1023.972656 534.640625 C 1023.835938 537.109375 1023.664062 540.351562 1023.5625 543.726562 C 1023.039062 543.925781 1022.554688 544.152344 1022.179688 544.34375 C 1019.992188 545.621094 1018.199219 547.632812 1016.960938 550.179688 C 1014.457031 555.335938 1015.394531 561.820312 1019.210938 565.957031 C 1021.492188 568.410156 1024.644531 569.875 1027.894531 570.195312 C 1028.226562 570.230469 1028.5625 570.242188 1028.894531 570.253906 C 1028.855469 570.457031 1028.8125 570.6875 1028.785156 570.9375 C 1028.5625 573.4375 1030.566406 576.324219 1032.890625 576.867188 C 1033.074219 576.90625 1033.257812 576.945312 1033.445312 576.964844 C 1034.882812 577.105469 1036.058594 576.464844 1036.878906 576.042969 L 1042.027344 573.269531 C 1042.890625 572.808594 1044.734375 571.8125 1044.933594 569.582031 C 1045.105469 567.832031 1044.125 565.613281 1042.632812 564.332031 C 1042.015625 563.789062 1041.332031 563.46875 1040.671875 563.339844 C 1042.132812 560.667969 1042.757812 557.53125 1042.273438 554.519531 C 1041.710938 550.851562 1039.414062 547.304688 1036.34375 545.191406 C 1036.425781 541.5625 1036.460938 538.015625 1036.449219 535.34375 C 1042.480469 537.261719 1047.796875 542.179688 1050.574219 548.570312 Z M 1036.203125 549.195312 C 1037.726562 550.792969 1038.824219 552.878906 1039.160156 555.011719 C 1039.714844 558.558594 1038.3125 562.328125 1035.683594 564.699219 C 1035.179688 563.851562 1034.585938 562.84375 1033.976562 561.777344 C 1035.207031 561.203125 1035.511719 559.195312 1035.789062 556.363281 C 1035.949219 554.53125 1036.101562 552.128906 1036.203125 549.195312 Z M 1033.503906 569.570312 C 1033.957031 569.425781 1034.394531 569.238281 1034.816406 569.027344 C 1035.257812 568.820312 1035.660156 568.585938 1036.082031 568.332031 C 1036.261719 568.222656 1036.417969 568.113281 1036.601562 567.984375 C 1037.777344 567.34375 1038.992188 566.746094 1040.175781 566.464844 C 1040.320312 566.5 1040.753906 566.773438 1041.191406 567.449219 C 1041.664062 568.1875 1041.84375 568.921875 1041.804688 569.335938 C 1041.761719 569.753906 1041.460938 570.058594 1040.550781 570.558594 L 1035.402344 573.332031 C 1034.667969 573.722656 1034.117188 574.003906 1033.625 573.871094 C 1032.863281 573.691406 1031.828125 572.285156 1031.925781 571.265625 C 1031.953125 570.574219 1032.375 570.132812 1033.503906 569.570312 Z M 1033 566.328125 C 1032.824219 566.414062 1032.667969 566.503906 1032.496094 566.570312 C 1032.449219 566.585938 1032.382812 566.621094 1032.316406 566.660156 C 1028.628906 567.851562 1024.175781 566.738281 1021.5 563.828125 C 1018.578125 560.660156 1017.84375 555.5 1019.765625 551.550781 C 1020.660156 549.722656 1021.945312 548.210938 1023.449219 547.246094 C 1023.195312 558.78125 1024.035156 559.875 1024.480469 560.464844 C 1025.128906 561.328125 1026.28125 561.816406 1028.152344 562.003906 C 1028.839844 562.070312 1029.613281 562.105469 1030.519531 562.089844 C 1031.378906 563.582031 1032.28125 565.121094 1033 566.328125 Z M 1028.371094 558.304688 C 1028.476562 558.503906 1028.582031 558.703125 1028.710938 558.902344 C 1027.585938 558.8125 1027.160156 558.644531 1027 558.546875 C 1026.820312 558.023438 1026.339844 555.664062 1026.640625 545.5625 C 1026.640625 545.5625 1026.640625 545.542969 1026.640625 545.542969 C 1026.765625 541.074219 1026.988281 536.683594 1027.171875 533.757812 C 1027.183594 533.421875 1027.214844 533.109375 1027.222656 532.796875 C 1027.222656 532.796875 1027.226562 532.777344 1027.226562 532.777344 C 1027.269531 531.898438 1027.332031 531.042969 1027.394531 530.226562 C 1027.886719 530.320312 1028.363281 530.386719 1028.84375 530.433594 C 1029.59375 530.507812 1030.285156 530.535156 1030.914062 530.554688 C 1031.6875 530.585938 1032.507812 530.582031 1033.308594 530.535156 C 1033.3125 531.378906 1033.324219 532.304688 1033.316406 533.25 C 1033.3125 533.289062 1033.308594 533.3125 1033.308594 533.332031 C 1033.3125 533.691406 1033.300781 534.046875 1033.308594 534.40625 C 1033.304688 537.429688 1033.273438 541.988281 1033.152344 546.457031 C 1032.929688 554.695312 1032.507812 557.679688 1032.253906 558.769531 C 1031.820312 558.03125 1031.449219 557.324219 1031.128906 556.746094 C 1030.71875 555.992188 1029.761719 555.707031 1029.003906 556.117188 C 1028.246094 556.585938 1027.960938 557.546875 1028.371094 558.304688 Z M 1037.300781 505.789062 C 1037.859375 506.746094 1037.835938 508.027344 1037.765625 509.617188 C 1037.558594 513.84375 1037.351562 518.070312 1037.125 522.292969 C 1037.050781 523.925781 1036.898438 525.445312 1036.097656 526.355469 C 1035.71875 526.78125 1035.164062 527.082031 1034.449219 527.265625 C 1033.417969 527.519531 1032.175781 527.523438 1031.003906 527.472656 C 1029.308594 527.410156 1027.804688 527.324219 1026.597656 526.765625 C 1026.335938 526.65625 1026.078125 526.503906 1025.84375 526.332031 C 1024.902344 525.652344 1024.332031 523.957031 1024.160156 521.457031 C 1023.960938 518.75 1024.277344 515.542969 1024.53125 512.960938 C 1024.675781 511.503906 1024.796875 510.253906 1024.8125 509.269531 C 1024.828125 508.871094 1024.835938 508.386719 1024.882812 507.910156 C 1024.992188 506.59375 1025.242188 505.757812 1025.738281 505.175781 C 1026.214844 504.632812 1026.921875 504.28125 1028.011719 504.074219 C 1028.804688 503.921875 1029.671875 503.859375 1030.433594 503.828125 C 1031.464844 503.785156 1032.542969 503.742188 1033.542969 503.839844 C 1033.894531 503.875 1034.246094 503.933594 1034.597656 504.007812 C 1034.804688 504.050781 1034.964844 504.109375 1035.128906 504.167969 C 1036.140625 504.539062 1036.90625 505.097656 1037.300781 505.789062 Z M 1047.839844 474.074219 C 1045.847656 475.097656 1039.359375 477.613281 1037.449219 478.035156 C 1036.78125 478.179688 1036.285156 478.738281 1036.21875 479.425781 L 1035.414062 488.21875 C 1035.0625 492.03125 1034.660156 496.300781 1034.257812 500.820312 C 1032.929688 500.648438 1031.601562 500.707031 1030.335938 500.75 C 1030.0625 500.765625 1029.785156 500.78125 1029.492188 500.792969 C 1030.160156 493.796875 1030.871094 485.710938 1031.105469 480.984375 C 1031.132812 480.503906 1030.925781 480.019531 1030.558594 479.710938 C 1030.1875 479.402344 1029.699219 479.269531 1029.226562 479.367188 C 1027.230469 479.78125 1021.339844 480.296875 1016.238281 480.65625 C 1016.234375 479.625 1016.097656 478.453125 1015.765625 477.140625 C 1015.707031 476.882812 1015.625 476.644531 1015.542969 476.402344 C 1024.003906 476.058594 1038.636719 473.230469 1045.988281 469.835938 C 1046.226562 469.773438 1047.539062 469.863281 1048.515625 471.472656 C 1048.929688 472.183594 1048.222656 473.609375 1047.839844 474.074219 Z M 1072.46875 465.96875 C 1072.238281 467.25 1071.566406 467.875 1071.363281 468.003906 C 1067.464844 470.269531 1056.078125 475.558594 1053.441406 476.308594 C 1052.640625 476.542969 1051.886719 476.722656 1051.355469 476.585938 C 1051.109375 476.5 1050.707031 476.101562 1050.46875 475.785156 C 1051.511719 474.351562 1052.371094 471.808594 1051.160156 469.820312 C 1049.820312 467.628906 1047.789062 466.710938 1046.195312 466.679688 C 1046.230469 466.308594 1046.386719 465.777344 1046.65625 465.402344 C 1047.167969 464.695312 1048.132812 464.265625 1049.339844 463.753906 L 1063.167969 457.988281 C 1063.339844 457.921875 1067.5 456.230469 1070.382812 459.835938 C 1072.550781 462.570312 1072.699219 464.6875 1072.46875 465.96875 Z M 977.28125 514.132812 C 980.421875 514.253906 983.0625 513.925781 985.351562 513.078125 C 988.359375 511.964844 990.78125 509.132812 991.28125 506.175781 C 991.75 503.34375 990.296875 500.382812 987.265625 498.109375 C 984.917969 496.324219 982.101562 495.5 979.589844 494.746094 L 970.011719 491.914062 C 967.582031 491.191406 964.828125 490.371094 961.972656 490.742188 C 958.3125 491.222656 955.289062 493.53125 952.855469 495.417969 C 950.765625 497.019531 948.464844 499.039062 947.339844 501.707031 C 946.214844 504.390625 946.980469 508.375 949.863281 509.816406 C 951.546875 510.652344 954.75 511.410156 957.652344 512.03125 C 961.027344 512.765625 964.195312 513.222656 967.339844 513.53125 C 970.628906 513.835938 973.871094 513.984375 977.28125 514.132812 Z M 951.253906 506.988281 C 950.234375 506.488281 949.539062 504.550781 950.226562 502.914062 C 951.054688 500.914062 952.980469 499.273438 954.753906 497.914062 C 957.003906 496.183594 959.550781 494.246094 962.378906 493.875 C 964.59375 493.585938 966.902344 494.277344 969.125 494.9375 L 978.703125 497.769531 C 981.050781 498.464844 983.480469 499.1875 985.359375 500.613281 C 986.121094 501.191406 988.566406 503.261719 988.179688 505.683594 C 988.027344 506.59375 987.539062 507.511719 986.871094 508.308594 C 986.84375 508.347656 986.824219 508.367188 986.777344 508.402344 C 986.089844 509.175781 985.210938 509.804688 984.273438 510.152344 C 982.394531 510.851562 980.140625 511.136719 977.421875 511.015625 C 970.933594 510.753906 965 510.402344 958.308594 508.964844 C 956.808594 508.628906 952.820312 507.75 951.253906 506.988281 Z M 951.253906 506.988281 " fill-opacity="1" fill-rule="nonzero"/></g></g></g></svg>