<svg xmlns="http://www.w3.org/2000/svg" xmlns:xlink="http://www.w3.org/1999/xlink" width="2304" zoomAndPan="magnify" viewBox="0 0 1728 1295.99994" height="1728" preserveAspectRatio="xMidYMid meet" version="1.0"><defs><filter x="0%" y="0%" width="100%" height="100%" id="id1"><feColorMatrix values="0 0 0 0 1 0 0 0 0 1 0 0 0 0 1 0 0 0 1 0" color-interpolation-filters="sRGB"/></filter><mask id="id2"><g filter="url(#id1)"><rect x="-172.8" width="2073.6" fill="#000000" y="-129.599994" height="1555.199927" fill-opacity="0.2863"/></g></mask><clipPath id="id3"><path d="M 0.777344 0.742188 L 90.070312 0.742188 L 90.070312 90.03125 L 0.777344 90.03125 Z M 0.777344 0.742188 " clip-rule="nonzero"/></clipPath><clipPath id="id4"><rect x="0" width="91" y="0" height="91"/></clipPath><mask id="id5"><g filter="url(#id1)"><rect x="-172.8" width="2073.6" fill="#000000" y="-129.599994" height="1555.199927" fill-opacity="0.2863"/></g></mask><clipPath id="id6"><path d="M 0.933594 0.390625 L 93.171875 0.390625 L 93.171875 95.535156 L 0.933594 95.535156 Z M 0.933594 0.390625 " clip-rule="nonzero"/></clipPath><clipPath id="id7"><rect x="0" width="94" y="0" height="96"/></clipPath><mask id="id8"><g filter="url(#id1)"><rect x="-172.8" width="2073.6" fill="#000000" y="-129.599994" height="1555.199927" fill-opacity="0.2863"/></g></mask><clipPath id="id9"><path d="M 37 18 L 171 18 L 171 120 L 37 120 Z M 37 18 " clip-rule="nonzero"/></clipPath><clipPath id="id10"><path d="M 0.726562 72.421875 L 92.625 0.507812 L 170.53125 100.066406 L 78.628906 171.980469 Z M 0.726562 72.421875 " clip-rule="nonzero"/></clipPath><clipPath id="id11"><rect x="0" width="172" y="0" height="173"/></clipPath><mask id="id12"><g filter="url(#id1)"><rect x="-172.8" width="2073.6" fill="#000000" y="-129.599994" height="1555.199927" fill-opacity="0.2863"/></g></mask><clipPath id="id13"><path d="M 0.808594 0.390625 L 90.101562 0.390625 L 90.101562 89.679688 L 0.808594 89.679688 Z M 0.808594 0.390625 " clip-rule="nonzero"/></clipPath><clipPath id="id14"><rect x="0" width="91" y="0" height="91"/></clipPath><mask id="id15"><g filter="url(#id1)"><rect x="-172.8" width="2073.6" fill="#000000" y="-129.599994" height="1555.199927" fill-opacity="0.2863"/></g></mask><clipPath id="id16"><path d="M 33 3 L 122 3 L 122 136 L 33 136 Z M 33 3 " clip-rule="nonzero"/></clipPath><clipPath id="id17"><path d="M 142.796875 73.640625 L 71.800781 141.648438 L 1.648438 68.414062 L 72.648438 0.40625 Z M 142.796875 73.640625 " clip-rule="nonzero"/></clipPath><clipPath id="id18"><rect x="0" width="143" y="0" height="143"/></clipPath><mask id="id19"><g filter="url(#id1)"><rect x="-172.8" width="2073.6" fill="#000000" y="-129.599994" height="1555.199927" fill-opacity="0.2863"/></g></mask><clipPath id="id20"><path d="M 0.609375 0.742188 L 175.90625 0.742188 L 175.90625 190.644531 L 0.609375 190.644531 Z M 0.609375 0.742188 " clip-rule="nonzero"/></clipPath><clipPath id="id21"><rect x="0" width="177" y="0" height="192"/></clipPath><mask id="id22"><g filter="url(#id1)"><rect x="-172.8" width="2073.6" fill="#000000" y="-129.599994" height="1555.199927" fill-opacity="0.2863"/></g></mask><clipPath id="id23"><path d="M 5 22 L 144 22 L 144 118 L 5 118 Z M 5 22 " clip-rule="nonzero"/></clipPath><clipPath id="id24"><path d="M 93.351562 0.894531 L 150.386719 90.640625 L 57.8125 149.472656 L 0.777344 59.726562 Z M 93.351562 0.894531 " clip-rule="nonzero"/></clipPath><clipPath id="id25"><rect x="0" width="151" y="0" height="151"/></clipPath><mask id="id26"><g filter="url(#id1)"><rect x="-172.8" width="2073.6" fill="#000000" y="-129.599994" height="1555.199927" fill-opacity="0.2863"/></g></mask><clipPath id="id27"><path d="M 44 23 L 162.839844 23 L 162.839844 123 L 44 123 Z M 44 23 " clip-rule="nonzero"/></clipPath><clipPath id="id28"><path d="M 0.339844 87.59375 L 68.492188 1.144531 L 162.148438 74.972656 L 93.996094 161.425781 Z M 0.339844 87.59375 " clip-rule="nonzero"/></clipPath><clipPath id="id29"><rect x="0" width="163" y="0" height="162"/></clipPath><mask id="id30"><g filter="url(#id1)"><rect x="-172.8" width="2073.6" fill="#000000" y="-129.599994" height="1555.199927" fill-opacity="0.2863"/></g></mask><clipPath id="id31"><path d="M 0.117188 0.707031 L 89.28125 0.707031 L 89.28125 89.871094 L 0.117188 89.871094 Z M 0.117188 0.707031 " clip-rule="nonzero"/></clipPath><clipPath id="id32"><rect x="0" width="90" y="0" height="91"/></clipPath><mask id="id33"><g filter="url(#id1)"><rect x="-172.8" width="2073.6" fill="#000000" y="-129.599994" height="1555.199927" fill-opacity="0.2863"/></g></mask><clipPath id="id34"><path d="M 9 10 L 97 10 L 97 195 L 9 195 Z M 9 10 " clip-rule="nonzero"/></clipPath><clipPath id="id35"><path d="M 0.105469 184.320312 L 29.308594 0.992188 L 106.691406 13.320312 L 77.488281 196.648438 Z M 0.105469 184.320312 " clip-rule="nonzero"/></clipPath><clipPath id="id36"><rect x="0" width="108" y="0" height="197"/></clipPath><mask id="id37"><g filter="url(#id1)"><rect x="-172.8" width="2073.6" fill="#000000" y="-129.599994" height="1555.199927" fill-opacity="0.2863"/></g></mask><clipPath id="id38"><path d="M 20 26 L 117 26 L 117 149 L 20 149 Z M 20 26 " clip-rule="nonzero"/></clipPath><clipPath id="id39"><path d="M 38.726562 0.195312 L 142.929688 35.699219 L 104.46875 148.582031 L 0.265625 113.082031 Z M 38.726562 0.195312 " clip-rule="nonzero"/></clipPath><clipPath id="id40"><rect x="0" width="144" y="0" height="150"/></clipPath><mask id="id41"><g filter="url(#id1)"><rect x="-172.8" width="2073.6" fill="#000000" y="-129.599994" height="1555.199927" fill-opacity="0.2863"/></g></mask><clipPath id="id42"><path d="M 19 18 L 109 18 L 109 108 L 19 108 Z M 19 18 " clip-rule="nonzero"/></clipPath><clipPath id="id43"><path d="M 0.976562 70.449219 L 56.253906 0.328125 L 126.375 55.605469 L 71.097656 125.726562 Z M 0.976562 70.449219 " clip-rule="nonzero"/></clipPath><clipPath id="id44"><rect x="0" width="127" y="0" height="127"/></clipPath><mask id="id45"><g filter="url(#id1)"><rect x="-172.8" width="2073.6" fill="#000000" y="-129.599994" height="1555.199927" fill-opacity="0.2863"/></g></mask><clipPath id="id46"><path d="M 1 26 L 122 26 L 122 125 L 1 125 Z M 1 26 " clip-rule="nonzero"/></clipPath><clipPath id="id47"><path d="M 154.628906 49.007812 L 110.375 149.804688 L 1.179688 101.863281 L 45.433594 1.066406 Z M 154.628906 49.007812 " clip-rule="nonzero"/></clipPath><clipPath id="id48"><rect x="0" width="155" y="0" height="151"/></clipPath><mask id="id49"><g filter="url(#id1)"><rect x="-172.8" width="2073.6" fill="#000000" y="-129.599994" height="1555.199927" fill-opacity="0.2863"/></g></mask><clipPath id="id50"><path d="M 18 18 L 108 18 L 108 108 L 18 108 Z M 18 18 " clip-rule="nonzero"/></clipPath><clipPath id="id51"><path d="M 0.460938 70.714844 L 55.738281 0.59375 L 125.863281 55.871094 L 70.582031 125.992188 Z M 0.460938 70.714844 " clip-rule="nonzero"/></clipPath><clipPath id="id52"><rect x="0" width="127" y="0" height="127"/></clipPath><mask id="id53"><g filter="url(#id1)"><rect x="-172.8" width="2073.6" fill="#000000" y="-129.599994" height="1555.199927" fill-opacity="0.2863"/></g></mask><clipPath id="id54"><path d="M 5 0.160156 L 118 0.160156 L 118 121 L 5 121 Z M 5 0.160156 " clip-rule="nonzero"/></clipPath><clipPath id="id55"><path d="M 20.796875 130.945312 L 0.308594 22.785156 L 117.480469 0.585938 L 137.972656 108.746094 Z M 20.796875 130.945312 " clip-rule="nonzero"/></clipPath><clipPath id="id56"><rect x="0" width="139" y="0" height="131"/></clipPath><mask id="id57"><g filter="url(#id1)"><rect x="-172.8" width="2073.6" fill="#000000" y="-129.599994" height="1555.199927" fill-opacity="0.2863"/></g></mask><clipPath id="id58"><path d="M 33 16 L 183 16 L 183 156 L 33 156 Z M 33 16 " clip-rule="nonzero"/></clipPath><clipPath id="id59"><path d="M 137.714844 184.527344 L 0.769531 59.195312 L 53.675781 1.390625 L 190.617188 126.722656 Z M 137.714844 184.527344 " clip-rule="nonzero"/></clipPath><clipPath id="id60"><rect x="0" width="192" y="0" height="185"/></clipPath><mask id="id61"><g filter="url(#id1)"><rect x="-172.8" width="2073.6" fill="#000000" y="-129.599994" height="1555.199927" fill-opacity="0.2863"/></g></mask><clipPath id="id62"><path d="M 49 5 L 183 5 L 183 204 L 49 204 Z M 49 5 " clip-rule="nonzero"/></clipPath><clipPath id="id63"><path d="M 213.203125 110.15625 L 106.777344 212.105469 L 1.617188 102.324219 L 108.042969 0.375 Z M 213.203125 110.15625 " clip-rule="nonzero"/></clipPath><clipPath id="id64"><rect x="0" width="214" y="0" height="213"/></clipPath><mask id="id65"><g filter="url(#id1)"><rect x="-172.8" width="2073.6" fill="#000000" y="-129.599994" height="1555.199927" fill-opacity="0.2863"/></g></mask><clipPath id="id66"><path d="M 18 19 L 109 19 L 109 109 L 18 109 Z M 18 19 " clip-rule="nonzero"/></clipPath><clipPath id="id67"><path d="M 0.722656 71.09375 L 56 0.972656 L 126.121094 56.25 L 70.84375 126.375 Z M 0.722656 71.09375 " clip-rule="nonzero"/></clipPath><clipPath id="id68"><rect x="0" width="127" y="0" height="127"/></clipPath><mask id="id69"><g filter="url(#id1)"><rect x="-172.8" width="2073.6" fill="#000000" y="-129.599994" height="1555.199927" fill-opacity="0.2863"/></g></mask><clipPath id="id70"><path d="M 0.960938 0.828125 L 186.597656 0.828125 L 186.597656 79.1875 L 0.960938 79.1875 Z M 0.960938 0.828125 " clip-rule="nonzero"/></clipPath><clipPath id="id71"><rect x="0" width="187" y="0" height="80"/></clipPath><mask id="id72"><g filter="url(#id1)"><rect x="-172.8" width="2073.6" fill="#000000" y="-129.599994" height="1555.199927" fill-opacity="0.2863"/></g></mask><clipPath id="id73"><path d="M 33 16 L 183 16 L 183 156 L 33 156 Z M 33 16 " clip-rule="nonzero"/></clipPath><clipPath id="id74"><path d="M 137.542969 183.855469 L 0.597656 58.523438 L 53.503906 0.71875 L 190.445312 126.050781 Z M 137.542969 183.855469 " clip-rule="nonzero"/></clipPath><clipPath id="id75"><rect x="0" width="191" y="0" height="184"/></clipPath><mask id="id76"><g filter="url(#id1)"><rect x="-172.8" width="2073.6" fill="#000000" y="-129.599994" height="1555.199927" fill-opacity="0.2863"/></g></mask><clipPath id="id77"><path d="M 0.457031 0.496094 L 89.621094 0.496094 L 89.621094 89.660156 L 0.457031 89.660156 Z M 0.457031 0.496094 " clip-rule="nonzero"/></clipPath><clipPath id="id78"><rect x="0" width="90" y="0" height="91"/></clipPath><mask id="id79"><g filter="url(#id1)"><rect x="-172.8" width="2073.6" fill="#000000" y="-129.599994" height="1555.199927" fill-opacity="0.2863"/></g></mask><clipPath id="id80"><path d="M 20 1 L 119 1 L 119 124 L 20 124 Z M 20 1 " clip-rule="nonzero"/></clipPath><clipPath id="id81"><path d="M 77.550781 163.1875 L 1.367188 83.726562 L 87.449219 1.191406 L 163.636719 80.652344 Z M 77.550781 163.1875 " clip-rule="nonzero"/></clipPath><clipPath id="id82"><rect x="0" width="165" y="0" height="164"/></clipPath><mask id="id83"><g filter="url(#id1)"><rect x="-172.8" width="2073.6" fill="#000000" y="-129.599994" height="1555.199927" fill-opacity="0.2863"/></g></mask><clipPath id="id84"><path d="M 0.96875 1.15625 L 90.132812 1.15625 L 90.132812 90.320312 L 0.96875 90.320312 Z M 0.96875 1.15625 " clip-rule="nonzero"/></clipPath><clipPath id="id85"><rect x="0" width="91" y="0" height="91"/></clipPath></defs><g mask="url(#id2)"><g transform="matrix(1, 0, 0, 1, 1250, 175)"><g clip-path="url(#id4)"><g clip-path="url(#id3)"><path fill="#d9d9d9" d="M 45.390625 90.03125 C 20.828125 90.03125 0.777344 69.984375 0.777344 45.355469 C 0.777344 20.792969 20.828125 0.742188 45.390625 0.742188 C 70.019531 0.742188 90.003906 20.792969 90.003906 45.355469 C 90.070312 69.984375 70.019531 90.03125 45.390625 90.03125 Z M 45.390625 25.304688 C 34.371094 25.304688 25.34375 34.335938 25.34375 45.355469 C 25.34375 56.375 34.371094 65.402344 45.390625 65.402344 C 56.410156 65.402344 65.441406 56.375 65.441406 45.355469 C 65.441406 34.335938 56.476562 25.304688 45.390625 25.304688 Z M 45.390625 25.304688 " fill-opacity="1" fill-rule="nonzero"/></g></g></g></g><g mask="url(#id5)"><g transform="matrix(1, 0, 0, 1, 1053, 534)"><g clip-path="url(#id7)"><g clip-path="url(#id6)"><path fill="#d9d9d9" d="M 27.421875 95.535156 L 0.933594 91.105469 L 13.558594 15.425781 L 57.757812 34.453125 L 67.335938 0.390625 L 93.171875 7.726562 L 75.246094 71.277344 L 34.386719 53.699219 Z M 27.421875 95.535156 " fill-opacity="1" fill-rule="nonzero"/></g></g></g></g><g mask="url(#id8)"><g transform="matrix(1, 0, 0, 1, 215, 558)"><g clip-path="url(#id11)"><g clip-path="url(#id9)"><g clip-path="url(#id10)"><path fill="#d9d9d9" d="M 170.53125 100.070312 L 37.765625 119.753906 L 69.175781 18.855469 Z M 71.957031 90.449219 L 112.492188 84.445312 L 81.523438 59.636719 Z M 71.957031 90.449219 " fill-opacity="1" fill-rule="nonzero"/></g></g></g></g></g><g mask="url(#id12)"><g transform="matrix(1, 0, 0, 1, 532, 534)"><g clip-path="url(#id14)"><g clip-path="url(#id13)"><path fill="#d9d9d9" d="M 45.421875 89.679688 C 20.859375 89.679688 0.808594 69.632812 0.808594 45 C 0.808594 20.4375 20.859375 0.390625 45.421875 0.390625 C 70.050781 0.390625 90.035156 20.4375 90.035156 45 C 90.101562 69.632812 70.050781 89.679688 45.421875 89.679688 Z M 45.421875 24.953125 C 34.402344 24.953125 25.375 33.980469 25.375 45 C 25.375 56.023438 34.402344 65.050781 45.421875 65.050781 C 56.441406 65.050781 65.472656 56.023438 65.472656 45 C 65.472656 33.980469 56.507812 24.953125 45.421875 24.953125 Z M 45.421875 24.953125 " fill-opacity="1" fill-rule="nonzero"/></g></g></g></g><g mask="url(#id15)"><g transform="matrix(1, 0, 0, 1, 115, 345)"><g clip-path="url(#id18)"><g clip-path="url(#id16)"><g clip-path="url(#id17)"><path fill="#d9d9d9" d="M 52.261719 19.9375 L 75.914062 3.820312 L 121.992188 71.375 L 73.945312 89.316406 L 91.683594 122.597656 L 66.390625 136 L 33.335938 73.871094 L 77.742188 57.273438 Z M 52.261719 19.9375 " fill-opacity="1" fill-rule="nonzero"/></g></g></g></g></g><g mask="url(#id19)"><g transform="matrix(1, 0, 0, 1, 1454, 175)"><g clip-path="url(#id21)"><g clip-path="url(#id20)"><path fill="#d9d9d9" d="M 175.898438 190.644531 L 0.613281 91.03125 L 131.175781 0.742188 Z M 68.1875 88.015625 L 121.703125 118.4375 L 108.03125 60.414062 Z M 68.1875 88.015625 " fill-opacity="1" fill-rule="nonzero"/></g></g></g></g><g mask="url(#id22)"><g transform="matrix(1, 0, 0, 1, 235, 780)"><g clip-path="url(#id25)"><g clip-path="url(#id23)"><g clip-path="url(#id24)"><path fill="#d9d9d9" d="M 17.160156 85.496094 L 5.089844 56.984375 L 86.527344 22.480469 L 95.34375 77.246094 L 134.40625 65.503906 L 143.246094 95.179688 L 70.332031 117.03125 L 62.167969 66.410156 Z M 17.160156 85.496094 " fill-opacity="1" fill-rule="nonzero"/></g></g></g></g></g><g mask="url(#id26)"><g transform="matrix(1, 0, 0, 1, 1065, 751)"><g clip-path="url(#id29)"><g clip-path="url(#id27)"><g clip-path="url(#id28)"><path fill="#d9d9d9" d="M 162.148438 74.976562 L 44.871094 122.695312 L 51.101562 23.203125 Z M 69.65625 88.195312 L 105.464844 73.628906 L 71.535156 57.816406 Z M 69.65625 88.195312 " fill-opacity="1" fill-rule="nonzero"/></g></g></g></g></g><g mask="url(#id30)"><g transform="matrix(1, 0, 0, 1, 72, 558)"><g clip-path="url(#id32)"><g clip-path="url(#id31)"><path fill="#d9d9d9" d="M 2.71875 60.257812 C 2.472656 59.609375 2.269531 58.917969 2.066406 58.269531 L 57.71875 2.617188 C 58.367188 2.820312 59.058594 3.023438 59.707031 3.269531 Z M 51.21875 1.195312 C 50.449219 1.074219 49.636719 0.992188 48.863281 0.910156 L 0.320312 49.453125 C 0.402344 50.226562 0.484375 51.039062 0.605469 51.808594 Z M 70.148438 8.671875 C 69.621094 8.304688 69.09375 7.9375 68.5625 7.613281 L 7.023438 69.15625 C 7.347656 69.683594 7.714844 70.210938 8.078125 70.738281 Z M 63.445312 4.8125 C 62.835938 4.527344 62.226562 4.242188 61.617188 4 L 3.449219 62.167969 C 3.691406 62.777344 3.976562 63.386719 4.261719 63.996094 Z M 66.898438 6.640625 C 66.332031 6.3125 65.761719 5.988281 65.191406 5.707031 L 5.074219 65.824219 C 5.359375 66.390625 5.683594 66.960938 6.007812 67.53125 Z M 26.804688 4.445312 C 24.898438 5.300781 23.027344 6.273438 21.242188 7.371094 L 6.78125 21.832031 C 5.644531 23.617188 4.667969 25.488281 3.855469 27.398438 Z M 43.746094 0.707031 L 0.117188 44.335938 C 0.117188 45.230469 0.117188 46.082031 0.160156 46.976562 L 46.34375 0.75 C 45.492188 0.707031 44.597656 0.707031 43.746094 0.707031 Z M 89.28125 45.066406 L 44.476562 89.871094 C 45.371094 89.871094 46.304688 89.871094 47.199219 89.789062 L 89.199219 47.789062 C 89.238281 46.894531 89.28125 45.960938 89.28125 45.066406 Z M 73.15625 10.984375 C 72.667969 10.578125 72.179688 10.171875 71.691406 9.808594 L 9.21875 72.28125 C 9.582031 72.769531 9.988281 73.257812 10.394531 73.746094 Z M 40.941406 0.871094 C 39.925781 0.953125 38.953125 1.074219 37.9375 1.238281 L 0.644531 38.527344 C 0.484375 39.542969 0.363281 40.515625 0.28125 41.53125 Z M 34.6875 1.847656 C 33.46875 2.128906 32.25 2.457031 31.03125 2.863281 L 2.230469 31.621094 C 1.863281 32.839844 1.5 34.019531 1.214844 35.277344 Z M 55.605469 2.050781 C 54.875 1.886719 54.183594 1.722656 53.453125 1.5625 L 0.972656 54.042969 C 1.132812 54.773438 1.296875 55.464844 1.457031 56.195312 Z M 88.46875 53.800781 C 88.671875 52.742188 88.835938 51.726562 88.957031 50.671875 L 50.082031 89.546875 C 51.136719 89.425781 52.195312 89.261719 53.210938 89.058594 Z M 89.199219 42.507812 C 89.160156 41.695312 89.078125 40.882812 88.996094 40.070312 L 39.480469 89.546875 C 40.292969 89.628906 41.105469 89.707031 41.917969 89.75 Z M 88.632812 37.753906 C 88.507812 37.023438 88.347656 36.292969 88.183594 35.5625 L 34.929688 88.773438 C 35.660156 88.9375 36.390625 89.097656 37.125 89.222656 Z M 75.917969 13.464844 C 75.46875 13.015625 75.023438 12.609375 74.574219 12.164062 L 11.613281 75.125 C 12.019531 75.574219 12.46875 76.019531 12.914062 76.464844 Z M 78.515625 74.3125 C 80.75 71.714844 82.617188 68.953125 84.164062 66.027344 L 65.4375 84.753906 C 68.359375 83.210938 71.125 81.339844 73.722656 79.105469 Z M 87.65625 33.449219 C 87.453125 32.757812 87.25 32.109375 87.046875 31.417969 L 30.828125 87.636719 C 31.519531 87.839844 32.167969 88.042969 32.859375 88.246094 Z M 86.355469 61.234375 C 86.84375 59.933594 87.289062 58.632812 87.65625 57.292969 L 56.703125 88.246094 C 58.042969 87.882812 59.34375 87.433594 60.644531 86.945312 Z M 80.832031 19.152344 C 80.464844 18.664062 80.101562 18.136719 79.695312 17.648438 L 17.058594 80.246094 C 17.542969 80.652344 18.074219 81.015625 18.558594 81.382812 Z M 86.355469 29.46875 C 86.113281 28.816406 85.867188 28.210938 85.585938 27.601562 L 26.96875 86.214844 C 27.578125 86.5 28.226562 86.742188 28.835938 86.988281 Z M 78.476562 16.183594 C 78.070312 15.699219 77.664062 15.25 77.214844 14.804688 L 14.214844 77.808594 C 14.660156 78.253906 15.148438 78.660156 15.59375 79.066406 Z M 82.902344 22.320312 C 82.578125 21.789062 82.253906 21.222656 81.886719 20.695312 L 20.105469 82.476562 C 20.632812 82.84375 21.160156 83.167969 21.726562 83.492188 Z M 84.773438 25.773438 C 84.488281 25.203125 84.203125 24.59375 83.878906 24.023438 L 23.433594 84.46875 C 24.003906 84.792969 24.570312 85.078125 25.179688 85.363281 Z M 84.773438 25.773438 " fill-opacity="1" fill-rule="nonzero"/></g></g></g></g><g mask="url(#id33)"><g transform="matrix(1, 0, 0, 1, 1452, 717)"><g clip-path="url(#id36)"><g clip-path="url(#id34)"><g clip-path="url(#id35)"><path fill="#d9d9d9" d="M 80.5 177.753906 L 66.121094 194.824219 L 9.648438 146.820312 L 48.296875 121.996094 L 14.5 93.945312 L 54.761719 73.722656 L 23.640625 43.640625 L 86.152344 10.058594 L 96.644531 29.769531 L 61.167969 48.863281 L 92.949219 79.523438 L 55.042969 98.515625 L 86 124.320312 L 47.144531 149.300781 Z M 80.5 177.753906 " fill-opacity="1" fill-rule="nonzero"/></g></g></g></g></g><g mask="url(#id37)"><g transform="matrix(1, 0, 0, 1, 419, 990)"><g clip-path="url(#id40)"><g clip-path="url(#id38)"><g clip-path="url(#id39)"><path fill="#d9d9d9" d="M 104.464844 148.582031 L 20.445312 53.867188 L 116.339844 26.640625 Z M 61.222656 65.761719 L 86.875 94.683594 L 90.5 57.421875 Z M 61.222656 65.761719 " fill-opacity="1" fill-rule="nonzero"/></g></g></g></g></g><g mask="url(#id41)"><g transform="matrix(1, 0, 0, 1, 1453, 1025)"><g clip-path="url(#id44)"><g clip-path="url(#id42)"><g clip-path="url(#id43)"><path fill="#d9d9d9" d="M 98.714844 90.695312 C 83.507812 109.984375 55.351562 113.316406 36.011719 98.070312 C 16.71875 82.863281 13.386719 54.703125 28.59375 35.414062 C 43.84375 16.074219 71.957031 12.792969 91.25 28 C 110.632812 43.195312 113.964844 71.351562 98.714844 90.695312 Z M 47.882812 50.621094 C 41.0625 59.277344 42.5625 71.957031 51.21875 78.777344 C 59.871094 85.601562 72.550781 84.101562 79.375 75.445312 C 86.195312 66.792969 84.695312 54.109375 76.042969 47.289062 C 67.386719 40.464844 54.746094 41.914062 47.882812 50.621094 Z M 47.882812 50.621094 " fill-opacity="1" fill-rule="nonzero"/></g></g></g></g></g><g mask="url(#id45)"><g transform="matrix(1, 0, 0, 1, 951, 1001)"><g clip-path="url(#id48)"><g clip-path="url(#id46)"><g clip-path="url(#id47)"><path fill="#d9d9d9" d="M 1.179688 101.859375 L 102.710938 26.21875 L 121.667969 124.085938 Z M 87.386719 65.835938 L 56.382812 88.925781 L 93.199219 95.710938 Z M 87.386719 65.835938 " fill-opacity="1" fill-rule="nonzero"/></g></g></g></g></g><g mask="url(#id49)"><g transform="matrix(1, 0, 0, 1, 753, 815)"><g clip-path="url(#id52)"><g clip-path="url(#id50)"><g clip-path="url(#id51)"><path fill="#d9d9d9" d="M 98.203125 90.957031 C 82.996094 110.246094 54.839844 113.582031 35.496094 98.332031 C 16.207031 83.125 12.875 54.96875 28.082031 35.679688 C 43.328125 16.335938 71.445312 13.054688 90.734375 28.261719 C 110.117188 43.457031 113.449219 71.617188 98.203125 90.957031 Z M 47.371094 50.886719 C 40.546875 59.539062 42.046875 72.21875 50.703125 79.042969 C 59.359375 85.867188 72.039062 84.363281 78.859375 75.710938 C 85.683594 67.054688 84.183594 54.375 75.527344 47.554688 C 66.871094 40.730469 54.234375 42.179688 47.371094 50.886719 Z M 47.371094 50.886719 " fill-opacity="1" fill-rule="nonzero"/></g></g></g></g></g><g mask="url(#id53)"><g transform="matrix(1, 0, 0, 1, 508, 764)"><g clip-path="url(#id56)"><g clip-path="url(#id54)"><g clip-path="url(#id55)"><path fill="#d9d9d9" d="M 117.480469 0.589844 L 76.503906 120.386719 L 5.535156 50.382812 Z M 66.746094 79.046875 L 79.261719 42.472656 L 45.058594 57.6875 Z M 66.746094 79.046875 " fill-opacity="1" fill-rule="nonzero"/></g></g></g></g></g><g mask="url(#id57)"><g transform="matrix(1, 0, 0, 1, 741, 445)"><g clip-path="url(#id60)"><g clip-path="url(#id58)"><g clip-path="url(#id59)"><path fill="#d9d9d9" d="M 176.503906 113.808594 L 182.839844 135.210938 L 111.671875 155.910156 L 112.230469 109.980469 L 70.207031 122.742188 L 75.5 78 L 33.25 87.410156 L 39.640625 16.738281 L 61.871094 18.835938 L 58.273438 58.964844 L 101.367188 49.320312 L 96.347656 91.417969 L 134.933594 79.789062 L 134.386719 125.980469 Z M 176.503906 113.808594 " fill-opacity="1" fill-rule="nonzero"/></g></g></g></g></g><g mask="url(#id61)"><g transform="matrix(1, 0, 0, 1, 1205, 391)"><g clip-path="url(#id64)"><g clip-path="url(#id62)"><g clip-path="url(#id63)"><path fill="#d9d9d9" d="M 77.484375 29.65625 L 112.941406 5.492188 L 182.015625 106.765625 L 109.988281 133.65625 L 136.582031 183.546875 L 98.664062 203.640625 L 49.113281 110.503906 L 115.679688 85.625 Z M 77.484375 29.65625 " fill-opacity="1" fill-rule="nonzero"/></g></g></g></g></g><g mask="url(#id65)"><g transform="matrix(1, 0, 0, 1, 356, 201)"><g clip-path="url(#id68)"><g clip-path="url(#id66)"><g clip-path="url(#id67)"><path fill="#d9d9d9" d="M 98.460938 91.339844 C 83.253906 110.628906 55.097656 113.960938 35.757812 98.714844 C 16.464844 83.507812 13.132812 55.351562 28.339844 36.058594 C 43.589844 16.71875 71.703125 13.4375 90.996094 28.644531 C 110.378906 43.839844 113.710938 71.996094 98.460938 91.339844 Z M 47.628906 51.265625 C 40.808594 59.921875 42.308594 72.601562 50.964844 79.421875 C 59.617188 86.246094 72.296875 84.746094 79.121094 76.089844 C 85.941406 67.4375 84.441406 54.757812 75.789062 47.933594 C 67.132812 41.109375 54.496094 42.558594 47.628906 51.265625 Z M 47.628906 51.265625 " fill-opacity="1" fill-rule="nonzero"/></g></g></g></g></g><g mask="url(#id69)"><g transform="matrix(1, 0, 0, 1, 1157, 950)"><g clip-path="url(#id71)"><g clip-path="url(#id70)"><path fill="#d9d9d9" d="M 20.089844 79.1875 L 0.96875 67.675781 L 39.492188 4.355469 L 70.085938 38.613281 L 92.472656 0.828125 L 118.777344 37.40625 L 143.589844 1.941406 L 186.589844 58.390625 L 168.773438 71.851562 L 144.335938 39.820312 L 119.058594 76.03125 L 94.339844 41.585938 L 73.726562 76.21875 L 42.945312 41.773438 Z M 20.089844 79.1875 " fill-opacity="1" fill-rule="nonzero"/></g></g></g></g><g mask="url(#id72)"><g transform="matrix(1, 0, 0, 1, 116, 1001)"><g clip-path="url(#id75)"><g clip-path="url(#id73)"><g clip-path="url(#id74)"><path fill="#d9d9d9" d="M 176.332031 113.132812 L 182.667969 134.535156 L 111.5 155.238281 L 112.058594 109.308594 L 70.03125 122.070312 L 75.328125 77.328125 L 33.078125 86.738281 L 39.46875 16.066406 L 61.699219 18.164062 L 58.101562 58.292969 L 101.195312 48.644531 L 96.175781 90.746094 L 134.761719 79.113281 L 134.214844 125.304688 Z M 176.332031 113.132812 " fill-opacity="1" fill-rule="nonzero"/></g></g></g></g></g><g mask="url(#id76)"><g transform="matrix(1, 0, 0, 1, 1540, 521)"><g clip-path="url(#id78)"><g clip-path="url(#id77)"><path fill="#d9d9d9" d="M 3.058594 60.046875 C 2.8125 59.394531 2.609375 58.707031 2.40625 58.054688 L 58.058594 2.40625 C 58.707031 2.609375 59.398438 2.8125 60.046875 3.054688 Z M 51.558594 0.984375 C 50.785156 0.863281 49.972656 0.78125 49.203125 0.699219 L 0.660156 49.242188 C 0.742188 50.011719 0.824219 50.824219 0.945312 51.597656 Z M 70.488281 8.457031 C 69.960938 8.09375 69.433594 7.726562 68.902344 7.402344 L 7.363281 68.941406 C 7.6875 69.46875 8.054688 69.996094 8.417969 70.527344 Z M 63.785156 4.597656 C 63.175781 4.3125 62.566406 4.03125 61.957031 3.785156 L 3.789062 61.953125 C 4.03125 62.5625 4.316406 63.171875 4.601562 63.78125 Z M 67.238281 6.425781 C 66.667969 6.101562 66.101562 5.777344 65.53125 5.492188 L 5.414062 65.609375 C 5.699219 66.179688 6.023438 66.75 6.347656 67.316406 Z M 27.144531 4.234375 C 25.234375 5.085938 23.367188 6.0625 21.582031 7.15625 L 7.121094 21.617188 C 5.980469 23.40625 5.007812 25.273438 4.195312 27.183594 Z M 44.085938 0.496094 L 0.457031 44.121094 C 0.457031 45.015625 0.457031 45.871094 0.5 46.761719 L 46.683594 0.535156 C 45.832031 0.496094 44.9375 0.496094 44.085938 0.496094 Z M 89.621094 44.855469 L 44.816406 89.660156 C 45.710938 89.660156 46.644531 89.660156 47.535156 89.578125 L 89.539062 47.574219 C 89.578125 46.679688 89.621094 45.746094 89.621094 44.855469 Z M 73.492188 10.773438 C 73.007812 10.367188 72.519531 9.960938 72.03125 9.59375 L 9.558594 72.070312 C 9.921875 72.558594 10.328125 73.042969 10.734375 73.53125 Z M 41.28125 0.660156 C 40.265625 0.738281 39.292969 0.863281 38.277344 1.023438 L 0.984375 38.3125 C 0.824219 39.328125 0.703125 40.304688 0.621094 41.320312 Z M 35.027344 1.632812 C 33.808594 1.917969 32.589844 2.242188 31.371094 2.648438 L 2.570312 31.410156 C 2.203125 32.625 1.839844 33.804688 1.554688 35.0625 Z M 55.945312 1.835938 C 55.214844 1.671875 54.523438 1.511719 53.792969 1.347656 L 1.3125 53.832031 C 1.472656 54.5625 1.636719 55.253906 1.796875 55.984375 Z M 88.808594 53.585938 C 89.011719 52.53125 89.171875 51.515625 89.296875 50.460938 L 50.421875 89.332031 C 51.476562 89.210938 52.535156 89.050781 53.550781 88.847656 Z M 89.539062 42.292969 C 89.5 41.480469 89.417969 40.667969 89.335938 39.855469 L 39.820312 89.332031 C 40.632812 89.414062 41.445312 89.496094 42.257812 89.535156 Z M 88.96875 37.542969 C 88.847656 36.8125 88.6875 36.078125 88.523438 35.347656 L 35.269531 88.5625 C 36 88.722656 36.730469 88.886719 37.464844 89.007812 Z M 76.257812 13.25 C 75.808594 12.804688 75.363281 12.398438 74.914062 11.949219 L 11.953125 74.914062 C 12.359375 75.359375 12.804688 75.808594 13.253906 76.253906 Z M 78.855469 74.101562 C 81.089844 71.5 82.957031 68.738281 84.503906 65.8125 L 65.777344 84.539062 C 68.699219 82.996094 71.460938 81.128906 74.0625 78.894531 Z M 87.996094 33.234375 C 87.792969 32.546875 87.589844 31.894531 87.386719 31.207031 L 31.167969 87.425781 C 31.859375 87.628906 32.507812 87.832031 33.199219 88.035156 Z M 86.695312 61.019531 C 87.183594 59.722656 87.628906 58.421875 87.996094 57.082031 L 57.042969 88.035156 C 58.382812 87.667969 59.683594 87.222656 60.984375 86.734375 Z M 81.171875 18.9375 C 80.804688 18.449219 80.441406 17.921875 80.035156 17.433594 L 17.394531 80.03125 C 17.882812 80.4375 18.410156 80.804688 18.898438 81.167969 Z M 86.695312 29.253906 C 86.453125 28.605469 86.207031 27.996094 85.921875 27.386719 L 27.308594 86.003906 C 27.917969 86.285156 28.566406 86.53125 29.175781 86.773438 Z M 78.816406 15.972656 C 78.410156 15.484375 78.003906 15.039062 77.554688 14.589844 L 14.554688 77.59375 C 15 78.039062 15.488281 78.445312 15.933594 78.851562 Z M 83.242188 22.105469 C 82.917969 21.578125 82.59375 21.007812 82.226562 20.480469 L 20.441406 82.265625 C 20.972656 82.632812 21.5 82.957031 22.066406 83.28125 Z M 85.109375 25.558594 C 84.828125 24.988281 84.542969 24.378906 84.21875 23.8125 L 23.773438 84.253906 C 24.34375 84.582031 24.910156 84.863281 25.519531 85.148438 Z M 85.109375 25.558594 " fill-opacity="1" fill-rule="nonzero"/></g></g></g></g><g mask="url(#id79)"><g transform="matrix(1, 0, 0, 1, 97, 138)"><g clip-path="url(#id82)"><g clip-path="url(#id80)"><g clip-path="url(#id81)"><path fill="#d9d9d9" d="M 87.453125 1.191406 L 118.476562 123.945312 L 20.804688 104 Z M 87.742188 94.621094 L 78.273438 57.144531 L 57.914062 88.558594 Z M 87.742188 94.621094 " fill-opacity="1" fill-rule="nonzero"/></g></g></g></g></g><g mask="url(#id83)"><g transform="matrix(1, 0, 0, 1, 726, 1092)"><g clip-path="url(#id85)"><g clip-path="url(#id84)"><path fill="#d9d9d9" d="M 3.570312 60.707031 C 3.324219 60.054688 3.121094 59.367188 2.917969 58.714844 L 58.570312 3.066406 C 59.21875 3.269531 59.910156 3.472656 60.558594 3.714844 Z M 52.070312 1.644531 C 51.296875 1.523438 50.484375 1.441406 49.714844 1.359375 L 1.171875 49.902344 C 1.253906 50.671875 1.335938 51.484375 1.457031 52.257812 Z M 71 9.117188 C 70.472656 8.753906 69.941406 8.386719 69.414062 8.0625 L 7.875 69.601562 C 8.199219 70.128906 8.566406 70.660156 8.929688 71.1875 Z M 64.296875 5.257812 C 63.6875 4.972656 63.078125 4.691406 62.46875 4.445312 L 4.300781 62.617188 C 4.542969 63.226562 4.828125 63.835938 5.113281 64.441406 Z M 67.75 7.085938 C 67.179688 6.761719 66.613281 6.4375 66.042969 6.152344 L 5.925781 66.269531 C 6.210938 66.839844 6.535156 67.410156 6.859375 67.976562 Z M 27.65625 4.894531 C 25.746094 5.746094 23.878906 6.722656 22.09375 7.816406 L 7.632812 22.277344 C 6.492188 24.066406 5.519531 25.933594 4.707031 27.84375 Z M 44.597656 1.15625 L 0.96875 44.78125 C 0.96875 45.675781 0.96875 46.53125 1.007812 47.421875 L 47.195312 1.195312 C 46.34375 1.15625 45.449219 1.15625 44.597656 1.15625 Z M 90.132812 45.515625 L 45.328125 90.320312 C 46.21875 90.320312 47.15625 90.320312 48.046875 90.238281 L 90.050781 48.234375 C 90.089844 47.34375 90.132812 46.40625 90.132812 45.515625 Z M 74.003906 11.433594 C 73.519531 11.027344 73.03125 10.621094 72.542969 10.253906 L 10.066406 72.730469 C 10.433594 73.21875 10.839844 73.703125 11.246094 74.191406 Z M 41.792969 1.320312 C 40.777344 1.398438 39.800781 1.523438 38.785156 1.683594 L 1.496094 38.972656 C 1.335938 39.988281 1.210938 40.964844 1.132812 41.980469 Z M 35.539062 2.292969 C 34.320312 2.578125 33.101562 2.902344 31.882812 3.308594 L 3.082031 32.070312 C 2.714844 33.289062 2.351562 34.464844 2.066406 35.722656 Z M 56.457031 2.496094 C 55.726562 2.335938 55.035156 2.171875 54.304688 2.007812 L 1.820312 54.492188 C 1.984375 55.222656 2.148438 55.914062 2.308594 56.644531 Z M 89.320312 54.246094 C 89.523438 53.191406 89.683594 52.175781 89.808594 51.121094 L 50.933594 89.992188 C 51.988281 89.871094 53.042969 89.710938 54.058594 89.507812 Z M 90.050781 42.953125 C 90.011719 42.140625 89.929688 41.332031 89.847656 40.519531 L 40.332031 89.992188 C 41.144531 90.074219 41.957031 90.15625 42.769531 90.195312 Z M 89.480469 38.203125 C 89.359375 37.472656 89.199219 36.738281 89.035156 36.007812 L 35.78125 89.222656 C 36.511719 89.382812 37.242188 89.546875 37.972656 89.667969 Z M 76.765625 13.910156 C 76.320312 13.464844 75.875 13.058594 75.425781 12.609375 L 12.464844 75.574219 C 12.871094 76.019531 13.316406 76.46875 13.765625 76.914062 Z M 79.367188 74.761719 C 81.601562 72.160156 83.46875 69.398438 85.011719 66.472656 L 66.289062 85.199219 C 69.210938 83.65625 71.972656 81.789062 74.574219 79.554688 Z M 88.507812 33.898438 C 88.304688 33.207031 88.101562 32.554688 87.898438 31.867188 L 31.679688 88.085938 C 32.367188 88.289062 33.019531 88.492188 33.710938 88.695312 Z M 87.207031 61.679688 C 87.695312 60.382812 88.140625 59.082031 88.507812 57.742188 L 57.554688 88.695312 C 58.894531 88.328125 60.195312 87.882812 61.492188 87.394531 Z M 81.683594 19.597656 C 81.316406 19.109375 80.953125 18.582031 80.546875 18.09375 L 17.90625 80.691406 C 18.394531 81.097656 18.921875 81.464844 19.410156 81.828125 Z M 87.207031 29.914062 C 86.964844 29.265625 86.71875 28.65625 86.433594 28.046875 L 27.820312 86.664062 C 28.429688 86.949219 29.078125 87.191406 29.6875 87.433594 Z M 79.328125 16.632812 C 78.921875 16.144531 78.515625 15.699219 78.066406 15.25 L 15.066406 78.253906 C 15.511719 78.703125 16 79.109375 16.445312 79.515625 Z M 83.753906 22.765625 C 83.429688 22.238281 83.105469 21.667969 82.738281 21.140625 L 20.953125 82.925781 C 21.484375 83.292969 22.011719 83.617188 22.578125 83.941406 Z M 85.621094 26.21875 C 85.339844 25.652344 85.054688 25.042969 84.730469 24.472656 L 24.285156 84.917969 C 24.855469 85.242188 25.421875 85.527344 26.03125 85.808594 Z M 85.621094 26.21875 " fill-opacity="1" fill-rule="nonzero"/></g></g></g></g></svg>