<svg xmlns="http://www.w3.org/2000/svg" xmlns:xlink="http://www.w3.org/1999/xlink" width="500" zoomAndPan="magnify" viewBox="0 0 375 374.999991" height="500" preserveAspectRatio="xMidYMid meet" version="1.0"><defs><clipPath id="id1"><path d="M 231 36 L 353.792969 36 L 353.792969 300 L 231 300 Z M 231 36 " clip-rule="nonzero"/></clipPath><clipPath id="id2"><path d="M 15.960938 8 L 214 8 L 214 227 L 15.960938 227 Z M 15.960938 8 " clip-rule="nonzero"/></clipPath><clipPath id="id3"><path d="M 27 244 L 292 244 L 292 363.414062 L 27 363.414062 Z M 27 244 " clip-rule="nonzero"/></clipPath><clipPath id="id4"><path d="M 120 249 L 156 249 L 156 284.167969 L 120 284.167969 Z M 120 249 " clip-rule="nonzero"/></clipPath><clipPath id="id5"><path d="M 217 249 L 252 249 L 252 284.167969 L 217 284.167969 Z M 217 249 " clip-rule="nonzero"/></clipPath><clipPath id="id6"><path d="M 100.25 145 L 258.703125 145 L 258.703125 250 L 100.25 250 Z M 100.25 145 " clip-rule="nonzero"/></clipPath><clipPath id="id7"><path d="M 210 110.765625 L 258.703125 110.765625 L 258.703125 160 L 210 160 Z M 210 110.765625 " clip-rule="nonzero"/></clipPath></defs><g clip-path="url(#id1)"><path fill="#6dcb83" d="M 343.96875 278.371094 L 334.210938 273.011719 C 347.011719 248.699219 353.75 221.4375 353.75 193.761719 C 353.75 157.140625 342.316406 122.273438 320.679688 92.921875 C 302.652344 68.464844 278.949219 49.636719 251.5 37.835938 C 243.660156 34.464844 234.628906 38.683594 232.011719 46.839844 C 229.710938 54.015625 233.21875 61.777344 240.117188 64.75 C 262.789062 74.523438 282.375 90.09375 297.285156 110.324219 C 315.179688 134.601562 324.640625 163.453125 324.640625 193.761719 C 324.640625 216.535156 319.128906 238.960938 308.667969 258.976562 L 298.984375 253.652344 C 296.019531 252.027344 292.523438 254.648438 293.238281 257.964844 L 301.515625 296.421875 C 302.023438 298.78125 304.496094 300.136719 306.746094 299.296875 L 343.453125 285.558594 C 346.617188 284.371094 346.929688 280 343.96875 278.371094 " fill-opacity="1" fill-rule="nonzero"/></g><g clip-path="url(#id2)"><path fill="#6dcb83" d="M 34.625 226.199219 C 41.953125 224.625 46.910156 217.714844 46.035156 210.238281 C 45.398438 204.777344 45.078125 199.265625 45.078125 193.761719 C 45.078125 156.257812 59.617188 121 86.019531 94.480469 C 110.386719 70.003906 142.171875 55.6875 176.277344 53.628906 L 176.269531 64.351562 C 176.269531 67.742188 180.234375 69.566406 182.792969 67.347656 L 212.425781 41.617188 C 214.242188 40.039062 214.246094 37.210938 212.429688 35.628906 L 182.832031 9.855469 C 180.28125 7.632812 176.308594 9.453125 176.308594 12.84375 L 176.300781 24.332031 C 134.402344 26.417969 95.308594 43.796875 65.433594 73.804688 C 33.535156 105.84375 15.964844 148.445312 15.964844 193.761719 C 15.964844 200.371094 16.351562 206.984375 17.113281 213.546875 C 18.109375 222.128906 26.214844 228.007812 34.625 226.199219 " fill-opacity="1" fill-rule="nonzero"/></g><g clip-path="url(#id3)"><path fill="#6dcb83" d="M 268.5 306.261719 C 244.4375 324.335938 215.195312 334.164062 184.859375 334.164062 C 159.882812 334.164062 135.378906 327.472656 114 314.8125 C 95.328125 303.761719 79.429688 288.433594 67.628906 270.226562 L 77.371094 264.507812 C 80.289062 262.796875 79.851562 258.4375 76.65625 257.34375 L 39.578125 244.648438 C 37.304688 243.867188 34.875 245.292969 34.433594 247.667969 L 27.234375 286.34375 C 26.613281 289.675781 30.179688 292.203125 33.097656 290.492188 L 42.457031 284.996094 C 56.777344 307.496094 76.273438 326.421875 99.214844 340.003906 C 125.074219 355.3125 154.6875 363.40625 184.859375 363.40625 C 221.453125 363.40625 256.730469 351.566406 285.78125 329.792969 C 292.683594 324.621094 293.710938 314.628906 287.929688 308.214844 C 282.914062 302.648438 274.484375 301.765625 268.5 306.261719 " fill-opacity="1" fill-rule="nonzero"/></g><g clip-path="url(#id4)"><path fill="#c9e265" d="M 138.140625 249.480469 C 128.644531 249.480469 120.917969 257.257812 120.917969 266.816406 C 120.917969 276.375 128.644531 284.152344 138.140625 284.152344 C 147.636719 284.152344 155.363281 276.375 155.363281 266.816406 C 155.363281 257.257812 147.636719 249.480469 138.140625 249.480469 Z M 138.140625 249.480469 " fill-opacity="1" fill-rule="nonzero"/></g><g clip-path="url(#id5)"><path fill="#c9e265" d="M 234.589844 249.480469 C 225.09375 249.480469 217.367188 257.257812 217.367188 266.816406 C 217.367188 276.375 225.09375 284.152344 234.589844 284.152344 C 244.085938 284.152344 251.8125 276.375 251.8125 266.816406 C 251.8125 257.257812 244.085938 249.480469 234.589844 249.480469 Z M 234.589844 249.480469 " fill-opacity="1" fill-rule="nonzero"/></g><g clip-path="url(#id6)"><path fill="#c9e265" d="M 255.257812 173.195312 L 120.917969 173.195312 L 120.917969 148.921875 C 120.917969 147.007812 119.375 145.457031 117.472656 145.457031 L 103.695312 145.457031 C 101.792969 145.457031 100.25 147.007812 100.25 148.921875 C 100.25 150.835938 101.792969 152.390625 103.695312 152.390625 L 114.027344 152.390625 L 114.027344 176.664062 C 114.027344 216.8125 146.476562 249.480469 186.367188 249.480469 C 226.25 249.480469 258.703125 216.8125 258.703125 176.664062 C 258.703125 174.75 257.164062 173.195312 255.257812 173.195312 Z M 255.257812 173.195312 " fill-opacity="1" fill-rule="nonzero"/></g><g clip-path="url(#id7)"><path fill="#c9e265" d="M 213.921875 159.324219 L 255.257812 159.324219 C 257.164062 159.324219 258.703125 157.773438 258.703125 155.859375 C 258.703125 131.003906 238.613281 110.78125 213.921875 110.78125 C 212.019531 110.78125 210.476562 112.335938 210.476562 114.25 L 210.476562 155.859375 C 210.476562 157.773438 212.019531 159.324219 213.921875 159.324219 Z M 213.921875 159.324219 " fill-opacity="1" fill-rule="nonzero"/></g></svg>